SplineFontDB: 1.0
FontName: DejaVuSerif
FullName: DejaVu Serif
FamilyName: DejaVu Serif
Weight: Book
Copyright: Copyright (c) 2003 by Bitstream, Inc. All Rights Reserved.\nDejaVu changes are in public domain\n
Version: 2.1
ItalicAngle: 0
UnderlinePosition: -213
UnderlineWidth: 133
Ascent: 1556
Descent: 492
Order2: 1
NeedsXUIDChange: 1
FSType: 0
PfmFamily: 17
TTFWeight: 400
TTFWidth: 5
LineGap: 0
VLineGap: 0
Panose: 2 6 6 3 5 6 5 2 2 4
OS2TypoAscent: 1556
OS2TypoAOffset: 0
OS2TypoDescent: -492
OS2TypoDOffset: 0
OS2TypoLinegap: 410
OS2WinAscent: 1901
OS2WinAOffset: 0
OS2WinDescent: 483
OS2WinDOffset: 0
HheadAscent: 1901
HheadAOffset: 0
HheadDescent: -483
HheadDOffset: 0
OS2Vendor: 'PfEd'
ScriptLang: 2
 3 cyrl 1 dflt grek 1 dflt latn 1 dflt 
 1 DFLT 1 dflt 
ChainSub: class 0 0 'ccmp' 4 4 4 2
  Class: 3 i j
  Class: 181 gravecomb acutecomb uni0302 tildecomb uni0304 uni0305 uni0306 uni0307 uni0308 uni030A uni030B uni030C uni030D uni030E uni030F uni0310 uni0311 uni0312 uni0313 uni0314 uni033D uni033E

StartChar: .notdef
Encoding: 0 -1 0
AltUni: 0
Width: 1229
Flags: W
Fore
102 -362 m 1,0,-1
 102 1444 l 1,1,-1
 1126 1444 l 1,2,-1
 1126 -362 l 1,3,-1
 102 -362 l 1,0,-1
217 -248 m 1,4,-1
 1012 -248 l 1,5,-1
 1012 1329 l 1,6,-1
 217 1329 l 1,7,-1
 217 -248 l 1,4,-1
EndSplineSet
EndChar
StartChar: exclam
Encoding: 33 33 33
Width: 823
Flags: W
Fore
279 104 m 0,0,1
 279 160 279 160 317 199 c 128,-1,2
 355 238 355 238 412 238 c 0,3,4
 467 238 467 238 506 199 c 128,-1,5
 545 160 545 160 545 104 c 0,6,7
 545 49 545 49 506 10 c 128,-1,8
 467 -29 467 -29 412 -29 c 0,9,10
 355 -29 355 -29 317 9.5 c 128,-1,11
 279 48 279 48 279 104 c 0,0,1
283 1493 m 1,12,-1
 541 1493 l 1,13,-1
 473 672 l 1,14,-1
 473 420 l 1,15,-1
 350 420 l 1,16,-1
 350 672 l 1,17,-1
 283 1493 l 1,12,-1
EndSplineSet
EndChar
StartChar: quotedbl
Encoding: 34 34 34
Width: 942
Flags: W
Fore
360 1493 m 1,0,-1
 360 938 l 1,1,-1
 201 938 l 1,2,-1
 201 1493 l 1,3,-1
 360 1493 l 1,0,-1
741 1493 m 1,4,-1
 741 938 l 1,5,-1
 582 938 l 1,6,-1
 582 1493 l 1,7,-1
 741 1493 l 1,4,-1
EndSplineSet
EndChar
StartChar: numbersign
Encoding: 35 35 35
Width: 1716
Flags: W
Fore
1042 901 m 1,0,-1
 760 901 l 1,1,-1
 676 567 l 1,2,-1
 961 567 l 1,3,-1
 1042 901 l 1,0,-1
901 1470 m 1,4,-1
 799 1055 l 1,5,-1
 1081 1055 l 1,6,-1
 1184 1470 l 1,7,-1
 1356 1470 l 1,8,-1
 1251 1055 l 1,9,-1
 1559 1055 l 1,10,-1
 1559 901 l 1,11,-1
 1212 901 l 1,12,-1
 1130 567 l 1,13,-1
 1444 567 l 1,14,-1
 1444 414 l 1,15,-1
 1092 414 l 1,16,-1
 989 0 l 1,17,-1
 817 0 l 1,18,-1
 922 414 l 1,19,-1
 639 414 l 1,20,-1
 535 0 l 1,21,-1
 365 0 l 1,22,-1
 467 414 l 1,23,-1
 158 414 l 1,24,-1
 158 567 l 1,25,-1
 506 567 l 1,26,-1
 588 901 l 1,27,-1
 272 901 l 1,28,-1
 272 1055 l 1,29,-1
 627 1055 l 1,30,-1
 731 1470 l 1,31,-1
 901 1470 l 1,4,-1
EndSplineSet
EndChar
StartChar: dollar
Encoding: 36 36 36
Width: 1303
Flags: W
Fore
690 68 m 1,0,1
 803 78 803 78 862.5 133 c 128,-1,2
 922 188 922 188 922 283 c 0,3,4
 922 369 922 369 863 429 c 128,-1,5
 804 489 804 489 690 520 c 1,6,-1
 690 68 l 1,0,1
590 1187 m 1,7,8
 487 1180 487 1180 430 1127.5 c 128,-1,9
 373 1075 373 1075 373 987 c 0,10,11
 373 907 373 907 425.5 854 c 128,-1,12
 478 801 478 801 590 768 c 1,13,-1
 590 1187 l 1,7,8
176 72 m 1,14,-1
 176 348 l 1,15,-1
 284 348 l 1,16,17
 288 211 288 211 364 141 c 128,-1,18
 440 71 440 71 590 68 c 1,19,-1
 590 553 l 1,20,21
 360 617 360 617 267 700.5 c 128,-1,22
 174 784 174 784 174 922 c 0,23,24
 174 1082 174 1082 284 1179 c 128,-1,25
 394 1276 394 1276 590 1288 c 1,26,-1
 590 1556 l 1,27,-1
 690 1556 l 1,28,-1
 690 1288 l 1,29,30
 791 1280 791 1280 884.5 1255.5 c 128,-1,31
 978 1231 978 1231 1067 1190 c 1,32,-1
 1067 928 l 1,33,-1
 958 928 l 1,34,35
 946 1044 946 1044 877 1111 c 128,-1,36
 808 1178 808 1178 690 1187 c 1,37,-1
 690 735 l 1,38,39
 936 668 936 668 1034.5 581.5 c 128,-1,40
 1133 495 1133 495 1133 350 c 0,41,42
 1133 184 1133 184 1017 84 c 128,-1,43
 901 -16 901 -16 690 -31 c 1,44,-1
 690 -301 l 1,45,-1
 590 -301 l 1,46,-1
 590 -31 l 1,47,48
 494 -29 494 -29 391 -3.5 c 128,-1,49
 288 22 288 22 176 72 c 1,14,-1
EndSplineSet
EndChar
StartChar: percent
Encoding: 37 37 37
Width: 1946
Flags: W
Fore
459 1427 m 0,0,1
 371 1427 371 1427 321.5 1344 c 128,-1,2
 272 1261 272 1261 272 1112 c 0,3,4
 272 965 272 965 322.5 881 c 128,-1,5
 373 797 373 797 459 797 c 0,6,7
 544 797 544 797 593.5 880.5 c 128,-1,8
 643 964 643 964 643 1112 c 0,9,10
 643 1260 643 1260 593.5 1343.5 c 128,-1,11
 544 1427 544 1427 459 1427 c 0,0,1
1489 694 m 0,12,13
 1402 694 1402 694 1352.5 610 c 128,-1,14
 1303 526 1303 526 1303 377 c 0,15,16
 1303 230 1303 230 1353 146.5 c 128,-1,17
 1403 63 1403 63 1489 63 c 0,18,19
 1575 63 1575 63 1624 146.5 c 128,-1,20
 1673 230 1673 230 1673 377 c 0,21,22
 1673 525 1673 525 1623.5 609.5 c 128,-1,23
 1574 694 1574 694 1489 694 c 0,12,13
1489 784 m 0,24,25
 1647 784 1647 784 1740 674 c 128,-1,26
 1833 564 1833 564 1833 377 c 0,27,28
 1833 190 1833 190 1739.5 80.5 c 128,-1,29
 1646 -29 1646 -29 1489 -29 c 0,30,31
 1329 -29 1329 -29 1236 80.5 c 128,-1,32
 1143 190 1143 190 1143 377 c 0,33,34
 1143 565 1143 565 1236.5 674.5 c 128,-1,35
 1330 784 1330 784 1489 784 c 0,24,25
1364 1520 m 1,36,-1
 1516 1520 l 1,37,-1
 582 -29 l 1,38,-1
 430 -29 l 1,39,-1
 1364 1520 l 1,36,-1
457 1520 m 0,40,41
 615 1520 615 1520 709 1410.5 c 128,-1,42
 803 1301 803 1301 803 1114 c 0,43,44
 803 925 803 925 709.5 816 c 128,-1,45
 616 707 616 707 457 707 c 0,46,47
 298 707 298 707 205.5 816.5 c 128,-1,48
 113 926 113 926 113 1114 c 0,49,50
 113 1300 113 1300 206 1410 c 128,-1,51
 299 1520 299 1520 457 1520 c 0,40,41
EndSplineSet
EndChar
StartChar: ampersand
Encoding: 38 38 38
Width: 1823
Flags: W
Fore
1106 231 m 1,0,-1
 524 844 l 1,1,2
 437 766 437 766 393.5 675.5 c 128,-1,3
 350 585 350 585 350 483 c 0,4,5
 350 317 350 317 465 204.5 c 128,-1,6
 580 92 580 92 752 92 c 0,7,8
 854 92 854 92 944.5 127.5 c 128,-1,9
 1035 163 1035 163 1106 231 c 1,0,-1
1726 0 m 1,10,-1
 1325 0 l 1,11,-1
 1188 145 l 1,12,13
 1083 57 1083 57 964 14 c 128,-1,14
 845 -29 845 -29 707 -29 c 0,15,16
 449 -29 449 -29 298 103 c 128,-1,17
 147 235 147 235 147 461 c 0,18,19
 147 594 147 594 223.5 709.5 c 128,-1,20
 300 825 300 825 455 926 c 1,21,22
 404 987 404 987 380 1047.5 c 128,-1,23
 356 1108 356 1108 356 1174 c 0,24,25
 356 1333 356 1333 470.5 1426.5 c 128,-1,26
 585 1520 585 1520 782 1520 c 0,27,28
 849 1520 849 1520 938.5 1503 c 128,-1,29
 1028 1486 1028 1486 1143 1452 c 1,30,-1
 1143 1194 l 1,31,-1
 1030 1194 l 1,32,33
 1016 1301 1016 1301 952 1357 c 128,-1,34
 888 1413 888 1413 778 1413 c 0,35,36
 675 1413 675 1413 611 1356.5 c 128,-1,37
 547 1300 547 1300 547 1210 c 0,38,39
 547 1149 547 1149 581 1088.5 c 128,-1,40
 615 1028 615 1028 723 915 c 2,41,-1
 1239 371 l 1,42,43
 1308 451 1308 451 1347.5 543.5 c 128,-1,44
 1387 636 1387 636 1397 741 c 1,45,-1
 1217 741 l 1,46,-1
 1217 848 l 1,47,-1
 1690 848 l 1,48,-1
 1690 741 l 1,49,-1
 1518 741 l 1,50,51
 1501 611 1501 611 1451.5 498 c 128,-1,52
 1402 385 1402 385 1319 289 c 1,53,-1
 1491 106 l 1,54,-1
 1726 106 l 1,55,-1
 1726 0 l 1,10,-1
EndSplineSet
EndChar
StartChar: quotesingle
Encoding: 39 39 39
Width: 563
Flags: W
Fore
360 1493 m 1,0,-1
 360 938 l 1,1,-1
 201 938 l 1,2,-1
 201 1493 l 1,3,-1
 360 1493 l 1,0,-1
EndSplineSet
EndChar
StartChar: parenleft
Encoding: 40 40 40
Width: 799
Flags: W
Fore
653 -319 m 1,0,1
 410 -210 410 -210 286 26.5 c 128,-1,2
 162 263 162 263 162 618 c 0,3,4
 162 974 162 974 286 1210.5 c 128,-1,5
 410 1447 410 1447 653 1556 c 1,6,-1
 653 1458 l 1,7,8
 499 1352 499 1352 432 1159.5 c 128,-1,9
 365 967 365 967 365 618 c 0,10,11
 365 270 365 270 432 77.5 c 128,-1,12
 499 -115 499 -115 653 -221 c 1,13,-1
 653 -319 l 1,0,1
EndSplineSet
EndChar
StartChar: parenright
Encoding: 41 41 41
Width: 799
Flags: W
Fore
145 -319 m 1,0,-1
 145 -221 l 1,1,2
 299 -115 299 -115 366.5 77.5 c 128,-1,3
 434 270 434 270 434 618 c 0,4,5
 434 967 434 967 366.5 1159.5 c 128,-1,6
 299 1352 299 1352 145 1458 c 1,7,-1
 145 1556 l 1,8,9
 389 1447 389 1447 513 1210.5 c 128,-1,10
 637 974 637 974 637 618 c 0,11,12
 637 263 637 263 513 26.5 c 128,-1,13
 389 -210 389 -210 145 -319 c 1,0,-1
EndSplineSet
EndChar
StartChar: asterisk
Encoding: 42 42 42
Width: 1024
Flags: W
Fore
991 1237 m 1,0,-1
 600 1055 l 1,1,-1
 991 870 l 1,2,-1
 915 752 l 1,3,-1
 567 969 l 1,4,-1
 580 588 l 1,5,-1
 444 588 l 1,6,-1
 457 969 l 1,7,-1
 109 752 l 1,8,-1
 33 870 l 1,9,-1
 424 1053 l 1,10,-1
 33 1237 l 1,11,-1
 109 1356 l 1,12,-1
 457 1139 l 1,13,-1
 444 1520 l 1,14,-1
 580 1520 l 1,15,-1
 567 1139 l 1,16,-1
 915 1356 l 1,17,-1
 991 1237 l 1,0,-1
EndSplineSet
EndChar
StartChar: plus
Encoding: 43 43 43
Width: 1716
Flags: W
Fore
938 1284 m 1,0,-1
 938 723 l 1,1,-1
 1499 723 l 1,2,-1
 1499 561 l 1,3,-1
 938 561 l 1,4,-1
 938 0 l 1,5,-1
 778 0 l 1,6,-1
 778 561 l 1,7,-1
 217 561 l 1,8,-1
 217 723 l 1,9,-1
 778 723 l 1,10,-1
 778 1284 l 1,11,-1
 938 1284 l 1,0,-1
EndSplineSet
EndChar
StartChar: comma
Encoding: 44 44 44
Width: 651
Flags: W
Fore
74 -199 m 1,0,1
 168 -130 168 -130 212 -36.5 c 128,-1,2
 256 57 256 57 256 190 c 2,3,-1
 256 227 l 1,4,-1
 453 227 l 1,5,6
 445 56 445 56 372.5 -66.5 c 128,-1,7
 300 -189 300 -189 154 -279 c 1,8,-1
 74 -199 l 1,0,1
EndSplineSet
EndChar
StartChar: hyphen
Encoding: 45 45 45
Width: 692
Flags: W
Fore
90 627 m 1,0,-1
 602 627 l 1,1,-1
 602 471 l 1,2,-1
 90 471 l 1,3,-1
 90 627 l 1,0,-1
EndSplineSet
KernsSLIFO: 356 -73 0 0 221 -225 0 0 376 -225 0 0 89 -225 0 0 88 -73 0 0 87 -112 0 0 86 -149 0 0 84 -73 0 0
EndChar
StartChar: period
Encoding: 46 46 46
Width: 651
Flags: W
Fore
193 104 m 0,0,1
 193 160 193 160 231 199 c 128,-1,2
 269 238 269 238 326 238 c 0,3,4
 381 238 381 238 420 199 c 128,-1,5
 459 160 459 160 459 104 c 0,6,7
 459 49 459 49 420 10 c 128,-1,8
 381 -29 381 -29 326 -29 c 0,9,10
 269 -29 269 -29 231 9.5 c 128,-1,11
 193 48 193 48 193 104 c 0,0,1
EndSplineSet
EndChar
StartChar: slash
Encoding: 47 47 47
Width: 690
Flags: W
Fore
530 1493 m 1,0,-1
 690 1493 l 1,1,-1
 160 -190 l 1,2,-1
 0 -190 l 1,3,-1
 530 1493 l 1,0,-1
EndSplineSet
EndChar
StartChar: zero
Encoding: 48 48 48
Width: 1303
Flags: W
Fore
651 70 m 0,0,1
 804 70 804 70 880 238 c 128,-1,2
 956 406 956 406 956 745 c 0,3,4
 956 1085 956 1085 880 1253 c 128,-1,5
 804 1421 804 1421 651 1421 c 0,6,7
 498 1421 498 1421 422 1253 c 128,-1,8
 346 1085 346 1085 346 745 c 0,9,10
 346 406 346 406 422 238 c 128,-1,11
 498 70 498 70 651 70 c 0,0,1
651 -29 m 0,12,13
 408 -29 408 -29 271.5 175 c 128,-1,14
 135 379 135 379 135 745 c 0,15,16
 135 1112 135 1112 271.5 1316 c 128,-1,17
 408 1520 408 1520 651 1520 c 0,18,19
 895 1520 895 1520 1031 1316 c 128,-1,20
 1167 1112 1167 1112 1167 745 c 0,21,22
 1167 379 1167 379 1031 175 c 128,-1,23
 895 -29 895 -29 651 -29 c 0,12,13
EndSplineSet
EndChar
StartChar: one
Encoding: 49 49 49
Width: 1303
Flags: W
Fore
291 0 m 1,0,-1
 291 106 l 1,1,-1
 551 106 l 1,2,-1
 551 1348 l 1,3,-1
 250 1153 l 1,4,-1
 250 1284 l 1,5,-1
 614 1520 l 1,6,-1
 752 1520 l 1,7,-1
 752 106 l 1,8,-1
 1012 106 l 1,9,-1
 1012 0 l 1,10,-1
 291 0 l 1,0,-1
EndSplineSet
EndChar
StartChar: two
Encoding: 50 50 50
Width: 1303
Flags: W
Fore
262 1137 m 1,0,-1
 150 1137 l 1,1,-1
 150 1403 l 1,2,3
 257 1460 257 1460 365.5 1490 c 128,-1,4
 474 1520 474 1520 578 1520 c 0,5,6
 811 1520 811 1520 946 1407 c 128,-1,7
 1081 1294 1081 1294 1081 1100 c 0,8,9
 1081 881 1081 881 775 576 c 0,10,11
 751 553 751 553 739 541 c 2,12,-1
 362 164 l 1,13,-1
 985 164 l 1,14,-1
 985 348 l 1,15,-1
 1102 348 l 1,16,-1
 1102 0 l 1,17,-1
 139 0 l 1,18,-1
 139 109 l 1,19,-1
 592 561 l 2,20,21
 742 711 742 711 806 836.5 c 128,-1,22
 870 962 870 962 870 1100 c 0,23,24
 870 1251 870 1251 791.5 1336 c 128,-1,25
 713 1421 713 1421 575 1421 c 0,26,27
 432 1421 432 1421 354 1350 c 128,-1,28
 276 1279 276 1279 262 1137 c 1,0,-1
EndSplineSet
EndChar
StartChar: three
Encoding: 51 51 51
Width: 1303
Flags: W
Fore
199 1430 m 1,0,1
 316 1474 316 1474 423.5 1497 c 128,-1,2
 531 1520 531 1520 625 1520 c 0,3,4
 844 1520 844 1520 967 1425.5 c 128,-1,5
 1090 1331 1090 1331 1090 1163 c 0,6,7
 1090 1028 1090 1028 1005 937.5 c 128,-1,8
 920 847 920 847 764 815 c 1,9,10
 948 789 948 789 1049.5 681.5 c 128,-1,11
 1151 574 1151 574 1151 403 c 0,12,13
 1151 194 1151 194 1010.5 82.5 c 128,-1,14
 870 -29 870 -29 606 -29 c 0,15,16
 489 -29 489 -29 377.5 -4 c 128,-1,17
 266 21 266 21 156 72 c 1,18,-1
 156 362 l 1,19,-1
 268 362 l 1,20,21
 278 218 278 218 365 144 c 128,-1,22
 452 70 452 70 610 70 c 0,23,24
 763 70 763 70 851.5 158.5 c 128,-1,25
 940 247 940 247 940 401 c 0,26,27
 940 577 940 577 849 667.5 c 128,-1,28
 758 758 758 758 582 758 c 2,29,-1
 487 758 l 1,30,-1
 487 860 l 1,31,-1
 537 860 l 2,32,33
 712 860 712 860 799.5 932.5 c 128,-1,34
 887 1005 887 1005 887 1151 c 0,35,36
 887 1282 887 1282 815 1351.5 c 128,-1,37
 743 1421 743 1421 608 1421 c 0,38,39
 473 1421 473 1421 398.5 1357 c 128,-1,40
 324 1293 324 1293 311 1167 c 1,41,-1
 199 1167 l 1,42,-1
 199 1430 l 1,0,1
EndSplineSet
EndChar
StartChar: four
Encoding: 52 52 52
Width: 1303
Flags: W
Fore
715 506 m 1,0,-1
 715 1300 l 1,1,-1
 205 506 l 1,2,-1
 715 506 l 1,0,-1
1155 0 m 1,3,-1
 475 0 l 1,4,-1
 475 106 l 1,5,-1
 715 106 l 1,6,-1
 715 399 l 1,7,-1
 63 399 l 1,8,-1
 63 508 l 1,9,-1
 717 1520 l 1,10,-1
 915 1520 l 1,11,-1
 915 506 l 1,12,-1
 1200 506 l 1,13,-1
 1200 399 l 1,14,-1
 915 399 l 1,15,-1
 915 106 l 1,16,-1
 1155 106 l 1,17,-1
 1155 0 l 1,3,-1
EndSplineSet
EndChar
StartChar: five
Encoding: 53 53 53
Width: 1303
Flags: W
Fore
1030 1493 m 1,0,-1
 1030 1329 l 1,1,-1
 346 1329 l 1,2,-1
 346 901 l 1,3,4
 398 937 398 937 467.5 955 c 128,-1,5
 537 973 537 973 623 973 c 0,6,7
 865 973 865 973 1005 839 c 128,-1,8
 1145 705 1145 705 1145 473 c 0,9,10
 1145 236 1145 236 1003.5 103.5 c 128,-1,11
 862 -29 862 -29 606 -29 c 0,12,13
 503 -29 503 -29 395 -4 c 128,-1,14
 287 21 287 21 174 72 c 1,15,-1
 174 362 l 1,16,-1
 287 362 l 1,17,18
 296 220 296 220 377.5 145 c 128,-1,19
 459 70 459 70 606 70 c 0,20,21
 764 70 764 70 849 174 c 128,-1,22
 934 278 934 278 934 473 c 0,23,24
 934 667 934 667 849.5 770.5 c 128,-1,25
 765 874 765 874 606 874 c 0,26,27
 516 874 516 874 447.5 842 c 128,-1,28
 379 810 379 810 326 743 c 1,29,-1
 240 743 l 1,30,-1
 240 1493 l 1,31,-1
 1030 1493 l 1,0,-1
EndSplineSet
EndChar
StartChar: six
Encoding: 54 54 54
Width: 1303
Flags: W
Fore
670 70 m 0,0,1
 811 70 811 70 887 173.5 c 128,-1,2
 963 277 963 277 963 471 c 0,3,4
 963 665 963 665 887 768.5 c 128,-1,5
 811 872 811 872 670 872 c 0,6,7
 527 872 527 872 452 772 c 128,-1,8
 377 672 377 672 377 483 c 0,9,10
 377 284 377 284 453 177 c 128,-1,11
 529 70 529 70 670 70 c 0,0,1
344 822 m 1,12,13
 412 897 412 897 498 934 c 128,-1,14
 584 971 584 971 692 971 c 0,15,16
 915 971 915 971 1044.5 837 c 128,-1,17
 1174 703 1174 703 1174 471 c 0,18,19
 1174 244 1174 244 1034.5 107.5 c 128,-1,20
 895 -29 895 -29 662 -29 c 0,21,22
 409 -29 409 -29 273 159.5 c 128,-1,23
 137 348 137 348 137 698 c 0,24,25
 137 1090 137 1090 298 1305 c 128,-1,26
 459 1520 459 1520 752 1520 c 0,27,28
 831 1520 831 1520 918 1505 c 128,-1,29
 1005 1490 1005 1490 1096 1460 c 1,30,-1
 1096 1214 l 1,31,-1
 983 1214 l 1,32,33
 971 1315 971 1315 906 1368 c 128,-1,34
 841 1421 841 1421 731 1421 c 0,35,36
 537 1421 537 1421 442 1274 c 128,-1,37
 347 1127 347 1127 344 822 c 1,12,13
EndSplineSet
EndChar
StartChar: seven
Encoding: 55 55 55
Width: 1303
Flags: W
Fore
1155 1391 m 1,0,-1
 571 0 l 1,1,-1
 422 0 l 1,2,-1
 979 1329 l 1,3,-1
 289 1329 l 1,4,-1
 289 1145 l 1,5,-1
 172 1145 l 1,6,-1
 172 1493 l 1,7,-1
 1155 1493 l 1,8,-1
 1155 1391 l 1,0,-1
EndSplineSet
EndChar
StartChar: eight
Encoding: 56 56 56
Width: 1303
Flags: W
Fore
954 408 m 0,0,1
 954 568 954 568 874.5 656.5 c 128,-1,2
 795 745 795 745 651 745 c 0,3,4
 507 745 507 745 427.5 656.5 c 128,-1,5
 348 568 348 568 348 408 c 0,6,7
 348 247 348 247 427.5 158.5 c 128,-1,8
 507 70 507 70 651 70 c 0,9,10
 795 70 795 70 874.5 158.5 c 128,-1,11
 954 247 954 247 954 408 c 0,0,1
913 1133 m 0,12,13
 913 1269 913 1269 844 1345 c 128,-1,14
 775 1421 775 1421 651 1421 c 0,15,16
 528 1421 528 1421 458.5 1345 c 128,-1,17
 389 1269 389 1269 389 1133 c 0,18,19
 389 996 389 996 458.5 920 c 128,-1,20
 528 844 528 844 651 844 c 0,21,22
 775 844 775 844 844 920 c 128,-1,23
 913 996 913 996 913 1133 c 0,12,13
805 795 m 1,24,25
 975 772 975 772 1070 669.5 c 128,-1,26
 1165 567 1165 567 1165 408 c 0,27,28
 1165 198 1165 198 1032 84.5 c 128,-1,29
 899 -29 899 -29 651 -29 c 0,30,31
 404 -29 404 -29 270.5 84.5 c 128,-1,32
 137 198 137 198 137 408 c 0,33,34
 137 567 137 567 232 669.5 c 128,-1,35
 327 772 327 772 498 795 c 1,36,37
 347 822 347 822 266.5 909.5 c 128,-1,38
 186 997 186 997 186 1133 c 0,39,40
 186 1313 186 1313 310 1416.5 c 128,-1,41
 434 1520 434 1520 651 1520 c 0,42,43
 868 1520 868 1520 992 1416.5 c 128,-1,44
 1116 1313 1116 1313 1116 1133 c 0,45,46
 1116 997 1116 997 1035.5 909.5 c 128,-1,47
 955 822 955 822 805 795 c 1,24,25
EndSplineSet
EndChar
StartChar: nine
Encoding: 57 57 57
Width: 1303
Flags: W
Fore
958 669 m 1,0,1
 891 594 891 594 804 557 c 128,-1,2
 717 520 717 520 608 520 c 0,3,4
 386 520 386 520 257.5 654 c 128,-1,5
 129 788 129 788 129 1020 c 0,6,7
 129 1247 129 1247 268.5 1383.5 c 128,-1,8
 408 1520 408 1520 641 1520 c 0,9,10
 894 1520 894 1520 1029.5 1331.5 c 128,-1,11
 1165 1143 1165 1143 1165 793 c 0,12,13
 1165 401 1165 401 1004 186 c 128,-1,14
 843 -29 843 -29 551 -29 c 0,15,16
 472 -29 472 -29 385 -14 c 128,-1,17
 298 1 298 1 207 31 c 1,18,-1
 207 279 l 1,19,-1
 319 279 l 1,20,21
 332 178 332 178 397 124 c 128,-1,22
 462 70 462 70 571 70 c 0,23,24
 765 70 765 70 860 216.5 c 128,-1,25
 955 363 955 363 958 669 c 1,0,1
633 1421 m 0,26,27
 491 1421 491 1421 415.5 1317.5 c 128,-1,28
 340 1214 340 1214 340 1020 c 0,29,30
 340 826 340 826 415.5 722 c 128,-1,31
 491 618 491 618 633 618 c 0,32,33
 775 618 775 618 850.5 718.5 c 128,-1,34
 926 819 926 819 926 1008 c 0,35,36
 926 1207 926 1207 850 1314 c 128,-1,37
 774 1421 774 1421 633 1421 c 0,26,27
EndSplineSet
EndChar
StartChar: colon
Encoding: 58 58 58
Width: 690
Flags: W
Fore
213 104 m 0,0,1
 213 160 213 160 251.5 199 c 128,-1,2
 290 238 290 238 346 238 c 0,3,4
 402 238 402 238 440.5 199 c 128,-1,5
 479 160 479 160 479 104 c 0,6,7
 479 48 479 48 441 9.5 c 128,-1,8
 403 -29 403 -29 346 -29 c 0,9,10
 289 -29 289 -29 251 9.5 c 128,-1,11
 213 48 213 48 213 104 c 0,0,1
213 756 m 0,12,13
 213 812 213 812 251.5 850.5 c 128,-1,14
 290 889 290 889 346 889 c 0,15,16
 403 889 403 889 441 851 c 128,-1,17
 479 813 479 813 479 756 c 0,18,19
 479 699 479 699 441 661 c 128,-1,20
 403 623 403 623 346 623 c 0,21,22
 290 623 290 623 251.5 661.5 c 128,-1,23
 213 700 213 700 213 756 c 0,12,13
EndSplineSet
EndChar
StartChar: semicolon
Encoding: 59 59 59
Width: 690
Flags: W
Fore
74 -199 m 1,0,1
 168 -130 168 -130 212 -36.5 c 128,-1,2
 256 57 256 57 256 190 c 2,3,-1
 256 227 l 1,4,-1
 453 227 l 1,5,6
 445 56 445 56 372.5 -66.5 c 128,-1,7
 300 -189 300 -189 154 -279 c 1,8,-1
 74 -199 l 1,0,1
217 756 m 0,9,10
 217 812 217 812 255.5 850.5 c 128,-1,11
 294 889 294 889 350 889 c 0,12,13
 406 889 406 889 444.5 850 c 128,-1,14
 483 811 483 811 483 756 c 0,15,16
 483 700 483 700 444.5 661.5 c 128,-1,17
 406 623 406 623 350 623 c 0,18,19
 294 623 294 623 255.5 661.5 c 128,-1,20
 217 700 217 700 217 756 c 0,9,10
EndSplineSet
EndChar
StartChar: less
Encoding: 60 60 60
Width: 1716
Flags: W
Fore
1499 1020 m 1,0,-1
 461 641 l 1,1,-1
 1499 264 l 1,2,-1
 1499 94 l 1,3,-1
 217 559 l 1,4,-1
 217 725 l 1,5,-1
 1499 1190 l 1,6,-1
 1499 1020 l 1,0,-1
EndSplineSet
EndChar
StartChar: equal
Encoding: 61 61 61
Width: 1716
Flags: W
Fore
217 926 m 1,0,-1
 1499 926 l 1,1,-1
 1499 766 l 1,2,-1
 217 766 l 1,3,-1
 217 926 l 1,0,-1
217 518 m 1,4,-1
 1499 518 l 1,5,-1
 1499 358 l 1,6,-1
 217 358 l 1,7,-1
 217 518 l 1,4,-1
EndSplineSet
EndChar
StartChar: greater
Encoding: 62 62 62
Width: 1716
Flags: W
Fore
217 1020 m 1,0,-1
 217 1190 l 1,1,-1
 1499 725 l 1,2,-1
 1499 559 l 1,3,-1
 217 94 l 1,4,-1
 217 264 l 1,5,-1
 1255 641 l 1,6,-1
 217 1020 l 1,0,-1
EndSplineSet
EndChar
StartChar: question
Encoding: 63 63 63
Width: 1098
Flags: W
Fore
360 104 m 0,0,1
 360 160 360 160 398.5 199 c 128,-1,2
 437 238 437 238 494 238 c 0,3,4
 549 238 549 238 588 199 c 128,-1,5
 627 160 627 160 627 104 c 0,6,7
 627 49 627 49 588 10 c 128,-1,8
 549 -29 549 -29 494 -29 c 0,9,10
 437 -29 437 -29 398.5 9.5 c 128,-1,11
 360 48 360 48 360 104 c 0,0,1
139 1427 m 1,12,13
 245 1474 245 1474 340.5 1497 c 128,-1,14
 436 1520 436 1520 520 1520 c 0,15,16
 742 1520 742 1520 870.5 1413 c 128,-1,17
 999 1306 999 1306 999 1124 c 0,18,19
 999 938 999 938 888.5 820 c 128,-1,20
 778 702 778 702 555 651 c 1,21,-1
 555 397 l 1,22,-1
 432 397 l 1,23,-1
 432 725 l 1,24,25
 609 768 609 768 698.5 869 c 128,-1,26
 788 970 788 970 788 1126 c 0,27,28
 788 1263 788 1263 715 1342 c 128,-1,29
 642 1421 642 1421 516 1421 c 0,30,31
 402 1421 402 1421 329.5 1355.5 c 128,-1,32
 257 1290 257 1290 236 1167 c 1,33,-1
 139 1167 l 1,34,-1
 139 1427 l 1,12,13
EndSplineSet
EndChar
StartChar: at
Encoding: 64 64 64
Width: 2048
Flags: W
Fore
1294 248 m 1,0,1
 1235 166 1235 166 1161.5 126 c 128,-1,2
 1088 86 1088 86 995 86 c 0,3,4
 820 86 820 86 711 211 c 128,-1,5
 602 336 602 336 602 537 c 0,6,7
 602 738 602 738 711 862.5 c 128,-1,8
 820 987 820 987 995 987 c 0,9,10
 1088 987 1088 987 1161.5 947 c 128,-1,11
 1235 907 1235 907 1294 825 c 1,12,-1
 1294 967 l 1,13,-1
 1450 967 l 1,14,-1
 1450 195 l 1,15,16
 1620 232 1620 232 1714 357 c 128,-1,17
 1808 482 1808 482 1808 670 c 0,18,19
 1808 781 1808 781 1774 880 c 128,-1,20
 1740 979 1740 979 1673 1063 c 0,21,22
 1567 1196 1567 1196 1414.5 1266.5 c 128,-1,23
 1262 1337 1262 1337 1083 1337 c 0,24,25
 993 1337 993 1337 905 1318 c 128,-1,26
 817 1299 817 1299 731 1260 c 0,27,28
 529 1167 529 1167 417 978.5 c 128,-1,29
 305 790 305 790 305 543 c 0,30,31
 305 376 305 376 355 235.5 c 128,-1,32
 405 95 405 95 500 -8 c 0,33,34
 609 -127 609 -127 758.5 -189.5 c 128,-1,35
 908 -252 908 -252 1081 -252 c 0,36,37
 1210 -252 1210 -252 1322 -214 c 128,-1,38
 1434 -176 1434 -176 1530 -100 c 1,39,-1
 1583 -170 l 1,40,41
 1475 -263 1475 -263 1338 -309.5 c 128,-1,42
 1201 -356 1201 -356 1038 -356 c 0,43,44
 855 -356 855 -356 688.5 -289.5 c 128,-1,45
 522 -223 522 -223 397 -100 c 0,46,47
 268 27 268 27 201.5 190.5 c 128,-1,48
 135 354 135 354 135 543 c 0,49,50
 135 727 135 727 202 890 c 128,-1,51
 269 1053 269 1053 397 1180 c 0,52,53
 524 1306 524 1306 696.5 1374 c 128,-1,54
 869 1442 869 1442 1063 1442 c 0,55,56
 1277 1442 1277 1442 1453.5 1359 c 128,-1,57
 1630 1276 1630 1276 1749 1120 c 0,58,59
 1825 1022 1825 1022 1864 907 c 128,-1,60
 1903 792 1903 792 1903 668 c 0,61,62
 1903 400 1903 400 1740 244.5 c 128,-1,63
 1577 89 1577 89 1295 86 c 1,64,-1
 1294 248 l 1,0,1
1294 485 m 2,65,-1
 1294 590 l 2,66,67
 1294 715 1294 715 1222.5 792.5 c 128,-1,68
 1151 870 1151 870 1036 870 c 0,69,70
 915 870 915 870 847.5 782.5 c 128,-1,71
 780 695 780 695 780 537 c 0,72,73
 780 378 780 378 848 290.5 c 128,-1,74
 916 203 916 203 1038 203 c 0,75,76
 1152 203 1152 203 1223 281.5 c 128,-1,77
 1294 360 1294 360 1294 485 c 2,65,-1
EndSplineSet
EndChar
StartChar: A
Encoding: 65 65 65
Width: 1479
Flags: W
AnchorPoint: "above" 739 1465 basechar 0
Fore
410 541 m 1,0,-1
 958 541 l 1,1,-1
 684 1251 l 1,2,-1
 410 541 l 1,0,-1
-12 0 m 1,3,-1
 -12 106 l 1,4,-1
 119 106 l 1,5,-1
 651 1493 l 1,6,-1
 819 1493 l 1,7,-1
 1352 106 l 1,8,-1
 1499 106 l 1,9,-1
 1499 0 l 1,10,-1
 956 0 l 1,11,-1
 956 106 l 1,12,-1
 1122 106 l 1,13,-1
 997 434 l 1,14,-1
 369 434 l 1,15,-1
 244 106 l 1,16,-1
 408 106 l 1,17,-1
 408 0 l 1,18,-1
 -12 0 l 1,3,-1
EndSplineSet
KernsSLIFO: 7923 -83 0 0 375 -83 0 0 7813 -92 0 0 7811 -92 0 0 7809 -92 0 0 373 -92 0 0 539 -36 0 0 355 -36 0 0 7922 -83 0 0 374 -83 0 0 562 -83 0 0 7812 -83 0 0 7810 -83 0 0 7808 -83 0 0 372 -83 0 0 538 -112 0 0 354 -112 0 0 357 -36 0 0 356 -112 0 0 253 -83 0 0 221 -83 0 0 64258 -36 0 0 64257 -36 0 0 376 -83 0 0 255 -83 0 0 8217 -301 0 0 8221 -301 0 0 121 -83 0 0 119 -92 0 0 118 -83 0 0 116 -36 0 0 102 -36 0 0 89 -83 0 0 87 -83 0 0 86 -102 0 0 84 -112 0 0
EndChar
StartChar: B
Encoding: 66 66 66
Width: 1505
Flags: W
Fore
506 106 m 1,0,-1
 805 106 l 2,1,2
 985 106 985 106 1068 184 c 128,-1,3
 1151 262 1151 262 1151 432 c 0,4,5
 1151 601 1151 601 1068.5 678.5 c 128,-1,6
 986 756 986 756 805 756 c 2,7,-1
 506 756 l 1,8,-1
 506 106 l 1,0,-1
506 862 m 1,9,-1
 760 862 l 2,10,11
 924 862 924 862 999.5 925 c 128,-1,12
 1075 988 1075 988 1075 1124 c 0,13,14
 1075 1261 1075 1261 999.5 1323.5 c 128,-1,15
 924 1386 924 1386 760 1386 c 2,16,-1
 506 1386 l 1,17,-1
 506 862 l 1,9,-1
113 0 m 1,18,-1
 113 106 l 1,19,-1
 303 106 l 1,20,-1
 303 1386 l 1,21,-1
 113 1386 l 1,22,-1
 113 1493 l 1,23,-1
 850 1493 l 2,24,25
 1076 1493 1076 1493 1190.5 1400.5 c 128,-1,26
 1305 1308 1305 1308 1305 1124 c 0,27,28
 1305 991 1305 991 1225.5 912 c 128,-1,29
 1146 833 1146 833 993 815 c 1,30,31
 1183 791 1183 791 1281.5 693.5 c 128,-1,32
 1380 596 1380 596 1380 432 c 0,33,34
 1380 210 1380 210 1240 105 c 128,-1,35
 1100 0 1100 0 803 0 c 2,36,-1
 113 0 l 1,18,-1
EndSplineSet
KernsSLIFO: 562 -36 0 0 374 -36 0 0 558 38 0 0 492 38 0 0 490 38 0 0 336 38 0 0 334 38 0 0 332 38 0 0 290 38 0 0 288 38 0 0 284 38 0 0 266 38 0 0 264 38 0 0 268 38 0 0 262 38 0 0 286 38 0 0 221 -36 0 0 210 38 0 0 212 38 0 0 211 38 0 0 376 -36 0 0 338 38 0 0 213 38 0 0 216 38 0 0 214 38 0 0 199 38 0 0 89 -36 0 0 79 38 0 0 71 38 0 0 67 38 0 0 45 38 0 0
EndChar
StartChar: C
Encoding: 67 67 67
Width: 1567
Flags: W
AnchorPoint: "above" 829 1465 basechar 0
Fore
1444 395 m 1,0,1
 1378 186 1378 186 1222.5 78.5 c 128,-1,2
 1067 -29 1067 -29 829 -29 c 0,3,4
 683 -29 683 -29 558 21 c 128,-1,5
 433 71 433 71 336 168 c 0,6,7
 224 280 224 280 169.5 422.5 c 128,-1,8
 115 565 115 565 115 745 c 0,9,10
 115 1093 115 1093 316 1306.5 c 128,-1,11
 517 1520 517 1520 846 1520 c 0,12,13
 968 1520 968 1520 1106 1488 c 128,-1,14
 1244 1456 1244 1456 1403 1391 c 1,15,-1
 1403 1047 l 1,16,-1
 1290 1047 l 1,17,18
 1253 1235 1253 1235 1141.5 1324 c 128,-1,19
 1030 1413 1030 1413 829 1413 c 0,20,21
 590 1413 590 1413 467 1243.5 c 128,-1,22
 344 1074 344 1074 344 745 c 0,23,24
 344 417 344 417 467 247.5 c 128,-1,25
 590 78 590 78 829 78 c 0,26,27
 996 78 996 78 1104 157.5 c 128,-1,28
 1212 237 1212 237 1260 395 c 1,29,-1
 1444 395 l 1,0,1
EndSplineSet
KernsSLIFO: 46 -73 0 0 44 -73 0 0
EndChar
StartChar: D
Encoding: 68 68 68
Width: 1642
Flags: W
AnchorPoint: "above" 743 1465 basechar 0
Fore
506 106 m 1,0,-1
 692 106 l 2,1,2
 983 106 983 106 1138.5 272 c 128,-1,3
 1294 438 1294 438 1294 748 c 0,4,5
 1294 1058 1294 1058 1139 1222 c 128,-1,6
 984 1386 984 1386 692 1386 c 2,7,-1
 506 1386 l 1,8,-1
 506 106 l 1,0,-1
113 0 m 1,9,-1
 113 106 l 1,10,-1
 303 106 l 1,11,-1
 303 1386 l 1,12,-1
 113 1386 l 1,13,-1
 113 1493 l 1,14,-1
 707 1493 l 2,15,16
 1093 1493 1093 1493 1308.5 1296 c 128,-1,17
 1524 1099 1524 1099 1524 748 c 0,18,19
 1524 396 1524 396 1308 198 c 128,-1,20
 1092 0 1092 0 707 0 c 2,21,-1
 113 0 l 1,9,-1
EndSplineSet
KernsSLIFO: 86 -36 0 0 46 -73 0 0 45 38 0 0 44 -73 0 0
EndChar
StartChar: E
Encoding: 69 69 69
Width: 1495
Flags: W
AnchorPoint: "above" 748 1465 basechar 0
Fore
113 0 m 1,0,-1
 113 106 l 1,1,-1
 303 106 l 1,2,-1
 303 1386 l 1,3,-1
 113 1386 l 1,4,-1
 113 1493 l 1,5,-1
 1315 1493 l 1,6,-1
 1315 1161 l 1,7,-1
 1192 1161 l 1,8,-1
 1192 1370 l 1,9,-1
 506 1370 l 1,10,-1
 506 870 l 1,11,-1
 995 870 l 1,12,-1
 995 1057 l 1,13,-1
 1118 1057 l 1,14,-1
 1118 561 l 1,15,-1
 995 561 l 1,16,-1
 995 748 l 1,17,-1
 506 748 l 1,18,-1
 506 123 l 1,19,-1
 1208 123 l 1,20,-1
 1208 332 l 1,21,-1
 1331 332 l 1,22,-1
 1331 0 l 1,23,-1
 113 0 l 1,0,-1
EndSplineSet
KernsSLIFO: 45 38 0 0
EndChar
StartChar: F
Encoding: 70 70 70
Width: 1421
Flags: W
Fore
113 0 m 1,0,-1
 113 106 l 1,1,-1
 303 106 l 1,2,-1
 303 1386 l 1,3,-1
 113 1386 l 1,4,-1
 113 1493 l 1,5,-1
 1335 1493 l 1,6,-1
 1335 1161 l 1,7,-1
 1212 1161 l 1,8,-1
 1212 1370 l 1,9,-1
 506 1370 l 1,10,-1
 506 870 l 1,11,-1
 1016 870 l 1,12,-1
 1016 1057 l 1,13,-1
 1139 1057 l 1,14,-1
 1139 561 l 1,15,-1
 1016 561 l 1,16,-1
 1016 748 l 1,17,-1
 506 748 l 1,18,-1
 506 106 l 1,19,-1
 745 106 l 1,20,-1
 745 0 l 1,21,-1
 113 0 l 1,0,-1
EndSplineSet
KernsSLIFO: 483 -139 0 0 559 -112 0 0 493 -112 0 0 491 -112 0 0 337 -112 0 0 335 -112 0 0 333 -112 0 0 281 -112 0 0 279 -112 0 0 277 -112 0 0 275 -112 0 0 261 -139 0 0 259 -139 0 0 257 -139 0 0 260 -178 0 0 258 -178 0 0 256 -178 0 0 283 -112 0 0 193 -178 0 0 194 -178 0 0 339 -112 0 0 195 -178 0 0 192 -178 0 0 248 -112 0 0 230 -139 0 0 245 -112 0 0 246 -112 0 0 244 -112 0 0 242 -112 0 0 243 -112 0 0 235 -112 0 0 234 -112 0 0 232 -112 0 0 233 -112 0 0 229 -139 0 0 227 -139 0 0 228 -139 0 0 226 -139 0 0 224 -139 0 0 225 -139 0 0 196 -178 0 0 111 -112 0 0 101 -112 0 0 97 -139 0 0 65 -178 0 0 59 -73 0 0 58 -73 0 0 46 -319 0 0 45 -92 0 0 44 -319 0 0
EndChar
StartChar: G
Encoding: 71 71 71
Width: 1636
Flags: W
AnchorPoint: "above" 856 1465 basechar 0
Fore
1311 1047 m 1,0,1
 1276 1234 1276 1234 1165 1323.5 c 128,-1,2
 1054 1413 1054 1413 856 1413 c 0,3,4
 598 1413 598 1413 471 1247 c 128,-1,5
 344 1081 344 1081 344 745 c 0,6,7
 344 416 344 416 475 247 c 128,-1,8
 606 78 606 78 860 78 c 0,9,10
 973 78 973 78 1076 106 c 128,-1,11
 1179 134 1179 134 1272 190 c 1,12,-1
 1272 575 l 1,13,-1
 991 575 l 1,14,-1
 991 682 l 1,15,-1
 1475 682 l 1,16,-1
 1475 125 l 1,17,18
 1342 48 1342 48 1188.5 9.5 c 128,-1,19
 1035 -29 1035 -29 860 -29 c 0,20,21
 522 -29 522 -29 318.5 182.5 c 128,-1,22
 115 394 115 394 115 745 c 0,23,24
 115 1099 115 1099 319 1309.5 c 128,-1,25
 523 1520 523 1520 868 1520 c 0,26,27
 996 1520 996 1520 1132.5 1490.5 c 128,-1,28
 1269 1461 1269 1461 1423 1401 c 1,29,-1
 1423 1047 l 1,30,-1
 1311 1047 l 1,0,1
EndSplineSet
KernsSLIFO: 221 -36 0 0 376 -36 0 0 89 -36 0 0 46 -73 0 0 45 38 0 0 44 -73 0 0
EndChar
StartChar: H
Encoding: 72 72 72
Width: 1786
Flags: W
AnchorPoint: "above" 893 1465 basechar 0
Fore
113 0 m 1,0,-1
 113 106 l 1,1,-1
 303 106 l 1,2,-1
 303 1386 l 1,3,-1
 113 1386 l 1,4,-1
 113 1493 l 1,5,-1
 696 1493 l 1,6,-1
 696 1386 l 1,7,-1
 506 1386 l 1,8,-1
 506 870 l 1,9,-1
 1280 870 l 1,10,-1
 1280 1386 l 1,11,-1
 1090 1386 l 1,12,-1
 1090 1493 l 1,13,-1
 1673 1493 l 1,14,-1
 1673 1386 l 1,15,-1
 1483 1386 l 1,16,-1
 1483 106 l 1,17,-1
 1673 106 l 1,18,-1
 1673 0 l 1,19,-1
 1090 0 l 1,20,-1
 1090 106 l 1,21,-1
 1280 106 l 1,22,-1
 1280 748 l 1,23,-1
 506 748 l 1,24,-1
 506 106 l 1,25,-1
 696 106 l 1,26,-1
 696 0 l 1,27,-1
 113 0 l 1,0,-1
EndSplineSet
EndChar
StartChar: I
Encoding: 73 73 73
Width: 809
Flags: W
AnchorPoint: "above" 406 1465 basechar 0
Fore
506 106 m 1,0,-1
 696 106 l 1,1,-1
 696 0 l 1,2,-1
 113 0 l 1,3,-1
 113 106 l 1,4,-1
 303 106 l 1,5,-1
 303 1386 l 1,6,-1
 113 1386 l 1,7,-1
 113 1493 l 1,8,-1
 696 1493 l 1,9,-1
 696 1386 l 1,10,-1
 506 1386 l 1,11,-1
 506 106 l 1,0,-1
EndSplineSet
EndChar
StartChar: J
Encoding: 74 74 74
Width: 821
Flags: W
AnchorPoint: "above" 414 1465 basechar 0
Fore
-172 -358 m 1,0,-1
 -172 -123 l 1,1,-1
 -58 -123 l 1,2,3
 -55 -222 -55 -222 -11 -270.5 c 128,-1,4
 33 -319 33 -319 121 -319 c 0,5,6
 240 -319 240 -319 287 -244 c 128,-1,7
 334 -169 334 -169 334 49 c 2,8,-1
 334 1386 l 1,9,-1
 102 1386 l 1,10,-1
 102 1493 l 1,11,-1
 727 1493 l 1,12,-1
 727 1386 l 1,13,-1
 537 1386 l 1,14,-1
 537 41 l 2,15,16
 537 -206 537 -206 438 -316 c 128,-1,17
 339 -426 339 -426 119 -426 c 0,18,19
 48 -426 48 -426 -25.5 -409 c 128,-1,20
 -99 -392 -99 -392 -172 -358 c 1,0,-1
EndSplineSet
KernsSLIFO: 59 -83 0 0 58 -83 0 0 46 -159 0 0 44 -120 0 0
EndChar
StartChar: K
Encoding: 75 75 75
Width: 1530
Flags: W
Fore
113 0 m 1,0,-1
 113 106 l 1,1,-1
 303 106 l 1,2,-1
 303 1386 l 1,3,-1
 113 1386 l 1,4,-1
 113 1493 l 1,5,-1
 696 1493 l 1,6,-1
 696 1386 l 1,7,-1
 506 1386 l 1,8,-1
 506 821 l 1,9,-1
 1149 1386 l 1,10,-1
 987 1386 l 1,11,-1
 987 1493 l 1,12,-1
 1483 1493 l 1,13,-1
 1483 1386 l 1,14,-1
 1315 1386 l 1,15,-1
 674 823 l 1,16,-1
 1391 106 l 1,17,-1
 1561 106 l 1,18,-1
 1561 0 l 1,19,-1
 1214 0 l 1,20,-1
 506 709 l 1,21,-1
 506 106 l 1,22,-1
 696 106 l 1,23,-1
 696 0 l 1,24,-1
 113 0 l 1,0,-1
EndSplineSet
KernsSLIFO: 367 -45 0 0 366 -73 0 0 283 -55 0 0 268 -55 0 0 262 -55 0 0 253 -131 0 0 221 -55 0 0 217 -73 0 0 219 -73 0 0 218 -73 0 0 210 -55 0 0 212 -55 0 0 211 -55 0 0 193 -83 0 0 194 -83 0 0 376 -55 0 0 255 -131 0 0 339 -55 0 0 338 -55 0 0 213 -55 0 0 195 -83 0 0 192 -83 0 0 248 -36 0 0 216 -55 0 0 252 -45 0 0 251 -45 0 0 249 -45 0 0 250 -45 0 0 245 -55 0 0 246 -55 0 0 244 -55 0 0 242 -55 0 0 243 -55 0 0 235 -55 0 0 234 -55 0 0 232 -55 0 0 233 -55 0 0 220 -73 0 0 214 -55 0 0 199 -55 0 0 196 -83 0 0 121 -131 0 0 117 -45 0 0 111 -55 0 0 101 -55 0 0 89 -55 0 0 87 -73 0 0 85 -73 0 0 79 -55 0 0 67 -55 0 0 65 -83 0 0 45 -149 0 0
EndChar
StartChar: L
Encoding: 76 76 76
Width: 1360
Flags: W
Fore
113 0 m 1,0,-1
 113 106 l 1,1,-1
 303 106 l 1,2,-1
 303 1386 l 1,3,-1
 113 1386 l 1,4,-1
 113 1493 l 1,5,-1
 696 1493 l 1,6,-1
 696 1386 l 1,7,-1
 506 1386 l 1,8,-1
 506 123 l 1,9,-1
 1188 123 l 1,10,-1
 1188 373 l 1,11,-1
 1311 373 l 1,12,-1
 1311 0 l 1,13,-1
 113 0 l 1,0,-1
EndSplineSet
KernsSLIFO: 366 -112 0 0 356 -167 0 0 253 -36 0 0 221 -131 0 0 217 -112 0 0 219 -112 0 0 218 -112 0 0 376 -131 0 0 255 -36 0 0 8217 -491 0 0 8221 -491 0 0 220 -112 0 0 121 -36 0 0 89 -131 0 0 87 -178 0 0 86 -243 0 0 85 -112 0 0 84 -167 0 0
EndChar
StartChar: M
Encoding: 77 77 77
Width: 2097
Flags: W
Fore
113 0 m 1,0,-1
 113 106 l 1,1,-1
 303 106 l 1,2,-1
 303 1386 l 1,3,-1
 102 1386 l 1,4,-1
 102 1493 l 1,5,-1
 537 1493 l 1,6,-1
 1061 430 l 1,7,-1
 1585 1493 l 1,8,-1
 1993 1493 l 1,9,-1
 1993 1386 l 1,10,-1
 1794 1386 l 1,11,-1
 1794 106 l 1,12,-1
 1985 106 l 1,13,-1
 1985 0 l 1,14,-1
 1401 0 l 1,15,-1
 1401 106 l 1,16,-1
 1591 106 l 1,17,-1
 1591 1260 l 1,18,-1
 1079 219 l 1,19,-1
 938 219 l 1,20,-1
 426 1260 l 1,21,-1
 426 106 l 1,22,-1
 616 106 l 1,23,-1
 616 0 l 1,24,-1
 113 0 l 1,0,-1
EndSplineSet
EndChar
StartChar: N
Encoding: 78 78 78
Width: 1792
Flags: W
AnchorPoint: "above" 871 1475 basechar 0
Fore
100 0 m 1,0,-1
 100 106 l 1,1,-1
 301 106 l 1,2,-1
 301 1386 l 1,3,-1
 100 1386 l 1,4,-1
 100 1493 l 1,5,-1
 483 1493 l 1,6,-1
 1378 315 l 1,7,-1
 1378 1386 l 1,8,-1
 1178 1386 l 1,9,-1
 1178 1493 l 1,10,-1
 1702 1493 l 1,11,-1
 1702 1386 l 1,12,-1
 1501 1386 l 1,13,-1
 1501 -29 l 1,14,-1
 1380 -29 l 1,15,-1
 424 1229 l 1,16,-1
 424 106 l 1,17,-1
 625 106 l 1,18,-1
 625 0 l 1,19,-1
 100 0 l 1,0,-1
EndSplineSet
KernsSLIFO: 59 -73 0 0 58 -73 0 0 46 -131 0 0 44 -131 0 0
EndChar
StartChar: O
Encoding: 79 79 79
Width: 1679
Flags: W
AnchorPoint: "above" 840 1465 basechar 0
Fore
840 78 m 0,0,1
 1085 78 1085 78 1210 246.5 c 128,-1,2
 1335 415 1335 415 1335 745 c 0,3,4
 1335 1076 1335 1076 1210 1244.5 c 128,-1,5
 1085 1413 1085 1413 840 1413 c 0,6,7
 594 1413 594 1413 469 1244.5 c 128,-1,8
 344 1076 344 1076 344 745 c 0,9,10
 344 415 344 415 469 246.5 c 128,-1,11
 594 78 594 78 840 78 c 0,0,1
840 -29 m 0,12,13
 688 -29 688 -29 560.5 21 c 128,-1,14
 433 71 433 71 336 168 c 0,15,16
 224 280 224 280 169.5 422 c 128,-1,17
 115 564 115 564 115 745 c 0,18,19
 115 926 115 926 169.5 1068.5 c 128,-1,20
 224 1211 224 1211 336 1323 c 0,21,22
 434 1421 434 1421 560 1470.5 c 128,-1,23
 686 1520 686 1520 840 1520 c 0,24,25
 1165 1520 1165 1520 1365 1307 c 128,-1,26
 1565 1094 1565 1094 1565 745 c 0,27,28
 1565 566 1565 566 1510 422.5 c 128,-1,29
 1455 279 1455 279 1343 168 c 0,30,31
 1245 70 1245 70 1119 20.5 c 128,-1,32
 993 -29 993 -29 840 -29 c 0,12,13
EndSplineSet
KernsSLIFO: 88 -36 0 0 86 -36 0 0 46 -120 0 0 45 75 0 0 44 -120 0 0
EndChar
StartChar: P
Encoding: 80 80 80
Width: 1378
Flags: W
Fore
506 760 m 1,0,-1
 770 760 l 2,1,2
 919 760 919 760 997 840.5 c 128,-1,3
 1075 921 1075 921 1075 1073 c 0,4,5
 1075 1226 1075 1226 997 1306 c 128,-1,6
 919 1386 919 1386 770 1386 c 2,7,-1
 506 1386 l 1,8,-1
 506 760 l 1,0,-1
113 0 m 1,9,-1
 113 106 l 1,10,-1
 303 106 l 1,11,-1
 303 1386 l 1,12,-1
 113 1386 l 1,13,-1
 113 1493 l 1,14,-1
 819 1493 l 2,15,16
 1043 1493 1043 1493 1174 1379.5 c 128,-1,17
 1305 1266 1305 1266 1305 1073 c 0,18,19
 1305 881 1305 881 1174 767 c 128,-1,20
 1043 653 1043 653 819 653 c 2,21,-1
 506 653 l 1,22,-1
 506 106 l 1,23,-1
 737 106 l 1,24,-1
 737 0 l 1,25,-1
 113 0 l 1,9,-1
EndSplineSet
KernsSLIFO: 366 -36 0 0 283 -92 0 0 351 -55 0 0 353 -55 0 0 217 -36 0 0 219 -36 0 0 218 -36 0 0 193 -188 0 0 194 -188 0 0 339 -83 0 0 195 -188 0 0 192 -188 0 0 248 -83 0 0 230 -92 0 0 245 -83 0 0 246 -83 0 0 244 -83 0 0 242 -83 0 0 243 -83 0 0 235 -92 0 0 234 -92 0 0 232 -92 0 0 233 -92 0 0 229 -92 0 0 227 -92 0 0 228 -92 0 0 226 -92 0 0 224 -92 0 0 225 -92 0 0 220 -36 0 0 196 -188 0 0 115 -55 0 0 111 -83 0 0 101 -92 0 0 97 -92 0 0 85 -36 0 0 65 -188 0 0 59 -73 0 0 58 -73 0 0 46 -415 0 0 45 -112 0 0 44 -415 0 0
EndChar
StartChar: Q
Encoding: 81 81 81
Width: 1679
Flags: W
Fore
864 -29 m 1,0,1
 521 -29 521 -29 318 181.5 c 128,-1,2
 115 392 115 392 115 745 c 0,3,4
 115 926 115 926 169.5 1068.5 c 128,-1,5
 224 1211 224 1211 336 1323 c 0,6,7
 434 1421 434 1421 560 1470.5 c 128,-1,8
 686 1520 686 1520 840 1520 c 0,9,10
 1165 1520 1165 1520 1365 1307 c 128,-1,11
 1565 1094 1565 1094 1565 745 c 0,12,13
 1565 449 1565 449 1415 247.5 c 128,-1,14
 1265 46 1265 46 1001 -12 c 1,15,16
 1055 -79 1055 -79 1132.5 -111 c 128,-1,17
 1210 -143 1210 -143 1319 -143 c 2,18,-1
 1350 -143 l 1,19,-1
 1350 -328 l 1,20,21
 1181 -320 1181 -320 1060.5 -245.5 c 128,-1,22
 940 -171 940 -171 864 -29 c 1,0,1
840 78 m 0,23,24
 1085 78 1085 78 1210 246.5 c 128,-1,25
 1335 415 1335 415 1335 745 c 0,26,27
 1335 1076 1335 1076 1210 1244.5 c 128,-1,28
 1085 1413 1085 1413 840 1413 c 0,29,30
 594 1413 594 1413 469 1244.5 c 128,-1,31
 344 1076 344 1076 344 745 c 0,32,33
 344 415 344 415 469 246.5 c 128,-1,34
 594 78 594 78 840 78 c 0,23,24
EndSplineSet
KernsSLIFO: 8217 38 0 0 8221 38 0 0 46 -102 0 0 45 75 0 0 44 -102 0 0
EndChar
StartChar: R
Encoding: 82 82 82
Width: 1542
Flags: W
AnchorPoint: "above" 731 1465 basechar 0
Fore
981 741 m 1,0,1
 1051 722 1051 722 1101.5 676.5 c 128,-1,2
 1152 631 1152 631 1192 549 c 2,3,-1
 1409 106 l 1,4,-1
 1591 106 l 1,5,-1
 1591 0 l 1,6,-1
 1239 0 l 1,7,-1
 1006 475 l 1,8,9
 939 613 939 613 883 653.5 c 128,-1,10
 827 694 827 694 729 694 c 2,11,-1
 506 694 l 1,12,-1
 506 106 l 1,13,-1
 717 106 l 1,14,-1
 717 0 l 1,15,-1
 113 0 l 1,16,-1
 113 106 l 1,17,-1
 303 106 l 1,18,-1
 303 1386 l 1,19,-1
 113 1386 l 1,20,-1
 113 1493 l 1,21,-1
 870 1493 l 2,22,23
 1088 1493 1088 1493 1206.5 1389 c 128,-1,24
 1325 1285 1325 1285 1325 1094 c 0,25,26
 1325 940 1325 940 1238.5 851.5 c 128,-1,27
 1152 763 1152 763 981 741 c 1,0,1
506 801 m 1,28,-1
 801 801 l 2,29,30
 952 801 952 801 1024 872.5 c 128,-1,31
 1096 944 1096 944 1096 1094 c 0,32,33
 1096 1244 1096 1244 1024 1315 c 128,-1,34
 952 1386 952 1386 801 1386 c 2,35,-1
 506 1386 l 1,36,-1
 506 801 l 1,28,-1
EndSplineSet
KernsSLIFO: 356 -36 0 0 253 -36 0 0 221 -63 0 0 376 -63 0 0 255 -36 0 0 8217 -112 0 0 8221 -112 0 0 248 38 0 0 230 47 0 0 229 47 0 0 227 47 0 0 228 47 0 0 226 47 0 0 224 47 0 0 225 47 0 0 121 -36 0 0 97 47 0 0 89 -63 0 0 87 -45 0 0 86 -73 0 0 84 -36 0 0
EndChar
StartChar: S
Encoding: 83 83 83
Width: 1403
Flags: W
AnchorPoint: "above" 702 1465 basechar 0
Fore
190 72 m 1,0,-1
 190 412 l 1,1,-1
 305 411 l 1,2,3
 310 241 310 241 403.5 159.5 c 128,-1,4
 497 78 497 78 688 78 c 0,5,6
 866 78 866 78 959.5 148.5 c 128,-1,7
 1053 219 1053 219 1053 354 c 0,8,9
 1053 462 1053 462 996.5 520 c 128,-1,10
 940 578 940 578 758 633 c 2,11,-1
 561 692 l 2,12,13
 347 757 347 757 259.5 854 c 128,-1,14
 172 951 172 951 172 1120 c 0,15,16
 172 1310 172 1310 307 1415 c 128,-1,17
 442 1520 442 1520 686 1520 c 0,18,19
 790 1520 790 1520 914 1497.5 c 128,-1,20
 1038 1475 1038 1475 1178 1432 c 1,21,-1
 1178 1114 l 1,22,-1
 1065 1114 l 1,23,24
 1048 1272 1048 1272 959.5 1342.5 c 128,-1,25
 871 1413 871 1413 690 1413 c 0,26,27
 532 1413 532 1413 449.5 1348.5 c 128,-1,28
 367 1284 367 1284 367 1161 c 0,29,30
 367 1054 367 1054 429 993 c 128,-1,31
 491 932 491 932 692 872 c 2,32,-1
 877 817 l 2,33,34
 1080 756 1080 756 1166.5 661.5 c 128,-1,35
 1253 567 1253 567 1253 408 c 0,36,37
 1253 191 1253 191 1114 81 c 128,-1,38
 975 -29 975 -29 700 -29 c 0,39,40
 577 -29 577 -29 449.5 -4 c 128,-1,41
 322 21 322 21 190 72 c 1,0,-1
EndSplineSet
KernsSLIFO: 350 -36 0 0 352 -36 0 0 83 -36 0 0 46 -73 0 0 45 75 0 0 44 -73 0 0
EndChar
StartChar: T
Encoding: 84 84 84
Width: 1366
Flags: W
AnchorPoint: "above" 677 1465 basechar 0
Fore
391 0 m 1,0,-1
 391 106 l 1,1,-1
 582 106 l 1,2,-1
 582 1374 l 1,3,-1
 143 1374 l 1,4,-1
 143 1141 l 1,5,-1
 20 1141 l 1,6,-1
 20 1493 l 1,7,-1
 1346 1493 l 1,8,-1
 1346 1141 l 1,9,-1
 1223 1141 l 1,10,-1
 1223 1374 l 1,11,-1
 784 1374 l 1,12,-1
 784 106 l 1,13,-1
 975 106 l 1,14,-1
 975 0 l 1,15,-1
 391 0 l 1,0,-1
EndSplineSet
KernsSLIFO: 356 38 0 0 283 -159 0 0 269 -159 0 0 263 -159 0 0 351 -149 0 0 353 -149 0 0 193 -112 0 0 194 -112 0 0 339 -159 0 0 195 -112 0 0 192 -112 0 0 248 -159 0 0 230 -159 0 0 245 -159 0 0 246 -159 0 0 244 -159 0 0 242 -159 0 0 243 -159 0 0 235 -159 0 0 234 -159 0 0 232 -159 0 0 233 -159 0 0 231 -159 0 0 229 -159 0 0 227 -159 0 0 228 -159 0 0 226 -159 0 0 224 -159 0 0 225 -159 0 0 196 -112 0 0 119 -73 0 0 115 -149 0 0 111 -159 0 0 101 -159 0 0 99 -159 0 0 97 -159 0 0 84 38 0 0 65 -112 0 0 59 -73 0 0 58 -73 0 0 46 -301 0 0 45 -264 0 0 44 -301 0 0
EndChar
StartChar: U
Encoding: 85 85 85
Width: 1726
Flags: W
AnchorPoint: "above" 903 1465 basechar 0
Fore
287 1386 m 1,0,-1
 96 1386 l 1,1,-1
 96 1493 l 1,2,-1
 680 1493 l 1,3,-1
 680 1386 l 1,4,-1
 489 1386 l 1,5,-1
 489 614 l 2,6,7
 489 328 489 328 582.5 215 c 128,-1,8
 676 102 676 102 905 102 c 0,9,10
 1134 102 1134 102 1227.5 215 c 128,-1,11
 1321 328 1321 328 1321 614 c 2,12,-1
 1321 1386 l 1,13,-1
 1130 1386 l 1,14,-1
 1130 1493 l 1,15,-1
 1634 1493 l 1,16,-1
 1634 1386 l 1,17,-1
 1444 1386 l 1,18,-1
 1444 594 l 2,19,20
 1444 253 1444 253 1313 112 c 128,-1,21
 1182 -29 1182 -29 868 -29 c 0,22,23
 554 -29 554 -29 420.5 113 c 128,-1,24
 287 255 287 255 287 594 c 2,25,-1
 287 1386 l 1,0,-1
EndSplineSet
KernsSLIFO: 193 -63 0 0 194 -63 0 0 195 -63 0 0 192 -63 0 0 196 -63 0 0 74 -55 0 0 65 -63 0 0 59 -73 0 0 58 -73 0 0 46 -188 0 0 45 -36 0 0 44 -188 0 0
EndChar
StartChar: V
Encoding: 86 86 86
Width: 1479
Flags: W
Fore
358 1386 m 1,0,-1
 799 240 l 1,1,-1
 1239 1386 l 1,2,-1
 1071 1386 l 1,3,-1
 1071 1493 l 1,4,-1
 1509 1493 l 1,5,-1
 1509 1386 l 1,6,-1
 1364 1386 l 1,7,-1
 831 0 l 1,8,-1
 659 0 l 1,9,-1
 129 1386 l 1,10,-1
 -20 1386 l 1,11,-1
 -20 1493 l 1,12,-1
 524 1493 l 1,13,-1
 524 1386 l 1,14,-1
 358 1386 l 1,0,-1
EndSplineSet
KernsSLIFO: 367 -131 0 0 283 -188 0 0 253 -83 0 0 210 -36 0 0 212 -36 0 0 211 -36 0 0 193 -139 0 0 194 -139 0 0 255 -83 0 0 8217 75 0 0 8221 75 0 0 339 -188 0 0 338 -36 0 0 213 -36 0 0 195 -139 0 0 192 -139 0 0 248 -188 0 0 230 -188 0 0 216 -36 0 0 252 -131 0 0 251 -131 0 0 249 -131 0 0 250 -131 0 0 245 -188 0 0 246 -188 0 0 244 -188 0 0 242 -188 0 0 243 -188 0 0 235 -188 0 0 234 -188 0 0 232 -188 0 0 233 -188 0 0 229 -188 0 0 227 -188 0 0 228 -188 0 0 226 -188 0 0 224 -188 0 0 225 -188 0 0 214 -36 0 0 196 -139 0 0 121 -83 0 0 117 -131 0 0 111 -188 0 0 105 -36 0 0 101 -188 0 0 97 -188 0 0 79 -36 0 0 65 -139 0 0 59 -206 0 0 58 -206 0 0 46 -358 0 0 45 -188 0 0 44 -358 0 0
EndChar
StartChar: W
Encoding: 87 87 87
Width: 2105
Flags: W
AnchorPoint: "above" 1054 1472 basechar 0
Fore
1561 0 m 1,0,-1
 1397 0 l 1,1,-1
 1055 1214 l 1,2,-1
 713 0 l 1,3,-1
 549 0 l 1,4,-1
 158 1386 l 1,5,-1
 10 1386 l 1,6,-1
 10 1493 l 1,7,-1
 555 1493 l 1,8,-1
 555 1386 l 1,9,-1
 369 1386 l 1,10,-1
 680 283 l 1,11,-1
 1020 1493 l 1,12,-1
 1182 1493 l 1,13,-1
 1528 270 l 1,14,-1
 1841 1386 l 1,15,-1
 1669 1386 l 1,16,-1
 1669 1493 l 1,17,-1
 2099 1493 l 1,18,-1
 2099 1386 l 1,19,-1
 1952 1386 l 1,20,-1
 1561 0 l 1,0,-1
EndSplineSet
KernsSLIFO: 252 -83 0 0 229 -178 0 0 230 -139 0 0 59 -178 0 0 242 -139 0 0 45 -149 0 0 46 -358 0 0 367 -83 0 0 245 -139 0 0 235 -167 0 0 249 -83 0 0 44 -358 0 0 224 -178 0 0 195 -102 0 0 234 -167 0 0 341 -92 0 0 8221 38 0 0 232 -167 0 0 196 -102 0 0 193 -102 0 0 8217 38 0 0 251 -83 0 0 253 -45 0 0 227 -178 0 0 194 -102 0 0 248 -139 0 0 244 -139 0 0 65 -102 0 0 97 -178 0 0 228 -178 0 0 246 -139 0 0 250 -83 0 0 225 -178 0 0 345 -92 0 0 226 -178 0 0 233 -167 0 0 283 -167 0 0 101 -167 0 0 105 -36 0 0 339 -139 0 0 255 -45 0 0 111 -139 0 0 114 -92 0 0 117 -83 0 0 192 -102 0 0 121 -45 0 0 58 -178 0 0 243 -139 0 0
EndChar
StartChar: X
Encoding: 88 88 88
Width: 1458
Flags: W
Fore
678 639 m 1,0,-1
 313 106 l 1,1,-1
 506 106 l 1,2,-1
 506 0 l 1,3,-1
 12 0 l 1,4,-1
 12 106 l 1,5,-1
 184 106 l 1,6,-1
 614 733 l 1,7,-1
 178 1386 l 1,8,-1
 18 1386 l 1,9,-1
 18 1493 l 1,10,-1
 610 1493 l 1,11,-1
 610 1386 l 1,12,-1
 434 1386 l 1,13,-1
 754 905 l 1,14,-1
 1083 1386 l 1,15,-1
 891 1386 l 1,16,-1
 891 1493 l 1,17,-1
 1380 1493 l 1,18,-1
 1380 1386 l 1,19,-1
 1212 1386 l 1,20,-1
 817 811 l 1,21,-1
 1288 106 l 1,22,-1
 1448 106 l 1,23,-1
 1448 0 l 1,24,-1
 856 0 l 1,25,-1
 856 106 l 1,26,-1
 1034 106 l 1,27,-1
 678 639 l 1,0,-1
EndSplineSet
KernsSLIFO: 268 -36 0 0 262 -36 0 0 210 -36 0 0 212 -36 0 0 211 -36 0 0 193 -73 0 0 194 -73 0 0 338 -36 0 0 213 -36 0 0 195 -73 0 0 192 -73 0 0 216 -36 0 0 214 -36 0 0 199 -36 0 0 196 -73 0 0 79 -36 0 0 67 -36 0 0 65 -73 0 0 45 -73 0 0
EndChar
StartChar: Y
Encoding: 89 89 89
Width: 1352
Flags: W
AnchorPoint: "above" 673 1472 basechar 0
Fore
387 0 m 1,0,-1
 387 106 l 1,1,-1
 578 106 l 1,2,-1
 578 643 l 1,3,-1
 117 1386 l 1,4,-1
 -23 1386 l 1,5,-1
 -23 1493 l 1,6,-1
 532 1493 l 1,7,-1
 532 1386 l 1,8,-1
 358 1386 l 1,9,-1
 731 782 l 1,10,-1
 1104 1386 l 1,11,-1
 936 1386 l 1,12,-1
 936 1493 l 1,13,-1
 1370 1493 l 1,14,-1
 1370 1386 l 1,15,-1
 1229 1386 l 1,16,-1
 780 662 l 1,17,-1
 780 106 l 1,18,-1
 971 106 l 1,19,-1
 971 0 l 1,20,-1
 387 0 l 1,0,-1
EndSplineSet
KernsSLIFO: 367 -178 0 0 283 -178 0 0 268 -36 0 0 262 -36 0 0 193 -159 0 0 194 -159 0 0 339 -215 0 0 195 -159 0 0 192 -159 0 0 248 -178 0 0 230 -196 0 0 252 -178 0 0 251 -178 0 0 249 -178 0 0 250 -178 0 0 245 -178 0 0 246 -178 0 0 244 -178 0 0 242 -178 0 0 243 -178 0 0 235 -178 0 0 234 -178 0 0 232 -178 0 0 233 -178 0 0 229 -159 0 0 227 -159 0 0 228 -159 0 0 226 -159 0 0 224 -159 0 0 225 -159 0 0 199 -36 0 0 196 -159 0 0 117 -178 0 0 111 -178 0 0 105 -36 0 0 101 -178 0 0 97 -159 0 0 67 -36 0 0 65 -159 0 0 59 -253 0 0 58 -253 0 0 46 -264 0 0 45 -225 0 0 44 -264 0 0
EndChar
StartChar: Z
Encoding: 90 90 90
Width: 1423
Flags: W
AnchorPoint: "above" 713 1465 basechar 0
Fore
92 0 m 1,0,-1
 92 72 l 1,1,-1
 1022 1370 l 1,2,-1
 250 1370 l 1,3,-1
 250 1147 l 1,4,-1
 127 1147 l 1,5,-1
 127 1493 l 1,6,-1
 1307 1493 l 1,7,-1
 1307 1421 l 1,8,-1
 377 123 l 1,9,-1
 1221 123 l 1,10,-1
 1221 332 l 1,11,-1
 1343 332 l 1,12,-1
 1343 0 l 1,13,-1
 92 0 l 1,0,-1
EndSplineSet
KernsSLIFO: 46 -36 0 0 44 -36 0 0
EndChar
StartChar: bracketleft
Encoding: 91 91 91
Width: 799
Flags: W
Fore
176 1556 m 1,0,-1
 641 1556 l 1,1,-1
 641 1450 l 1,2,-1
 367 1450 l 1,3,-1
 367 -164 l 1,4,-1
 641 -164 l 1,5,-1
 641 -270 l 1,6,-1
 176 -270 l 1,7,-1
 176 1556 l 1,0,-1
EndSplineSet
EndChar
StartChar: backslash
Encoding: 92 92 92
Width: 690
Flags: W
Fore
160 1493 m 1,0,-1
 690 -190 l 1,1,-1
 530 -190 l 1,2,-1
 0 1493 l 1,3,-1
 160 1493 l 1,0,-1
EndSplineSet
EndChar
StartChar: bracketright
Encoding: 93 93 93
Width: 799
Flags: W
Fore
623 1556 m 1,0,-1
 623 -270 l 1,1,-1
 158 -270 l 1,2,-1
 158 -164 l 1,3,-1
 432 -164 l 1,4,-1
 432 1450 l 1,5,-1
 158 1450 l 1,6,-1
 158 1556 l 1,7,-1
 623 1556 l 1,0,-1
EndSplineSet
EndChar
StartChar: asciicircum
Encoding: 94 94 94
Width: 1716
Flags: W
Fore
956 1493 m 1,0,-1
 1499 936 l 1,1,-1
 1346 936 l 1,2,-1
 858 1317 l 1,3,-1
 371 936 l 1,4,-1
 217 936 l 1,5,-1
 760 1493 l 1,6,-1
 956 1493 l 1,0,-1
EndSplineSet
EndChar
StartChar: underscore
Encoding: 95 95 95
Width: 1024
Flags: W
Fore
1024 -403 m 1,0,-1
 1024 -483 l 1,1,-1
 0 -483 l 1,2,-1
 0 -403 l 1,3,-1
 1024 -403 l 1,0,-1
EndSplineSet
EndChar
StartChar: grave
Encoding: 96 96 96
Width: 1024
Flags: W
Fore
367 1636 m 1,0,-1
 627 1260 l 1,1,-1
 510 1260 l 1,2,-1
 170 1636 l 1,3,-1
 367 1636 l 1,0,-1
EndSplineSet
EndChar
StartChar: a
Encoding: 97 97 97
Width: 1221
Flags: W
AnchorPoint: "above" 569 1092 basechar 0
Fore
815 334 m 2,0,-1
 815 559 l 1,1,-1
 578 559 l 2,2,3
 441 559 441 559 374 500 c 128,-1,4
 307 441 307 441 307 319 c 0,5,6
 307 208 307 208 375 143 c 128,-1,7
 443 78 443 78 559 78 c 0,8,9
 674 78 674 78 744.5 149 c 128,-1,10
 815 220 815 220 815 334 c 2,0,-1
999 664 m 2,11,-1
 999 106 l 1,12,-1
 1163 106 l 1,13,-1
 1163 0 l 1,14,-1
 815 0 l 1,15,-1
 815 115 l 1,16,17
 754 41 754 41 674 6 c 128,-1,18
 594 -29 594 -29 487 -29 c 0,19,20
 310 -29 310 -29 206 65 c 128,-1,21
 102 159 102 159 102 319 c 0,22,23
 102 484 102 484 221 575 c 128,-1,24
 340 666 340 666 557 666 c 2,25,-1
 815 666 l 1,26,-1
 815 739 l 2,27,28
 815 860 815 860 741.5 926.5 c 128,-1,29
 668 993 668 993 535 993 c 0,30,31
 425 993 425 993 360 943 c 128,-1,32
 295 893 295 893 279 795 c 1,33,-1
 184 795 l 1,34,-1
 184 1010 l 1,35,36
 280 1051 280 1051 370.5 1071.5 c 128,-1,37
 461 1092 461 1092 547 1092 c 0,38,39
 768 1092 768 1092 883.5 982.5 c 128,-1,40
 999 873 999 873 999 664 c 2,11,-1
EndSplineSet
EndChar
StartChar: b
Encoding: 98 98 98
Width: 1311
Flags: W
Fore
236 106 m 1,0,-1
 236 1450 l 1,1,-1
 59 1450 l 1,2,-1
 59 1556 l 1,3,-1
 420 1556 l 1,4,-1
 420 897 l 1,5,6
 474 997 474 997 557.5 1044.5 c 128,-1,7
 641 1092 641 1092 764 1092 c 0,8,9
 960 1092 960 1092 1084 937 c 128,-1,10
 1208 782 1208 782 1208 532 c 0,11,12
 1208 282 1208 282 1084 126.5 c 128,-1,13
 960 -29 960 -29 764 -29 c 0,14,15
 641 -29 641 -29 557.5 18.5 c 128,-1,16
 474 66 474 66 420 166 c 1,17,-1
 420 0 l 1,18,-1
 59 0 l 1,19,-1
 59 106 l 1,20,-1
 236 106 l 1,0,-1
420 479 m 2,21,22
 420 287 420 287 493.5 186.5 c 128,-1,23
 567 86 567 86 707 86 c 0,24,25
 848 86 848 86 920.5 199 c 128,-1,26
 993 312 993 312 993 532 c 0,27,28
 993 753 993 753 920.5 865 c 128,-1,29
 848 977 848 977 707 977 c 0,30,31
 567 977 567 977 493.5 876 c 128,-1,32
 420 775 420 775 420 584 c 2,33,-1
 420 479 l 2,21,22
EndSplineSet
EndChar
StartChar: c
Encoding: 99 99 99
Width: 1147
Flags: W
AnchorPoint: "above" 616 1092 basechar 0
Fore
1053 319 m 1,0,1
 1014 149 1014 149 903 60 c 128,-1,2
 792 -29 792 -29 616 -29 c 0,3,4
 384 -29 384 -29 243 124.5 c 128,-1,5
 102 278 102 278 102 532 c 0,6,7
 102 787 102 787 243 939.5 c 128,-1,8
 384 1092 384 1092 616 1092 c 0,9,10
 717 1092 717 1092 817 1068.5 c 128,-1,11
 917 1045 917 1045 1018 997 c 1,12,-1
 1018 725 l 1,13,-1
 911 725 l 1,14,15
 890 865 890 865 819.5 929 c 128,-1,16
 749 993 749 993 618 993 c 0,17,18
 469 993 469 993 393 877.5 c 128,-1,19
 317 762 317 762 317 532 c 0,20,21
 317 302 317 302 392.5 186 c 128,-1,22
 468 70 468 70 618 70 c 0,23,24
 737 70 737 70 808 132 c 128,-1,25
 879 194 879 194 905 319 c 1,26,-1
 1053 319 l 1,0,1
EndSplineSet
EndChar
StartChar: d
Encoding: 100 100 100
Width: 1311
Flags: W
Fore
1075 106 m 1,0,-1
 1251 106 l 1,1,-1
 1251 0 l 1,2,-1
 891 0 l 1,3,-1
 891 166 l 1,4,5
 837 66 837 66 753.5 18.5 c 128,-1,6
 670 -29 670 -29 547 -29 c 0,7,8
 351 -29 351 -29 226.5 126.5 c 128,-1,9
 102 282 102 282 102 532 c 0,10,11
 102 782 102 782 226 937 c 128,-1,12
 350 1092 350 1092 547 1092 c 0,13,14
 670 1092 670 1092 753.5 1044.5 c 128,-1,15
 837 997 837 997 891 897 c 1,16,-1
 891 1450 l 1,17,-1
 717 1450 l 1,18,-1
 717 1556 l 1,19,-1
 1075 1556 l 1,20,-1
 1075 106 l 1,0,-1
891 479 m 2,21,-1
 891 584 l 2,22,23
 891 775 891 775 817.5 876 c 128,-1,24
 744 977 744 977 604 977 c 0,25,26
 462 977 462 977 389.5 865 c 128,-1,27
 317 753 317 753 317 532 c 0,28,29
 317 312 317 312 389.5 199 c 128,-1,30
 462 86 462 86 604 86 c 0,31,32
 744 86 744 86 817.5 186.5 c 128,-1,33
 891 287 891 287 891 479 c 2,21,-1
EndSplineSet
EndChar
StartChar: e
Encoding: 101 101 101
Width: 1212
Flags: W
AnchorPoint: "above" 606 1092 basechar 0
Fore
1110 512 m 1,0,-1
 317 512 l 1,1,-1
 317 504 l 2,2,3
 317 289 317 289 398 179.5 c 128,-1,4
 479 70 479 70 637 70 c 0,5,6
 758 70 758 70 835.5 133.5 c 128,-1,7
 913 197 913 197 944 322 c 1,8,-1
 1092 322 l 1,9,10
 1048 147 1048 147 929.5 59 c 128,-1,11
 811 -29 811 -29 618 -29 c 0,12,13
 385 -29 385 -29 243.5 124.5 c 128,-1,14
 102 278 102 278 102 532 c 0,15,16
 102 784 102 784 241 938 c 128,-1,17
 380 1092 380 1092 606 1092 c 0,18,19
 847 1092 847 1092 976 943.5 c 128,-1,20
 1105 795 1105 795 1110 512 c 1,0,-1
893 618 m 1,21,22
 887 804 887 804 814.5 898.5 c 128,-1,23
 742 993 742 993 606 993 c 0,24,25
 479 993 479 993 406 898 c 128,-1,26
 333 803 333 803 317 618 c 1,27,-1
 893 618 l 1,21,22
EndSplineSet
EndChar
StartChar: f
Encoding: 102 102 102
Width: 758
Flags: W
Fore
881 1305 m 1,0,-1
 784 1305 l 1,1,2
 783 1380 783 1380 741.5 1419 c 128,-1,3
 700 1458 700 1458 621 1458 c 0,4,5
 518 1458 518 1458 476 1401.5 c 128,-1,6
 434 1345 434 1345 434 1200 c 2,7,-1
 434 1063 l 1,8,-1
 731 1063 l 1,9,-1
 731 956 l 1,10,-1
 434 956 l 1,11,-1
 434 106 l 1,12,-1
 670 106 l 1,13,-1
 670 0 l 1,14,-1
 74 0 l 1,15,-1
 74 106 l 1,16,-1
 250 106 l 1,17,-1
 250 956 l 1,18,-1
 74 956 l 1,19,-1
 74 1063 l 1,20,-1
 250 1063 l 1,21,-1
 250 1196 l 2,22,23
 250 1374 250 1374 342.5 1465 c 128,-1,24
 435 1556 435 1556 614 1556 c 0,25,26
 681 1556 681 1556 748 1544 c 128,-1,27
 815 1532 815 1532 881 1507 c 1,28,-1
 881 1305 l 1,0,-1
EndSplineSet
KernsSLIFO: 8217 151 0 0 8221 151 0 0 8220 38 0 0 46 -73 0 0 45 -73 0 0 44 -73 0 0
EndChar
StartChar: g
Encoding: 103 103 103
Width: 1311
Flags: W
AnchorPoint: "above" 604 1092 basechar 0
Fore
1075 956 m 1,0,-1
 1075 23 l 2,1,2
 1075 -206 1075 -206 949 -330.5 c 128,-1,3
 823 -455 823 -455 590 -455 c 0,4,5
 485 -455 485 -455 389 -436 c 128,-1,6
 293 -417 293 -417 205 -379 c 1,7,-1
 205 -156 l 1,8,-1
 301 -156 l 1,9,10
 319 -260 319 -260 386 -308 c 128,-1,11
 453 -356 453 -356 578 -356 c 0,12,13
 740 -356 740 -356 815.5 -264.5 c 128,-1,14
 891 -173 891 -173 891 23 c 2,15,-1
 891 166 l 1,16,17
 837 66 837 66 753.5 18.5 c 128,-1,18
 670 -29 670 -29 547 -29 c 0,19,20
 351 -29 351 -29 226.5 126.5 c 128,-1,21
 102 282 102 282 102 532 c 0,22,23
 102 782 102 782 226 937 c 128,-1,24
 350 1092 350 1092 547 1092 c 0,25,26
 670 1092 670 1092 753.5 1044.5 c 128,-1,27
 837 997 837 997 891 897 c 1,28,-1
 891 1063 l 1,29,-1
 1251 1063 l 1,30,-1
 1251 956 l 1,31,-1
 1075 956 l 1,0,-1
891 584 m 2,32,33
 891 775 891 775 817.5 876 c 128,-1,34
 744 977 744 977 604 977 c 0,35,36
 462 977 462 977 389.5 865 c 128,-1,37
 317 753 317 753 317 532 c 0,38,39
 317 312 317 312 389.5 199 c 128,-1,40
 462 86 462 86 604 86 c 0,41,42
 744 86 744 86 817.5 186.5 c 128,-1,43
 891 287 891 287 891 479 c 2,44,-1
 891 584 l 2,32,33
EndSplineSet
EndChar
StartChar: h
Encoding: 104 104 104
Width: 1319
Flags: W
AnchorPoint: "above" 258 1465 basechar 0
Fore
84 0 m 1,0,-1
 84 106 l 1,1,-1
 250 106 l 1,2,-1
 250 1450 l 1,3,-1
 74 1450 l 1,4,-1
 74 1556 l 1,5,-1
 434 1556 l 1,6,-1
 434 874 l 1,7,8
 485 982 485 982 566.5 1037 c 128,-1,9
 648 1092 648 1092 756 1092 c 0,10,11
 932 1092 932 1092 1015 991 c 128,-1,12
 1098 890 1098 890 1098 676 c 2,13,-1
 1098 106 l 1,14,-1
 1262 106 l 1,15,-1
 1262 0 l 1,16,-1
 754 0 l 1,17,-1
 754 106 l 1,18,-1
 913 106 l 1,19,-1
 913 618 l 2,20,21
 913 813 913 813 865.5 884.5 c 128,-1,22
 818 956 818 956 696 956 c 0,23,24
 568 956 568 956 501 863 c 128,-1,25
 434 770 434 770 434 592 c 2,26,-1
 434 106 l 1,27,-1
 594 106 l 1,28,-1
 594 0 l 1,29,-1
 84 0 l 1,0,-1
EndSplineSet
EndChar
StartChar: i
Encoding: 105 105 105
Width: 655
Flags: W
AnchorPoint: "above" 328 1536 basechar 0
Fore
199 1393 m 0,0,1
 199 1439 199 1439 232.5 1473 c 128,-1,2
 266 1507 266 1507 313 1507 c 0,3,4
 359 1507 359 1507 392.5 1473 c 128,-1,5
 426 1439 426 1439 426 1393 c 0,6,7
 426 1346 426 1346 393 1313 c 128,-1,8
 360 1280 360 1280 313 1280 c 0,9,10
 266 1280 266 1280 232.5 1313 c 128,-1,11
 199 1346 199 1346 199 1393 c 0,0,1
434 106 m 1,12,-1
 608 106 l 1,13,-1
 608 0 l 1,14,-1
 74 0 l 1,15,-1
 74 106 l 1,16,-1
 250 106 l 1,17,-1
 250 956 l 1,18,-1
 74 956 l 1,19,-1
 74 1063 l 1,20,-1
 434 1063 l 1,21,-1
 434 106 l 1,12,-1
EndSplineSet
Substitution: 0 65534 's001' dotlessi
EndChar
StartChar: j
Encoding: 106 106 106
Width: 635
Flags: W
AnchorPoint: "above" 328 1536 basechar 0
Fore
205 1393 m 0,0,1
 205 1439 205 1439 238.5 1473 c 128,-1,2
 272 1507 272 1507 319 1507 c 0,3,4
 365 1507 365 1507 398.5 1473 c 128,-1,5
 432 1439 432 1439 432 1393 c 0,6,7
 432 1346 432 1346 399.5 1313 c 128,-1,8
 367 1280 367 1280 319 1280 c 0,9,10
 272 1280 272 1280 238.5 1313 c 128,-1,11
 205 1346 205 1346 205 1393 c 0,0,1
250 956 m 1,12,-1
 76 956 l 1,13,-1
 76 1063 l 1,14,-1
 434 1063 l 1,15,-1
 434 -104 l 2,16,17
 434 -268 434 -268 336.5 -361.5 c 128,-1,18
 239 -455 239 -455 68 -455 c 0,19,20
 -4 -455 -4 -455 -69.5 -438.5 c 128,-1,21
 -135 -422 -135 -422 -197 -389 c 1,22,-1
 -197 -170 l 1,23,-1
 -102 -170 l 1,24,25
 -95 -266 -95 -266 -52.5 -311 c 128,-1,26
 -10 -356 -10 -356 72 -356 c 0,27,28
 163 -356 163 -356 206.5 -294.5 c 128,-1,29
 250 -233 250 -233 250 -104 c 2,30,-1
 250 956 l 1,12,-1
EndSplineSet
Substitution: 0 65534 's001' dotlessj
EndChar
StartChar: k
Encoding: 107 107 107
Width: 1241
Flags: W
Fore
586 0 m 1,0,-1
 70 0 l 1,1,-1
 70 106 l 1,2,-1
 236 106 l 1,3,-1
 236 1450 l 1,4,-1
 59 1450 l 1,5,-1
 59 1556 l 1,6,-1
 420 1556 l 1,7,-1
 420 543 l 1,8,-1
 868 956 l 1,9,-1
 715 956 l 1,10,-1
 715 1063 l 1,11,-1
 1196 1063 l 1,12,-1
 1196 956 l 1,13,-1
 1014 956 l 1,14,-1
 698 664 l 1,15,-1
 1102 106 l 1,16,-1
 1255 106 l 1,17,-1
 1255 0 l 1,18,-1
 731 0 l 1,19,-1
 731 106 l 1,20,-1
 883 106 l 1,21,-1
 565 543 l 1,22,-1
 420 408 l 1,23,-1
 420 106 l 1,24,-1
 586 106 l 1,25,-1
 586 0 l 1,0,-1
EndSplineSet
KernsSLIFO: 45 -36 0 0
EndChar
StartChar: l
Encoding: 108 108 108
Width: 655
Flags: W
Fore
420 106 m 1,0,-1
 594 106 l 1,1,-1
 594 0 l 1,2,-1
 59 0 l 1,3,-1
 59 106 l 1,4,-1
 236 106 l 1,5,-1
 236 1450 l 1,6,-1
 59 1450 l 1,7,-1
 59 1556 l 1,8,-1
 420 1556 l 1,9,-1
 420 106 l 1,0,-1
EndSplineSet
EndChar
StartChar: m
Encoding: 109 109 109
Width: 1942
Flags: W
Fore
1061 856 m 1,0,1
 1114 973 1114 973 1196.5 1032.5 c 128,-1,2
 1279 1092 1279 1092 1389 1092 c 0,3,4
 1556 1092 1556 1092 1638 988.5 c 128,-1,5
 1720 885 1720 885 1720 676 c 2,6,-1
 1720 106 l 1,7,-1
 1886 106 l 1,8,-1
 1886 0 l 1,9,-1
 1376 0 l 1,10,-1
 1376 106 l 1,11,-1
 1536 106 l 1,12,-1
 1536 655 l 2,13,14
 1536 818 1536 818 1488 887 c 128,-1,15
 1440 956 1440 956 1329 956 c 0,16,17
 1206 956 1206 956 1141.5 863 c 128,-1,18
 1077 770 1077 770 1077 592 c 2,19,-1
 1077 106 l 1,20,-1
 1237 106 l 1,21,-1
 1237 0 l 1,22,-1
 733 0 l 1,23,-1
 733 106 l 1,24,-1
 893 106 l 1,25,-1
 893 662 l 2,26,27
 893 821 893 821 845 888.5 c 128,-1,28
 797 956 797 956 686 956 c 0,29,30
 563 956 563 956 498.5 863 c 128,-1,31
 434 770 434 770 434 592 c 2,32,-1
 434 106 l 1,33,-1
 594 106 l 1,34,-1
 594 0 l 1,35,-1
 84 0 l 1,36,-1
 84 106 l 1,37,-1
 250 106 l 1,38,-1
 250 958 l 1,39,-1
 74 958 l 1,40,-1
 74 1063 l 1,41,-1
 434 1063 l 1,42,-1
 434 874 l 1,43,44
 485 980 485 980 564 1036 c 128,-1,45
 643 1092 643 1092 743 1092 c 0,46,47
 867 1092 867 1092 950 1030.5 c 128,-1,48
 1033 969 1033 969 1061 856 c 1,0,1
EndSplineSet
EndChar
StartChar: n
Encoding: 110 110 110
Width: 1319
Flags: W
AnchorPoint: "above" 594 1092 basechar 0
Fore
84 0 m 1,0,-1
 84 106 l 1,1,-1
 250 106 l 1,2,-1
 250 956 l 1,3,-1
 74 956 l 1,4,-1
 74 1063 l 1,5,-1
 434 1063 l 1,6,-1
 434 874 l 1,7,8
 485 982 485 982 566.5 1037 c 128,-1,9
 648 1092 648 1092 756 1092 c 0,10,11
 932 1092 932 1092 1015 991 c 128,-1,12
 1098 890 1098 890 1098 676 c 2,13,-1
 1098 106 l 1,14,-1
 1262 106 l 1,15,-1
 1262 0 l 1,16,-1
 754 0 l 1,17,-1
 754 106 l 1,18,-1
 913 106 l 1,19,-1
 913 618 l 2,20,21
 913 813 913 813 865 885.5 c 128,-1,22
 817 958 817 958 696 958 c 0,23,24
 568 958 568 958 501 864.5 c 128,-1,25
 434 771 434 771 434 592 c 2,26,-1
 434 106 l 1,27,-1
 594 106 l 1,28,-1
 594 0 l 1,29,-1
 84 0 l 1,0,-1
EndSplineSet
EndChar
StartChar: o
Encoding: 111 111 111
Width: 1233
Flags: W
AnchorPoint: "above" 616 1092 basechar 0
Fore
616 70 m 0,0,1
 764 70 764 70 839.5 187 c 128,-1,2
 915 304 915 304 915 532 c 0,3,4
 915 760 915 760 839.5 876.5 c 128,-1,5
 764 993 764 993 616 993 c 0,6,7
 468 993 468 993 392.5 876.5 c 128,-1,8
 317 760 317 760 317 532 c 0,9,10
 317 304 317 304 393 187 c 128,-1,11
 469 70 469 70 616 70 c 0,0,1
616 -29 m 0,12,13
 384 -29 384 -29 243 124.5 c 128,-1,14
 102 278 102 278 102 532 c 0,15,16
 102 786 102 786 242.5 939 c 128,-1,17
 383 1092 383 1092 616 1092 c 0,18,19
 849 1092 849 1092 989.5 939 c 128,-1,20
 1130 786 1130 786 1130 532 c 0,21,22
 1130 278 1130 278 989.5 124.5 c 128,-1,23
 849 -29 849 -29 616 -29 c 0,12,13
EndSplineSet
KernsSLIFO: 46 -36 0 0
EndChar
StartChar: p
Encoding: 112 112 112
Width: 1311
Flags: W
Fore
420 584 m 2,0,-1
 420 479 l 2,1,2
 420 287 420 287 493.5 186.5 c 128,-1,3
 567 86 567 86 707 86 c 0,4,5
 848 86 848 86 920.5 199 c 128,-1,6
 993 312 993 312 993 532 c 0,7,8
 993 753 993 753 920.5 865 c 128,-1,9
 848 977 848 977 707 977 c 0,10,11
 567 977 567 977 493.5 876 c 128,-1,12
 420 775 420 775 420 584 c 2,0,-1
236 956 m 1,13,-1
 59 956 l 1,14,-1
 59 1063 l 1,15,-1
 420 1063 l 1,16,-1
 420 897 l 1,17,18
 474 997 474 997 557.5 1044.5 c 128,-1,19
 641 1092 641 1092 764 1092 c 0,20,21
 960 1092 960 1092 1084 937 c 128,-1,22
 1208 782 1208 782 1208 532 c 0,23,24
 1208 282 1208 282 1084 126.5 c 128,-1,25
 960 -29 960 -29 764 -29 c 0,26,27
 641 -29 641 -29 557.5 18.5 c 128,-1,28
 474 66 474 66 420 166 c 1,29,-1
 420 -319 l 1,30,-1
 594 -319 l 1,31,-1
 594 -426 l 1,32,-1
 59 -426 l 1,33,-1
 59 -319 l 1,34,-1
 236 -319 l 1,35,-1
 236 956 l 1,13,-1
EndSplineSet
EndChar
StartChar: q
Encoding: 113 113 113
Width: 1311
Flags: W
Fore
1075 956 m 1,0,-1
 1075 -319 l 1,1,-1
 1251 -319 l 1,2,-1
 1251 -426 l 1,3,-1
 717 -426 l 1,4,-1
 717 -319 l 1,5,-1
 891 -319 l 1,6,-1
 891 166 l 1,7,8
 837 66 837 66 753.5 18.5 c 128,-1,9
 670 -29 670 -29 547 -29 c 0,10,11
 351 -29 351 -29 226.5 126.5 c 128,-1,12
 102 282 102 282 102 532 c 0,13,14
 102 782 102 782 226 937 c 128,-1,15
 350 1092 350 1092 547 1092 c 0,16,17
 670 1092 670 1092 753.5 1044.5 c 128,-1,18
 837 997 837 997 891 897 c 1,19,-1
 891 1063 l 1,20,-1
 1251 1063 l 1,21,-1
 1251 956 l 1,22,-1
 1075 956 l 1,0,-1
891 584 m 2,23,24
 891 775 891 775 817.5 876 c 128,-1,25
 744 977 744 977 604 977 c 0,26,27
 462 977 462 977 389.5 865 c 128,-1,28
 317 753 317 753 317 532 c 0,29,30
 317 312 317 312 389.5 199 c 128,-1,31
 462 86 462 86 604 86 c 0,32,33
 744 86 744 86 817.5 186.5 c 128,-1,34
 891 287 891 287 891 479 c 2,35,-1
 891 584 l 2,23,24
EndSplineSet
EndChar
StartChar: r
Encoding: 114 114 114
Width: 979
Flags: W
AnchorPoint: "above" 552 1092 basechar 0
Fore
979 1065 m 1,0,-1
 979 799 l 1,1,-1
 873 799 l 1,2,3
 868 878 868 878 829 917 c 128,-1,4
 790 956 790 956 715 956 c 0,5,6
 579 956 579 956 506.5 862 c 128,-1,7
 434 768 434 768 434 592 c 2,8,-1
 434 106 l 1,9,-1
 647 106 l 1,10,-1
 647 0 l 1,11,-1
 84 0 l 1,12,-1
 84 106 l 1,13,-1
 250 106 l 1,14,-1
 250 958 l 1,15,-1
 74 958 l 1,16,-1
 74 1063 l 1,17,-1
 434 1063 l 1,18,-1
 434 874 l 1,19,20
 488 985 488 985 573 1038.5 c 128,-1,21
 658 1092 658 1092 780 1092 c 0,22,23
 825 1092 825 1092 874.5 1085 c 128,-1,24
 924 1078 924 1078 979 1065 c 1,0,-1
EndSplineSet
KernsSLIFO: 46 -225 0 0 44 -225 0 0
EndChar
StartChar: s
Encoding: 115 115 115
Width: 1051
Flags: W
AnchorPoint: "above" 526 1092 basechar 0
Fore
115 59 m 1,0,-1
 115 307 l 1,1,-1
 221 307 l 1,2,3
 225 188 225 188 295.5 129 c 128,-1,4
 366 70 366 70 504 70 c 0,5,6
 628 70 628 70 693 116.5 c 128,-1,7
 758 163 758 163 758 252 c 0,8,9
 758 322 758 322 710.5 365 c 128,-1,10
 663 408 663 408 510 457 c 1,11,-1
 377 502 l 1,12,13
 240 546 240 546 178.5 612 c 128,-1,14
 117 678 117 678 117 780 c 0,15,16
 117 926 117 926 224 1009 c 128,-1,17
 331 1092 331 1092 520 1092 c 0,18,19
 604 1092 604 1092 697 1070 c 128,-1,20
 790 1048 790 1048 889 1006 c 1,21,-1
 889 774 l 1,22,-1
 783 774 l 1,23,24
 779 877 779 877 711 935 c 128,-1,25
 643 993 643 993 526 993 c 0,26,27
 410 993 410 993 350.5 952 c 128,-1,28
 291 911 291 911 291 829 c 0,29,30
 291 762 291 762 336 721.5 c 128,-1,31
 381 681 381 681 516 639 c 2,32,-1
 662 594 l 2,33,34
 813 547 813 547 879.5 476.5 c 128,-1,35
 946 406 946 406 946 295 c 0,36,37
 946 144 946 144 830.5 57.5 c 128,-1,38
 715 -29 715 -29 512 -29 c 0,39,40
 409 -29 409 -29 311 -7 c 128,-1,41
 213 15 213 15 115 59 c 1,0,-1
EndSplineSet
EndChar
StartChar: t
Encoding: 116 116 116
Width: 823
Flags: W
Fore
221 956 m 1,0,-1
 59 956 l 1,1,-1
 59 1063 l 1,2,-1
 221 1063 l 1,3,-1
 221 1393 l 1,4,-1
 406 1393 l 1,5,-1
 406 1063 l 1,6,-1
 752 1063 l 1,7,-1
 752 956 l 1,8,-1
 406 956 l 1,9,-1
 406 281 l 2,10,11
 406 146 406 146 432 108 c 128,-1,12
 458 70 458 70 528 70 c 0,13,14
 600 70 600 70 633 112.5 c 128,-1,15
 666 155 666 155 668 250 c 1,16,-1
 807 250 l 1,17,18
 799 105 799 105 728 38 c 128,-1,19
 657 -29 657 -29 512 -29 c 0,20,21
 353 -29 353 -29 287 41.5 c 128,-1,22
 221 112 221 112 221 281 c 2,23,-1
 221 956 l 1,0,-1
EndSplineSet
EndChar
StartChar: u
Encoding: 117 117 117
Width: 1319
Flags: W
AnchorPoint: "above" 584 1092 basechar 0
Fore
725 1063 m 1,0,-1
 1069 1063 l 1,1,-1
 1069 106 l 1,2,-1
 1243 106 l 1,3,-1
 1243 0 l 1,4,-1
 885 0 l 1,5,-1
 885 188 l 1,6,7
 834 82 834 82 753 26.5 c 128,-1,8
 672 -29 672 -29 565 -29 c 0,9,10
 388 -29 388 -29 304.5 71.5 c 128,-1,11
 221 172 221 172 221 387 c 2,12,-1
 221 956 l 1,13,-1
 55 956 l 1,14,-1
 55 1063 l 1,15,-1
 406 1063 l 1,16,-1
 406 444 l 2,17,18
 406 250 406 250 453.5 178 c 128,-1,19
 501 106 501 106 623 106 c 0,20,21
 751 106 751 106 818 200 c 128,-1,22
 885 294 885 294 885 473 c 2,23,-1
 885 956 l 1,24,-1
 725 956 l 1,25,-1
 725 1063 l 1,0,-1
EndSplineSet
EndChar
StartChar: v
Encoding: 118 118 118
Width: 1157
Flags: W
Fore
506 0 m 1,0,-1
 115 956 l 1,1,-1
 -6 956 l 1,2,-1
 -6 1063 l 1,3,-1
 483 1063 l 1,4,-1
 483 956 l 1,5,-1
 313 956 l 1,6,-1
 612 225 l 1,7,-1
 911 956 l 1,8,-1
 752 956 l 1,9,-1
 752 1063 l 1,10,-1
 1151 1063 l 1,11,-1
 1151 956 l 1,12,-1
 1032 956 l 1,13,-1
 641 0 l 1,14,-1
 506 0 l 1,0,-1
EndSplineSet
KernsSLIFO: 46 -243 0 0 44 -243 0 0
EndChar
StartChar: w
Encoding: 119 119 119
Width: 1753
Flags: W
AnchorPoint: "above" 879.5 1092 basechar 0
Fore
983 1063 m 1,0,-1
 1255 233 l 1,1,-1
 1495 956 l 1,2,-1
 1341 956 l 1,3,-1
 1341 1063 l 1,4,-1
 1726 1063 l 1,5,-1
 1726 956 l 1,6,-1
 1608 956 l 1,7,-1
 1292 0 l 1,8,-1
 1139 0 l 1,9,-1
 877 795 l 1,10,-1
 614 0 l 1,11,-1
 467 0 l 1,12,-1
 152 956 l 1,13,-1
 33 956 l 1,14,-1
 33 1063 l 1,15,-1
 514 1063 l 1,16,-1
 514 956 l 1,17,-1
 342 956 l 1,18,-1
 580 233 l 1,19,-1
 854 1063 l 1,20,-1
 983 1063 l 1,0,-1
EndSplineSet
KernsSLIFO: 46 -243 0 0 44 -243 0 0
EndChar
StartChar: x
Encoding: 120 120 120
Width: 1155
Flags: W
Fore
596 649 m 1,0,-1
 819 956 l 1,1,-1
 676 956 l 1,2,-1
 676 1063 l 1,3,-1
 1085 1063 l 1,4,-1
 1085 956 l 1,5,-1
 944 956 l 1,6,-1
 659 563 l 1,7,-1
 991 106 l 1,8,-1
 1130 106 l 1,9,-1
 1130 0 l 1,10,-1
 639 0 l 1,11,-1
 639 106 l 1,12,-1
 774 106 l 1,13,-1
 543 424 l 1,14,-1
 311 106 l 1,15,-1
 449 106 l 1,16,-1
 449 0 l 1,17,-1
 45 0 l 1,18,-1
 45 106 l 1,19,-1
 186 106 l 1,20,-1
 479 510 l 1,21,-1
 156 956 l 1,22,-1
 25 956 l 1,23,-1
 25 1063 l 1,24,-1
 500 1063 l 1,25,-1
 500 956 l 1,26,-1
 373 956 l 1,27,-1
 596 649 l 1,0,-1
EndSplineSet
KernsSLIFO: 45 -36 0 0
EndChar
StartChar: y
Encoding: 121 121 121
Width: 1157
Flags: W
AnchorPoint: "above" 572.5 1092 basechar 0
Fore
442 -195 m 1,0,-1
 512 -18 l 1,1,-1
 115 956 l 1,2,-1
 -6 956 l 1,3,-1
 -6 1063 l 1,4,-1
 483 1063 l 1,5,-1
 483 956 l 1,6,-1
 313 956 l 1,7,-1
 612 225 l 1,8,-1
 911 956 l 1,9,-1
 752 956 l 1,10,-1
 752 1063 l 1,11,-1
 1151 1063 l 1,12,-1
 1151 956 l 1,13,-1
 1032 956 l 1,14,-1
 545 -240 l 1,15,16
 495 -364 495 -364 434 -409.5 c 128,-1,17
 373 -455 373 -455 262 -455 c 0,18,19
 215 -455 215 -455 165.5 -447 c 128,-1,20
 116 -439 116 -439 66 -424 c 1,21,-1
 66 -221 l 1,22,-1
 160 -221 l 1,23,24
 166 -289 166 -289 194.5 -318.5 c 128,-1,25
 223 -348 223 -348 283 -348 c 0,26,27
 338 -348 338 -348 371.5 -317.5 c 128,-1,28
 405 -287 405 -287 442 -195 c 1,0,-1
EndSplineSet
KernsSLIFO: 46 -272 0 0 44 -272 0 0
EndChar
StartChar: z
Encoding: 122 122 122
Width: 1079
Flags: W
AnchorPoint: "above" 529 1092 basechar 0
Fore
82 0 m 1,0,-1
 82 86 l 1,1,-1
 748 956 l 1,2,-1
 221 956 l 1,3,-1
 221 772 l 1,4,-1
 115 772 l 1,5,-1
 115 1063 l 1,6,-1
 985 1063 l 1,7,-1
 985 977 l 1,8,-1
 319 106 l 1,9,-1
 897 106 l 1,10,-1
 897 299 l 1,11,-1
 1004 299 l 1,12,-1
 1004 0 l 1,13,-1
 82 0 l 1,0,-1
EndSplineSet
EndChar
StartChar: braceleft
Encoding: 123 123 123
Width: 1303
Flags: W
Fore
1047 -229 m 1,0,-1
 1047 -334 l 1,1,-1
 985 -334 l 2,2,3
 736 -334 736 -334 651.5 -260 c 128,-1,4
 567 -186 567 -186 567 35 c 2,5,-1
 567 293 l 2,6,7
 567 443 567 443 513 501 c 128,-1,8
 459 559 459 559 317 559 c 2,9,-1
 256 559 l 1,10,-1
 256 664 l 1,11,-1
 317 664 l 2,12,13
 459 664 459 664 513 722 c 128,-1,14
 567 780 567 780 567 930 c 2,15,-1
 567 1188 l 2,16,17
 567 1409 567 1409 651.5 1482.5 c 128,-1,18
 736 1556 736 1556 985 1556 c 2,19,-1
 1047 1556 l 1,20,-1
 1047 1452 l 1,21,-1
 979 1452 l 2,22,23
 838 1452 838 1452 795 1408 c 128,-1,24
 752 1364 752 1364 752 1223 c 2,25,-1
 752 936 l 2,26,27
 752 778 752 778 702 710 c 128,-1,28
 652 642 652 642 522 612 c 1,29,30
 654 578 654 578 703 511 c 128,-1,31
 752 444 752 444 752 287 c 2,32,-1
 752 0 l 2,33,34
 752 -141 752 -141 795 -185 c 128,-1,35
 838 -229 838 -229 979 -229 c 2,36,-1
 1047 -229 l 1,0,-1
EndSplineSet
EndChar
StartChar: bar
Encoding: 124 124 124
Width: 690
Flags: W
Fore
426 1565 m 1,0,-1
 426 -483 l 1,1,-1
 264 -483 l 1,2,-1
 264 1565 l 1,3,-1
 426 1565 l 1,0,-1
EndSplineSet
EndChar
StartChar: braceright
Encoding: 125 125 125
Width: 1303
Flags: W
Fore
256 -229 m 1,0,-1
 326 -229 l 2,1,2
 466 -229 466 -229 508.5 -185.5 c 128,-1,3
 551 -142 551 -142 551 0 c 2,4,-1
 551 287 l 2,5,6
 551 444 551 444 600 511 c 128,-1,7
 649 578 649 578 780 612 c 1,8,9
 650 642 650 642 600.5 710 c 128,-1,10
 551 778 551 778 551 936 c 2,11,-1
 551 1223 l 2,12,13
 551 1365 551 1365 508.5 1408.5 c 128,-1,14
 466 1452 466 1452 326 1452 c 2,15,-1
 256 1452 l 1,16,-1
 256 1556 l 1,17,-1
 319 1556 l 2,18,19
 568 1556 568 1556 651.5 1482.5 c 128,-1,20
 735 1409 735 1409 735 1188 c 2,21,-1
 735 930 l 2,22,23
 735 780 735 780 789 722 c 128,-1,24
 843 664 843 664 985 664 c 2,25,-1
 1047 664 l 1,26,-1
 1047 559 l 1,27,-1
 985 559 l 2,28,29
 843 559 843 559 789 501 c 128,-1,30
 735 443 735 443 735 293 c 2,31,-1
 735 35 l 2,32,33
 735 -186 735 -186 651.5 -260 c 128,-1,34
 568 -334 568 -334 319 -334 c 2,35,-1
 256 -334 l 1,36,-1
 256 -229 l 1,0,-1
EndSplineSet
EndChar
StartChar: asciitilde
Encoding: 126 126 126
Width: 1716
Flags: W
Fore
1499 807 m 1,0,-1
 1499 659 l 1,1,2
 1399 571 1399 571 1309 529 c 128,-1,3
 1219 487 1219 487 1126 487 c 0,4,5
 1030 487 1030 487 856 553 c 2,6,-1
 846 557 l 2,7,8
 835 561 835 561 813 570 c 0,9,10
 666 627 666 627 571 627 c 0,11,12
 479 627 479 627 392.5 590.5 c 128,-1,13
 306 554 306 554 217 477 c 1,14,-1
 217 629 l 1,15,16
 317 716 317 716 406.5 756.5 c 128,-1,17
 496 797 496 797 590 797 c 0,18,19
 686 797 686 797 860 731 c 2,20,-1
 870 727 l 2,21,22
 881 723 881 723 901 715 c 0,23,24
 1046 657 1046 657 1143 657 c 0,25,26
 1235 657 1235 657 1323 694 c 128,-1,27
 1411 731 1411 731 1499 807 c 1,0,-1
EndSplineSet
EndChar
StartChar: exclamdown
Encoding: 161 161 161
Width: 823
Flags: W
Fore
279 1389 m 0,0,1
 279 1445 279 1445 317 1483.5 c 128,-1,2
 355 1522 355 1522 412 1522 c 0,3,4
 467 1522 467 1522 506 1483 c 128,-1,5
 545 1444 545 1444 545 1389 c 0,6,7
 545 1333 545 1333 506 1294 c 128,-1,8
 467 1255 467 1255 412 1255 c 0,9,10
 355 1255 355 1255 317 1294 c 128,-1,11
 279 1333 279 1333 279 1389 c 0,0,1
283 0 m 1,12,-1
 350 821 l 1,13,-1
 350 1073 l 1,14,-1
 473 1073 l 1,15,-1
 473 821 l 1,16,-1
 541 0 l 1,17,-1
 283 0 l 1,12,-1
EndSplineSet
EndChar
StartChar: cent
Encoding: 162 162 162
Width: 1303
Flags: W
Fore
629 991 m 1,0,1
 500 976 500 976 435.5 861 c 128,-1,2
 371 746 371 746 371 532 c 0,3,4
 371 317 371 317 435.5 202 c 128,-1,5
 500 87 500 87 629 72 c 1,6,-1
 629 991 l 1,0,1
1104 319 m 1,7,8
 1069 165 1069 165 975 78.5 c 128,-1,9
 881 -8 881 -8 729 -27 c 1,10,-1
 729 -297 l 1,11,-1
 629 -297 l 1,12,-1
 629 -27 l 1,13,14
 409 -8 409 -8 281.5 142 c 128,-1,15
 154 292 154 292 154 532 c 0,16,17
 154 774 154 774 281.5 923.5 c 128,-1,18
 409 1073 409 1073 629 1090 c 1,19,-1
 629 1356 l 1,20,-1
 729 1356 l 1,21,-1
 729 1090 l 1,22,23
 821 1082 821 1082 905 1059 c 128,-1,24
 989 1036 989 1036 1069 997 c 1,25,-1
 1069 725 l 1,26,-1
 963 725 l 1,27,28
 944 848 944 848 886.5 913.5 c 128,-1,29
 829 979 829 979 729 991 c 1,30,-1
 729 72 l 1,31,32
 819 84 819 84 877 147.5 c 128,-1,33
 935 211 935 211 956 319 c 1,34,-1
 1104 319 l 1,7,8
EndSplineSet
EndChar
StartChar: sterling
Encoding: 163 163 163
Width: 1303
Flags: W
Fore
1102 1225 m 1,0,-1
 997 1225 l 1,1,2
 987 1320 987 1320 930.5 1370.5 c 128,-1,3
 874 1421 874 1421 778 1421 c 0,4,5
 651 1421 651 1421 590.5 1343.5 c 128,-1,6
 530 1266 530 1266 530 1102 c 2,7,-1
 530 807 l 1,8,-1
 942 807 l 1,9,-1
 942 700 l 1,10,-1
 530 700 l 1,11,-1
 530 121 l 1,12,-1
 1008 121 l 1,13,-1
 1008 348 l 1,14,-1
 1124 348 l 1,15,-1
 1124 0 l 1,16,-1
 137 0 l 1,17,-1
 137 106 l 1,18,-1
 330 106 l 1,19,-1
 330 700 l 1,20,-1
 137 700 l 1,21,-1
 137 807 l 1,22,-1
 330 807 l 1,23,-1
 330 1102 l 2,24,25
 330 1307 330 1307 444.5 1413.5 c 128,-1,26
 559 1520 559 1520 780 1520 c 0,27,28
 865 1520 865 1520 946 1507.5 c 128,-1,29
 1027 1495 1027 1495 1102 1470 c 1,30,-1
 1102 1225 l 1,0,-1
EndSplineSet
EndChar
StartChar: currency
Encoding: 164 164 164
Width: 1303
Flags: W
Fore
901 985 m 1,0,-1
 1110 1192 l 1,1,-1
 1204 1098 l 1,2,-1
 995 889 l 1,3,4
 1038 829 1038 829 1058.5 768 c 128,-1,5
 1079 707 1079 707 1079 641 c 0,6,7
 1079 572 1079 572 1058.5 513 c 128,-1,8
 1038 454 1038 454 993 397 c 1,9,-1
 1200 190 l 1,10,-1
 1104 96 l 1,11,-1
 897 301 l 1,12,13
 841 257 841 257 781.5 236 c 128,-1,14
 722 215 722 215 653 215 c 0,15,16
 589 215 589 215 526.5 235.5 c 128,-1,17
 464 256 464 256 403 297 c 1,18,-1
 199 92 l 1,19,-1
 104 186 l 1,20,-1
 309 393 l 1,21,22
 268 455 268 455 247.5 516 c 128,-1,23
 227 577 227 577 227 641 c 0,24,25
 227 711 227 711 248 770.5 c 128,-1,26
 269 830 269 830 313 887 c 1,27,-1
 106 1094 l 1,28,-1
 201 1188 l 1,29,-1
 408 981 l 1,30,31
 464 1025 464 1025 524 1046 c 128,-1,32
 584 1067 584 1067 653 1067 c 0,33,34
 719 1067 719 1067 780 1047 c 128,-1,35
 841 1027 841 1027 901 985 c 1,0,-1
922 643 m 0,36,37
 922 755 922 755 844.5 832 c 128,-1,38
 767 909 767 909 653 909 c 0,39,40
 541 909 541 909 463 832 c 128,-1,41
 385 755 385 755 385 643 c 0,42,43
 385 529 385 529 462.5 451 c 128,-1,44
 540 373 540 373 653 373 c 0,45,46
 766 373 766 373 844 451.5 c 128,-1,47
 922 530 922 530 922 643 c 0,36,37
EndSplineSet
EndChar
StartChar: yen
Encoding: 165 165 165
Width: 1303
Flags: W
Fore
360 0 m 1,0,-1
 360 106 l 1,1,-1
 551 106 l 1,2,-1
 551 473 l 1,3,-1
 147 473 l 1,4,-1
 147 578 l 1,5,-1
 551 578 l 1,6,-1
 551 643 l 1,7,-1
 469 784 l 1,8,-1
 147 784 l 1,9,-1
 147 889 l 1,10,-1
 410 889 l 1,11,-1
 123 1386 l 1,12,-1
 -16 1386 l 1,13,-1
 -16 1493 l 1,14,-1
 537 1493 l 1,15,-1
 537 1386 l 1,16,-1
 362 1386 l 1,17,-1
 705 782 l 1,18,-1
 1044 1386 l 1,19,-1
 877 1386 l 1,20,-1
 877 1493 l 1,21,-1
 1309 1493 l 1,22,-1
 1309 1386 l 1,23,-1
 1167 1386 l 1,24,-1
 883 889 l 1,25,-1
 1155 889 l 1,26,-1
 1155 784 l 1,27,-1
 823 784 l 1,28,-1
 752 662 l 1,29,-1
 752 578 l 1,30,-1
 1155 578 l 1,31,-1
 1155 473 l 1,32,-1
 752 473 l 1,33,-1
 752 106 l 1,34,-1
 942 106 l 1,35,-1
 942 0 l 1,36,-1
 360 0 l 1,0,-1
EndSplineSet
EndChar
StartChar: brokenbar
Encoding: 166 166 166
Width: 690
Flags: W
Fore
426 408 m 1,0,-1
 426 -350 l 1,1,-1
 264 -350 l 1,2,-1
 264 408 l 1,3,-1
 426 408 l 1,0,-1
426 1432 m 1,4,-1
 426 674 l 1,5,-1
 264 674 l 1,6,-1
 264 1432 l 1,7,-1
 426 1432 l 1,4,-1
EndSplineSet
EndChar
StartChar: section
Encoding: 167 167 167
Width: 1024
Flags: W
Fore
379 936 m 1,0,1
 311 890 311 890 283.5 848.5 c 128,-1,2
 256 807 256 807 256 754 c 0,3,4
 256 622 256 622 619 419 c 2,5,-1
 651 401 l 1,6,7
 709 439 709 439 738.5 487 c 128,-1,8
 768 535 768 535 768 592 c 0,9,10
 768 667 768 667 698.5 734 c 128,-1,11
 629 801 629 801 379 936 c 1,0,1
829 1464 m 1,12,-1
 829 1262 l 1,13,-1
 737 1262 l 1,14,15
 735 1334 735 1334 683 1375.5 c 128,-1,16
 631 1417 631 1417 543 1417 c 0,17,18
 443 1417 443 1417 385.5 1368.5 c 128,-1,19
 328 1320 328 1320 328 1237 c 0,20,21
 328 1140 328 1140 574 1003 c 0,22,23
 600 988 600 988 612 981 c 0,24,25
 807 872 807 872 869.5 797 c 128,-1,26
 932 722 932 722 932 623 c 0,27,28
 932 528 932 528 879.5 465 c 128,-1,29
 827 402 827 402 713 358 c 1,30,31
 791 311 791 311 827.5 248 c 128,-1,32
 864 185 864 185 864 94 c 0,33,34
 864 -37 864 -37 762 -116 c 128,-1,35
 660 -195 660 -195 487 -195 c 0,36,37
 397 -195 397 -195 317 -181.5 c 128,-1,38
 237 -168 237 -168 160 -139 c 1,39,-1
 160 70 l 1,40,-1
 252 69 l 1,41,42
 254 -11 254 -11 308 -51.5 c 128,-1,43
 362 -92 362 -92 469 -92 c 0,44,45
 573 -92 573 -92 633.5 -43 c 128,-1,46
 694 6 694 6 694 90 c 0,47,48
 694 203 694 203 466 330 c 0,49,50
 445 342 445 342 434 348 c 0,51,52
 218 470 218 470 155 545 c 128,-1,53
 92 620 92 620 92 719 c 0,54,55
 92 813 92 813 151 879.5 c 128,-1,56
 210 946 210 946 319 977 c 1,57,58
 237 1026 237 1026 197.5 1089 c 128,-1,59
 158 1152 158 1152 158 1231 c 0,60,61
 158 1361 158 1361 258 1440.5 c 128,-1,62
 358 1520 358 1520 524 1520 c 0,63,64
 602 1520 602 1520 678 1506 c 128,-1,65
 754 1492 754 1492 829 1464 c 1,12,-1
EndSplineSet
EndChar
StartChar: dieresis
Encoding: 168 168 168
Width: 1024
Flags: W
Fore
317 1569 m 0,0,1
 365 1569 365 1569 399.5 1534.5 c 128,-1,2
 434 1500 434 1500 434 1452 c 0,3,4
 434 1401 434 1401 401 1368 c 128,-1,5
 368 1335 368 1335 317 1335 c 0,6,7
 267 1335 267 1335 234 1368 c 128,-1,8
 201 1401 201 1401 201 1452 c 0,9,10
 201 1500 201 1500 235.5 1534.5 c 128,-1,11
 270 1569 270 1569 317 1569 c 0,0,1
707 1569 m 0,12,13
 754 1569 754 1569 788.5 1534.5 c 128,-1,14
 823 1500 823 1500 823 1452 c 0,15,16
 823 1401 823 1401 790 1368 c 128,-1,17
 757 1335 757 1335 707 1335 c 0,18,19
 656 1335 656 1335 623 1368 c 128,-1,20
 590 1401 590 1401 590 1452 c 0,21,22
 590 1500 590 1500 624.5 1534.5 c 128,-1,23
 659 1569 659 1569 707 1569 c 0,12,13
EndSplineSet
Ligature: 0 1 'liga' space uni0308
EndChar
StartChar: copyright
Encoding: 169 169 169
Width: 2048
Flags: W
Fore
1376 573 m 1,0,1
 1349 442 1349 442 1258.5 371.5 c 128,-1,2
 1168 301 1168 301 1026 301 c 0,3,4
 839 301 839 301 727.5 421 c 128,-1,5
 616 541 616 541 616 741 c 0,6,7
 616 942 616 942 728.5 1063 c 128,-1,8
 841 1184 841 1184 1026 1184 c 0,9,10
 1106 1184 1106 1184 1183.5 1165.5 c 128,-1,11
 1261 1147 1261 1147 1348 1108 c 1,12,-1
 1348 895 l 1,13,-1
 1264 895 l 1,14,15
 1247 1004 1247 1004 1190 1055 c 128,-1,16
 1133 1106 1133 1106 1028 1106 c 0,17,18
 909 1106 909 1106 848.5 1014.5 c 128,-1,19
 788 923 788 923 788 741 c 0,20,21
 788 560 788 560 848 469.5 c 128,-1,22
 908 379 908 379 1026 379 c 0,23,24
 1123 379 1123 379 1179.5 426.5 c 128,-1,25
 1236 474 1236 474 1257 573 c 1,26,-1
 1376 573 l 1,0,1
1024 1485 m 0,27,28
 1176 1485 1176 1485 1307.5 1430 c 128,-1,29
 1439 1375 1439 1375 1548 1266 c 0,30,31
 1657 1157 1657 1157 1711 1026 c 128,-1,32
 1765 895 1765 895 1765 741 c 0,33,34
 1765 589 1765 589 1711 458.5 c 128,-1,35
 1657 328 1657 328 1548 219 c 0,36,37
 1439 110 1439 110 1307.5 55 c 128,-1,38
 1176 0 1176 0 1024 0 c 0,39,40
 872 0 872 0 740.5 55 c 128,-1,41
 609 110 609 110 500 219 c 0,42,43
 391 328 391 328 337 458.5 c 128,-1,44
 283 589 283 589 283 741 c 0,45,46
 283 895 283 895 337 1026 c 128,-1,47
 391 1157 391 1157 500 1266 c 0,48,49
 609 1375 609 1375 740.5 1430 c 128,-1,50
 872 1485 872 1485 1024 1485 c 0,27,28
1024 1382 m 0,51,52
 893 1382 893 1382 780 1335 c 128,-1,53
 667 1288 667 1288 573 1194 c 0,54,55
 480 1101 480 1101 432.5 986.5 c 128,-1,56
 385 872 385 872 385 741 c 0,57,58
 385 611 385 611 432.5 498 c 128,-1,59
 480 385 480 385 573 291 c 0,60,61
 667 197 667 197 780 149.5 c 128,-1,62
 893 102 893 102 1024 102 c 0,63,64
 1156 102 1156 102 1269.5 149.5 c 128,-1,65
 1383 197 1383 197 1477 291 c 0,66,67
 1570 384 1570 384 1616.5 497 c 128,-1,68
 1663 610 1663 610 1663 741 c 0,69,70
 1663 874 1663 874 1616 987.5 c 128,-1,71
 1569 1101 1569 1101 1477 1194 c 0,72,73
 1383 1288 1383 1288 1269.5 1335 c 128,-1,74
 1156 1382 1156 1382 1024 1382 c 0,51,52
EndSplineSet
EndChar
StartChar: ordfeminine
Encoding: 170 170 170
Width: 973
Flags: W
Fore
838 1219 m 2,0,-1
 838 840 l 1,1,-1
 918 840 l 1,2,-1
 918 756 l 1,3,-1
 690 756 l 1,4,-1
 690 836 l 1,5,6
 642 785 642 785 579.5 761 c 128,-1,7
 517 737 517 737 430 737 c 0,8,9
 289 737 289 737 207 802 c 128,-1,10
 125 867 125 867 125 979 c 0,11,12
 125 1093 125 1093 220 1157 c 128,-1,13
 315 1221 315 1221 485 1221 c 2,14,-1
 690 1221 l 1,15,-1
 690 1266 l 2,16,17
 690 1350 690 1350 632 1397 c 128,-1,18
 574 1444 574 1444 469 1444 c 0,19,20
 382 1444 382 1444 331 1409 c 128,-1,21
 280 1374 280 1374 266 1305 c 1,22,-1
 190 1305 l 1,23,-1
 190 1462 l 1,24,25
 267 1491 267 1491 339 1505.5 c 128,-1,26
 411 1520 411 1520 477 1520 c 0,27,28
 654 1520 654 1520 746 1443 c 128,-1,29
 838 1366 838 1366 838 1219 c 2,0,-1
690 997 m 2,30,-1
 690 1145 l 1,31,-1
 502 1145 l 2,32,33
 397 1145 397 1145 343 1105 c 128,-1,34
 289 1065 289 1065 289 987 c 0,35,36
 289 906 289 906 339.5 863.5 c 128,-1,37
 390 821 390 821 487 821 c 0,38,39
 579 821 579 821 634.5 869.5 c 128,-1,40
 690 918 690 918 690 997 c 2,30,-1
166 639 m 1,41,-1
 864 639 l 1,42,-1
 864 535 l 1,43,-1
 166 535 l 1,44,-1
 166 639 l 1,41,-1
EndSplineSet
EndChar
StartChar: guillemotleft
Encoding: 171 171 171
Width: 1253
Flags: W
Fore
1061 1059 m 1,0,-1
 1061 944 l 1,1,-1
 764 600 l 1,2,-1
 1061 256 l 1,3,-1
 1061 141 l 1,4,-1
 592 559 l 1,5,-1
 592 641 l 1,6,-1
 1061 1059 l 1,0,-1
627 1059 m 1,7,-1
 627 944 l 1,8,-1
 330 600 l 1,9,-1
 627 256 l 1,10,-1
 627 141 l 1,11,-1
 158 559 l 1,12,-1
 158 641 l 1,13,-1
 627 1059 l 1,7,-1
EndSplineSet
EndChar
StartChar: logicalnot
Encoding: 172 172 172
Width: 1716
Flags: W
Fore
217 862 m 1,0,-1
 1499 862 l 1,1,-1
 1499 287 l 1,2,-1
 1339 287 l 1,3,-1
 1339 700 l 1,4,-1
 217 700 l 1,5,-1
 217 862 l 1,0,-1
EndSplineSet
EndChar
StartChar: sfthyphen
Encoding: 173 173 173
Width: 692
Flags: W
Fore
90 627 m 1,0,-1
 602 627 l 1,1,-1
 602 471 l 1,2,-1
 90 471 l 1,3,-1
 90 627 l 1,0,-1
EndSplineSet
EndChar
StartChar: registered
Encoding: 174 174 174
Width: 2048
Flags: W
Fore
895 791 m 1,0,-1
 1020 791 l 2,1,2
 1103 791 1103 791 1144.5 829 c 128,-1,3
 1186 867 1186 867 1186 942 c 0,4,5
 1186 1016 1186 1016 1144 1054 c 128,-1,6
 1102 1092 1102 1092 1020 1092 c 2,7,-1
 895 1092 l 1,8,-1
 895 791 l 1,0,-1
1141 754 m 1,9,10
 1183 740 1183 740 1212.5 714.5 c 128,-1,11
 1242 689 1242 689 1262 649 c 2,12,-1
 1378 420 l 1,13,-1
 1454 420 l 1,14,-1
 1454 352 l 1,15,-1
 1264 352 l 1,16,-1
 1133 606 l 1,17,18
 1098 676 1098 676 1067 699.5 c 128,-1,19
 1036 723 1036 723 987 723 c 2,20,-1
 895 723 l 1,21,-1
 895 420 l 1,22,-1
 979 420 l 1,23,-1
 979 352 l 1,24,-1
 662 352 l 1,25,-1
 662 420 l 1,26,-1
 745 420 l 1,27,-1
 745 1092 l 1,28,-1
 662 1092 l 1,29,-1
 662 1159 l 1,30,-1
 1077 1159 l 2,31,32
 1205 1159 1205 1159 1270 1103 c 128,-1,33
 1335 1047 1335 1047 1335 938 c 0,34,35
 1335 855 1335 855 1287 809.5 c 128,-1,36
 1239 764 1239 764 1141 754 c 1,9,10
1024 1382 m 0,37,38
 893 1382 893 1382 780 1335 c 128,-1,39
 667 1288 667 1288 573 1194 c 0,40,41
 480 1101 480 1101 432.5 986.5 c 128,-1,42
 385 872 385 872 385 741 c 0,43,44
 385 611 385 611 432.5 498 c 128,-1,45
 480 385 480 385 573 291 c 0,46,47
 667 197 667 197 780 149.5 c 128,-1,48
 893 102 893 102 1024 102 c 0,49,50
 1156 102 1156 102 1269.5 149.5 c 128,-1,51
 1383 197 1383 197 1477 291 c 0,52,53
 1570 384 1570 384 1616.5 497 c 128,-1,54
 1663 610 1663 610 1663 741 c 0,55,56
 1663 874 1663 874 1616 987.5 c 128,-1,57
 1569 1101 1569 1101 1477 1194 c 0,58,59
 1383 1288 1383 1288 1269.5 1335 c 128,-1,60
 1156 1382 1156 1382 1024 1382 c 0,37,38
1024 1485 m 0,61,62
 1176 1485 1176 1485 1307.5 1430 c 128,-1,63
 1439 1375 1439 1375 1548 1266 c 0,64,65
 1657 1157 1657 1157 1711 1026 c 128,-1,66
 1765 895 1765 895 1765 741 c 0,67,68
 1765 589 1765 589 1711 458.5 c 128,-1,69
 1657 328 1657 328 1548 219 c 0,70,71
 1439 110 1439 110 1307.5 55 c 128,-1,72
 1176 0 1176 0 1024 0 c 0,73,74
 872 0 872 0 740.5 55 c 128,-1,75
 609 110 609 110 500 219 c 0,76,77
 391 328 391 328 337 458.5 c 128,-1,78
 283 589 283 589 283 741 c 0,79,80
 283 895 283 895 337 1026 c 128,-1,81
 391 1157 391 1157 500 1266 c 0,82,83
 609 1375 609 1375 740.5 1430 c 128,-1,84
 872 1485 872 1485 1024 1485 c 0,61,62
EndSplineSet
EndChar
StartChar: macron
Encoding: 175 175 175
Width: 1024
Flags: W
Fore
213 1526 m 1,0,-1
 811 1526 l 1,1,-1
 811 1378 l 1,2,-1
 213 1378 l 1,3,-1
 213 1526 l 1,0,-1
EndSplineSet
Ligature: 0 1 'liga' space uni0304
EndChar
StartChar: degree
Encoding: 176 176 176
Width: 1024
Flags: W
Fore
512 1382 m 0,0,1
 436 1382 436 1382 384 1329.5 c 128,-1,2
 332 1277 332 1277 332 1200 c 0,3,4
 332 1124 332 1124 383.5 1073 c 128,-1,5
 435 1022 435 1022 512 1022 c 0,6,7
 588 1022 588 1022 640 1073.5 c 128,-1,8
 692 1125 692 1125 692 1200 c 0,9,10
 692 1275 692 1275 639 1328.5 c 128,-1,11
 586 1382 586 1382 512 1382 c 0,0,1
512 1520 m 0,12,13
 576 1520 576 1520 635 1495.5 c 128,-1,14
 694 1471 694 1471 737 1425 c 1,15,16
 783 1380 783 1380 806 1323 c 128,-1,17
 829 1266 829 1266 829 1200 c 0,18,19
 829 1068 829 1068 736.5 976.5 c 128,-1,20
 644 885 644 885 510 885 c 0,21,22
 375 885 375 885 285 975 c 128,-1,23
 195 1065 195 1065 195 1200 c 0,24,25
 195 1334 195 1334 287 1427 c 128,-1,26
 379 1520 379 1520 512 1520 c 0,12,13
EndSplineSet
EndChar
StartChar: plusminus
Encoding: 177 177 177
Width: 1716
Flags: W
Fore
938 1284 m 1,0,-1
 938 893 l 1,1,-1
 1499 893 l 1,2,-1
 1499 731 l 1,3,-1
 938 731 l 1,4,-1
 938 340 l 1,5,-1
 778 340 l 1,6,-1
 778 731 l 1,7,-1
 217 731 l 1,8,-1
 217 893 l 1,9,-1
 778 893 l 1,10,-1
 778 1284 l 1,11,-1
 938 1284 l 1,0,-1
217 160 m 1,12,-1
 1499 160 l 1,13,-1
 1499 0 l 1,14,-1
 217 0 l 1,15,-1
 217 160 l 1,12,-1
EndSplineSet
EndChar
StartChar: twosuperior
Encoding: 178 178 178
Width: 821
Flags: W
Fore
170 1296 m 1,0,-1
 100 1296 l 1,1,-1
 100 1454 l 1,2,3
 166 1486 166 1486 236 1503 c 128,-1,4
 306 1520 306 1520 375 1520 c 0,5,6
 513 1520 513 1520 598.5 1454 c 128,-1,7
 684 1388 684 1388 684 1284 c 0,8,9
 684 1162 684 1162 490 988 c 2,10,-1
 471 971 l 1,11,-1
 233 756 l 1,12,-1
 618 756 l 1,13,-1
 618 864 l 1,14,-1
 692 864 l 1,15,-1
 692 668 l 1,16,-1
 90 668 l 1,17,-1
 90 743 l 1,18,-1
 375 997 l 2,19,20
 461 1074 461 1074 498 1135 c 128,-1,21
 535 1196 535 1196 535 1262 c 0,22,23
 535 1347 535 1347 486.5 1396.5 c 128,-1,24
 438 1446 438 1446 354 1446 c 0,25,26
 276 1446 276 1446 229 1408 c 128,-1,27
 182 1370 182 1370 170 1296 c 1,0,-1
EndSplineSet
EndChar
StartChar: threesuperior
Encoding: 179 179 179
Width: 821
Flags: W
Fore
125 1468 m 1,0,1
 198 1494 198 1494 265 1507 c 128,-1,2
 332 1520 332 1520 391 1520 c 0,3,4
 529 1520 529 1520 603.5 1466 c 128,-1,5
 678 1412 678 1412 678 1313 c 0,6,7
 678 1241 678 1241 625 1191 c 128,-1,8
 572 1141 572 1141 477 1124 c 1,9,10
 596 1108 596 1108 656.5 1048.5 c 128,-1,11
 717 989 717 989 717 889 c 0,12,13
 717 775 717 775 629.5 714 c 128,-1,14
 542 653 542 653 379 653 c 0,15,16
 307 653 307 653 237.5 667 c 128,-1,17
 168 681 168 681 100 709 c 1,18,-1
 100 879 l 1,19,-1
 170 878 l 1,20,21
 175 804 175 804 224 765.5 c 128,-1,22
 273 727 273 727 365 727 c 0,23,24
 459 727 459 727 510 771 c 128,-1,25
 561 815 561 815 561 897 c 0,26,27
 561 990 561 990 510 1037.5 c 128,-1,28
 459 1085 459 1085 358 1085 c 2,29,-1
 305 1085 l 1,30,-1
 305 1159 l 1,31,-1
 332 1159 l 2,32,33
 429 1159 429 1159 478.5 1196 c 128,-1,34
 528 1233 528 1233 528 1307 c 0,35,36
 528 1374 528 1374 487.5 1410 c 128,-1,37
 447 1446 447 1446 371 1446 c 0,38,39
 289 1446 289 1446 245.5 1414 c 128,-1,40
 202 1382 202 1382 195 1317 c 1,41,-1
 125 1317 l 1,42,-1
 125 1468 l 1,0,1
EndSplineSet
EndChar
StartChar: acute
Encoding: 180 180 180
Width: 1024
Flags: W
Fore
651 1638 m 1,0,-1
 850 1638 l 1,1,-1
 510 1262 l 1,2,-1
 393 1262 l 1,3,-1
 651 1638 l 1,0,-1
EndSplineSet
LCarets: 0 65535 '    ' 1 0 
Ligature: 0 1 'liga' space acutecomb
EndChar
StartChar: mu
Encoding: 181 181 181
Width: 1331
Flags: W
Fore
739 1063 m 1,0,-1
 1083 1063 l 1,1,-1
 1083 104 l 1,2,-1
 1257 104 l 1,3,-1
 1257 0 l 1,4,-1
 899 0 l 1,5,-1
 899 188 l 1,6,7
 847 82 847 82 773.5 26.5 c 128,-1,8
 700 -29 700 -29 610 -29 c 0,9,10
 553 -29 553 -29 506 -11 c 128,-1,11
 459 7 459 7 420 43 c 1,12,-1
 420 -319 l 1,13,-1
 594 -319 l 1,14,-1
 594 -426 l 1,15,-1
 59 -426 l 1,16,-1
 59 -319 l 1,17,-1
 236 -319 l 1,18,-1
 236 956 l 1,19,-1
 70 956 l 1,20,-1
 70 1063 l 1,21,-1
 420 1063 l 1,22,-1
 420 444 l 2,23,24
 420 250 420 250 468 178 c 128,-1,25
 516 106 516 106 637 106 c 0,26,27
 765 106 765 106 832 200 c 128,-1,28
 899 294 899 294 899 473 c 2,29,-1
 899 956 l 1,30,-1
 739 956 l 1,31,-1
 739 1063 l 1,0,-1
EndSplineSet
EndChar
StartChar: paragraph
Encoding: 182 182 182
Width: 1303
Flags: W
Fore
633 1493 m 2,0,-1
 1171 1493 l 1,1,-1
 1171 1386 l 1,2,-1
 1053 1386 l 1,3,-1
 1053 -197 l 1,4,-1
 946 -197 l 1,5,-1
 946 1386 l 1,6,-1
 715 1386 l 1,7,-1
 715 -197 l 1,8,-1
 608 -197 l 1,9,-1
 608 649 l 1,10,11
 393 666 393 666 275.5 776.5 c 128,-1,12
 158 887 158 887 158 1071 c 0,13,14
 158 1261 158 1261 288 1377 c 128,-1,15
 418 1493 418 1493 633 1493 c 2,0,-1
EndSplineSet
EndChar
StartChar: periodcentered
Encoding: 183 183 183
Width: 651
Flags: W
Fore
190 711 m 0,0,1
 190 767 190 767 228.5 805.5 c 128,-1,2
 267 844 267 844 324 844 c 0,3,4
 379 844 379 844 418 805 c 128,-1,5
 457 766 457 766 457 711 c 0,6,7
 457 655 457 655 418 616.5 c 128,-1,8
 379 578 379 578 324 578 c 0,9,10
 267 578 267 578 228.5 616 c 128,-1,11
 190 654 190 654 190 711 c 0,0,1
EndSplineSet
EndChar
StartChar: cedilla
Encoding: 184 184 184
Width: 1024
Flags: W
Fore
578 0 m 1,0,1
 642 -64 642 -64 673.5 -120 c 128,-1,2
 705 -176 705 -176 705 -225 c 0,3,4
 705 -306 705 -306 642 -350.5 c 128,-1,5
 579 -395 579 -395 467 -395 c 0,6,7
 425 -395 425 -395 381 -389 c 128,-1,8
 337 -383 337 -383 291 -371 c 1,9,-1
 291 -240 l 1,10,11
 332 -257 332 -257 371.5 -265.5 c 128,-1,12
 411 -274 411 -274 446 -274 c 0,13,14
 503 -274 503 -274 536 -247.5 c 128,-1,15
 569 -221 569 -221 569 -176 c 0,16,17
 569 -148 569 -148 547 -104 c 128,-1,18
 525 -60 525 -60 481 0 c 1,19,-1
 578 0 l 1,0,1
EndSplineSet
LCarets: 0 65535 '    ' 1 0 
Ligature: 0 1 'liga' space uni0327
EndChar
StartChar: onesuperior
Encoding: 185 185 185
Width: 821
Flags: W
Fore
176 668 m 1,0,-1
 176 752 l 1,1,-1
 348 752 l 1,2,-1
 348 1386 l 1,3,-1
 147 1280 l 1,4,-1
 147 1374 l 1,5,-1
 387 1503 l 1,6,-1
 489 1503 l 1,7,-1
 489 752 l 1,8,-1
 662 752 l 1,9,-1
 662 668 l 1,10,-1
 176 668 l 1,0,-1
EndSplineSet
EndChar
StartChar: ordmasculine
Encoding: 186 186 186
Width: 963
Flags: W
Fore
481 813 m 0,0,1
 587 813 587 813 640.5 892.5 c 128,-1,2
 694 972 694 972 694 1128 c 0,3,4
 694 1284 694 1284 640 1364 c 128,-1,5
 586 1444 586 1444 481 1444 c 0,6,7
 377 1444 377 1444 322.5 1363 c 128,-1,8
 268 1282 268 1282 268 1128 c 0,9,10
 268 973 268 973 322 893 c 128,-1,11
 376 813 376 813 481 813 c 0,0,1
481 737 m 0,12,13
 306 737 306 737 200 844.5 c 128,-1,14
 94 952 94 952 94 1128 c 0,15,16
 94 1305 94 1305 200 1412.5 c 128,-1,17
 306 1520 306 1520 481 1520 c 0,18,19
 656 1520 656 1520 762 1412.5 c 128,-1,20
 868 1305 868 1305 868 1128 c 0,21,22
 868 951 868 951 762.5 844 c 128,-1,23
 657 737 657 737 481 737 c 0,12,13
137 639 m 1,24,-1
 825 639 l 1,25,-1
 825 535 l 1,26,-1
 137 535 l 1,27,-1
 137 639 l 1,24,-1
EndSplineSet
EndChar
StartChar: guillemotright
Encoding: 187 187 187
Width: 1253
Flags: W
Fore
627 1059 m 1,0,-1
 1096 641 l 1,1,-1
 1096 559 l 1,2,-1
 627 141 l 1,3,-1
 627 256 l 1,4,-1
 924 600 l 1,5,-1
 627 944 l 1,6,-1
 627 1059 l 1,0,-1
193 1059 m 1,7,-1
 662 641 l 1,8,-1
 662 559 l 1,9,-1
 193 141 l 1,10,-1
 193 256 l 1,11,-1
 489 600 l 1,12,-1
 193 944 l 1,13,-1
 193 1059 l 1,7,-1
EndSplineSet
EndChar
StartChar: questiondown
Encoding: 191 191 191
Width: 1098
Flags: W
Fore
778 1389 m 0,0,1
 778 1333 778 1333 739.5 1294 c 128,-1,2
 701 1255 701 1255 645 1255 c 0,3,4
 590 1255 590 1255 551 1294 c 128,-1,5
 512 1333 512 1333 512 1389 c 0,6,7
 512 1444 512 1444 551 1483 c 128,-1,8
 590 1522 590 1522 645 1522 c 0,9,10
 702 1522 702 1522 740 1483.5 c 128,-1,11
 778 1445 778 1445 778 1389 c 0,0,1
999 66 m 1,12,13
 893 19 893 19 798 -4 c 128,-1,14
 703 -27 703 -27 618 -27 c 0,15,16
 397 -27 397 -27 268 80 c 128,-1,17
 139 187 139 187 139 369 c 0,18,19
 139 555 139 555 250 673 c 128,-1,20
 361 791 361 791 584 842 c 1,21,-1
 584 1096 l 1,22,-1
 707 1096 l 1,23,-1
 707 768 l 1,24,25
 530 725 530 725 440 624 c 128,-1,26
 350 523 350 523 350 367 c 0,27,28
 350 230 350 230 423.5 151 c 128,-1,29
 497 72 497 72 623 72 c 0,30,31
 736 72 736 72 809 137.5 c 128,-1,32
 882 203 882 203 903 326 c 1,33,-1
 999 326 l 1,34,-1
 999 66 l 1,12,13
EndSplineSet
EndChar
StartChar: Aring
Encoding: 197 197 197
Width: 1479
Flags: W
Fore
887 1626 m 0,0,1
 887 1689 887 1689 842.5 1733.5 c 128,-1,2
 798 1778 798 1778 735 1778 c 0,3,4
 671 1778 671 1778 627.5 1734.5 c 128,-1,5
 584 1691 584 1691 584 1626 c 0,6,7
 584 1563 584 1563 627.5 1519 c 128,-1,8
 671 1475 671 1475 735 1475 c 0,9,10
 798 1475 798 1475 842.5 1519 c 128,-1,11
 887 1563 887 1563 887 1626 c 0,0,1
410 541 m 1,12,-1
 956 541 l 1,13,-1
 684 1251 l 1,14,-1
 410 541 l 1,12,-1
-12 0 m 1,15,-1
 -12 106 l 1,16,-1
 119 106 l 1,17,-1
 608 1384 l 1,18,19
 536 1421 536 1421 498.5 1482 c 128,-1,20
 461 1543 461 1543 461 1626 c 0,21,22
 461 1740 461 1740 541 1820.5 c 128,-1,23
 621 1901 621 1901 735 1901 c 0,24,25
 849 1901 849 1901 929.5 1820.5 c 128,-1,26
 1010 1740 1010 1740 1010 1626 c 0,27,28
 1010 1546 1010 1546 971 1482.5 c 128,-1,29
 932 1419 932 1419 860 1384 c 1,30,-1
 1352 106 l 1,31,-1
 1499 106 l 1,32,-1
 1499 0 l 1,33,-1
 956 0 l 1,34,-1
 956 106 l 1,35,-1
 1122 106 l 1,36,-1
 997 434 l 1,37,-1
 369 434 l 1,38,-1
 244 106 l 1,39,-1
 408 106 l 1,40,-1
 408 0 l 1,41,-1
 -12 0 l 1,15,-1
EndSplineSet
Ligature: 0 0 'liga' A uni030A
EndChar
StartChar: AE
Encoding: 198 198 198
Width: 2050
Flags: W
Fore
426 541 m 1,0,-1
 915 541 l 1,1,-1
 915 1386 l 1,2,-1
 815 1386 l 1,3,-1
 426 541 l 1,0,-1
725 0 m 1,4,-1
 725 106 l 1,5,-1
 915 106 l 1,6,-1
 915 434 l 1,7,-1
 377 434 l 1,8,-1
 225 106 l 1,9,-1
 389 106 l 1,10,-1
 389 0 l 1,11,-1
 -35 0 l 1,12,-1
 -35 106 l 1,13,-1
 96 106 l 1,14,-1
 686 1386 l 1,15,-1
 471 1386 l 1,16,-1
 471 1493 l 1,17,-1
 1927 1493 l 1,18,-1
 1927 1161 l 1,19,-1
 1804 1161 l 1,20,-1
 1804 1370 l 1,21,-1
 1116 1370 l 1,22,-1
 1116 870 l 1,23,-1
 1608 870 l 1,24,-1
 1608 1057 l 1,25,-1
 1731 1057 l 1,26,-1
 1731 561 l 1,27,-1
 1608 561 l 1,28,-1
 1608 748 l 1,29,-1
 1116 748 l 1,30,-1
 1116 123 l 1,31,-1
 1821 123 l 1,32,-1
 1821 332 l 1,33,-1
 1944 332 l 1,34,-1
 1944 0 l 1,35,-1
 725 0 l 1,4,-1
EndSplineSet
KernsSLIFO: 45 38 0 0
EndChar
StartChar: Eth
Encoding: 208 208 208
Width: 1653
Flags: W
Fore
514 106 m 1,0,-1
 702 106 l 2,1,2
 993 106 993 106 1149 272 c 128,-1,3
 1305 438 1305 438 1305 748 c 0,4,5
 1305 1058 1305 1058 1149.5 1222 c 128,-1,6
 994 1386 994 1386 702 1386 c 2,7,-1
 514 1386 l 1,8,-1
 514 844 l 1,9,-1
 850 844 l 1,10,-1
 850 719 l 1,11,-1
 514 719 l 1,12,-1
 514 106 l 1,0,-1
123 0 m 1,13,-1
 123 106 l 1,14,-1
 313 106 l 1,15,-1
 313 719 l 1,16,-1
 113 719 l 1,17,-1
 113 844 l 1,18,-1
 313 844 l 1,19,-1
 313 1386 l 1,20,-1
 123 1386 l 1,21,-1
 123 1493 l 1,22,-1
 717 1493 l 2,23,24
 1103 1493 1103 1493 1318.5 1296 c 128,-1,25
 1534 1099 1534 1099 1534 748 c 0,26,27
 1534 396 1534 396 1318 198 c 128,-1,28
 1102 0 1102 0 717 0 c 2,29,-1
 123 0 l 1,13,-1
EndSplineSet
KernsSLIFO: 221 -36 0 0 193 -36 0 0 194 -36 0 0 376 -36 0 0 195 -36 0 0 192 -36 0 0 196 -36 0 0 89 -36 0 0 86 -36 0 0 65 -36 0 0 46 -73 0 0 45 75 0 0 44 -73 0 0
EndChar
StartChar: multiply
Encoding: 215 215 215
Width: 1716
Flags: W
Fore
1434 1104 m 1,0,-1
 971 641 l 1,1,-1
 1434 180 l 1,2,-1
 1319 68 l 1,3,-1
 858 528 l 1,4,-1
 397 68 l 1,5,-1
 283 180 l 1,6,-1
 743 641 l 1,7,-1
 283 1104 l 1,8,-1
 397 1217 l 1,9,-1
 858 756 l 1,10,-1
 1319 1217 l 1,11,-1
 1434 1104 l 1,0,-1
EndSplineSet
EndChar
StartChar: Oslash
Encoding: 216 216 216
Width: 1679
Flags: W
Fore
1214 1239 m 1,0,1
 1149 1327 1149 1327 1056.5 1370 c 128,-1,2
 964 1413 964 1413 840 1413 c 0,3,4
 594 1413 594 1413 469 1244.5 c 128,-1,5
 344 1076 344 1076 344 745 c 0,6,7
 344 626 344 626 360 529.5 c 128,-1,8
 376 433 376 433 410 352 c 1,9,-1
 1214 1239 l 1,0,1
463 256 m 1,10,11
 527 167 527 167 621 122.5 c 128,-1,12
 715 78 715 78 840 78 c 0,13,14
 1085 78 1085 78 1210 246.5 c 128,-1,15
 1335 415 1335 415 1335 745 c 0,16,17
 1335 862 1335 862 1318.5 960.5 c 128,-1,18
 1302 1059 1302 1059 1268 1141 c 1,19,-1
 463 256 l 1,10,11
1391 1276 m 1,20,21
 1478 1168 1478 1168 1521.5 1036.5 c 128,-1,22
 1565 905 1565 905 1565 745 c 0,23,24
 1565 400 1565 400 1364.5 185.5 c 128,-1,25
 1164 -29 1164 -29 840 -29 c 0,26,27
 699 -29 699 -29 580 14 c 128,-1,28
 461 57 461 57 360 143 c 1,29,-1
 178 -57 l 1,30,-1
 100 12 l 1,31,-1
 287 219 l 1,32,33
 200 324 200 324 157.5 454.5 c 128,-1,34
 115 585 115 585 115 745 c 0,35,36
 115 1091 115 1091 316 1305.5 c 128,-1,37
 517 1520 517 1520 840 1520 c 0,38,39
 981 1520 981 1520 1101 1477.5 c 128,-1,40
 1221 1435 1221 1435 1317 1352 c 1,41,-1
 1495 1550 l 1,42,-1
 1575 1479 l 1,43,-1
 1391 1276 l 1,20,21
EndSplineSet
KernsSLIFO: 88 -36 0 0 86 -36 0 0 46 -120 0 0 45 75 0 0 44 -120 0 0
EndChar
StartChar: Thorn
Encoding: 222 222 222
Width: 1384
Flags: W
Fore
506 434 m 1,0,-1
 770 434 l 2,1,2
 919 434 919 434 997 514.5 c 128,-1,3
 1075 595 1075 595 1075 748 c 0,4,5
 1075 900 1075 900 997 980.5 c 128,-1,6
 919 1061 919 1061 770 1061 c 2,7,-1
 506 1061 l 1,8,-1
 506 434 l 1,0,-1
113 0 m 1,9,-1
 113 106 l 1,10,-1
 303 106 l 1,11,-1
 303 1386 l 1,12,-1
 113 1386 l 1,13,-1
 113 1493 l 1,14,-1
 737 1493 l 1,15,-1
 737 1386 l 1,16,-1
 506 1386 l 1,17,-1
 506 1167 l 1,18,-1
 819 1167 l 2,19,20
 1043 1167 1043 1167 1174 1053.5 c 128,-1,21
 1305 940 1305 940 1305 748 c 0,22,23
 1305 554 1305 554 1173.5 440 c 128,-1,24
 1042 326 1042 326 819 326 c 2,25,-1
 506 326 l 1,26,-1
 506 106 l 1,27,-1
 737 106 l 1,28,-1
 737 0 l 1,29,-1
 113 0 l 1,9,-1
EndSplineSet
KernsSLIFO: 46 -339 0 0 45 38 0 0 44 -339 0 0
EndChar
StartChar: germandbls
Encoding: 223 223 223
Width: 1368
Flags: W
Fore
940 1210 m 1,0,1
 932 1329 932 1329 862.5 1393.5 c 128,-1,2
 793 1458 793 1458 674 1458 c 0,3,4
 542 1458 542 1458 481 1393.5 c 128,-1,5
 420 1329 420 1329 420 1190 c 2,6,-1
 420 0 l 1,7,-1
 59 0 l 1,8,-1
 59 106 l 1,9,-1
 236 106 l 1,10,-1
 236 1186 l 2,11,12
 236 1362 236 1362 350.5 1459 c 128,-1,13
 465 1556 465 1556 674 1556 c 0,14,15
 887 1556 887 1556 998.5 1452 c 128,-1,16
 1110 1348 1110 1348 1122 1137 c 1,17,-1
 1100 1137 l 2,18,19
 955 1137 955 1137 871.5 1083 c 128,-1,20
 788 1029 788 1029 788 936 c 0,21,22
 788 884 788 884 815 845.5 c 128,-1,23
 842 807 842 807 915 760 c 1,24,-1
 1004 705 l 1,25,26
 1159 606 1159 606 1218.5 521 c 128,-1,27
 1278 436 1278 436 1278 322 c 0,28,29
 1278 167 1278 167 1162.5 69 c 128,-1,30
 1047 -29 1047 -29 862 -29 c 0,31,32
 777 -29 777 -29 693 -10.5 c 128,-1,33
 609 8 609 8 530 43 c 1,34,-1
 530 276 l 1,35,-1
 639 276 l 1,36,37
 643 175 643 175 698.5 122.5 c 128,-1,38
 754 70 754 70 856 70 c 0,39,40
 967 70 967 70 1030.5 130.5 c 128,-1,41
 1094 191 1094 191 1094 295 c 0,42,43
 1094 379 1094 379 1054 437.5 c 128,-1,44
 1014 496 1014 496 897 569 c 2,45,-1
 811 623 l 2,46,47
 707 688 707 688 662.5 752.5 c 128,-1,48
 618 817 618 817 618 899 c 0,49,50
 618 1021 618 1021 702.5 1103 c 128,-1,51
 787 1185 787 1185 940 1210 c 1,0,1
EndSplineSet
EndChar
StartChar: ae
Encoding: 230 230 230
Width: 1925
Flags: W
Fore
815 334 m 2,0,-1
 815 559 l 1,1,-1
 578 559 l 2,2,3
 441 559 441 559 374 500 c 128,-1,4
 307 441 307 441 307 319 c 0,5,6
 307 208 307 208 375 143 c 128,-1,7
 443 78 443 78 559 78 c 0,8,9
 674 78 674 78 744.5 149 c 128,-1,10
 815 220 815 220 815 334 c 2,0,-1
924 150 m 1,11,12
 841 59 841 59 740 15 c 128,-1,13
 639 -29 639 -29 514 -29 c 0,14,15
 317 -29 317 -29 209.5 62 c 128,-1,16
 102 153 102 153 102 319 c 0,17,18
 102 484 102 484 221.5 575 c 128,-1,19
 341 666 341 666 557 666 c 2,20,-1
 815 666 l 1,21,-1
 815 739 l 2,22,23
 815 859 815 859 743 926 c 128,-1,24
 671 993 671 993 543 993 c 0,25,26
 427 993 427 993 361 943.5 c 128,-1,27
 295 894 295 894 279 795 c 1,28,-1
 184 795 l 1,29,-1
 184 1010 l 1,30,31
 280 1051 280 1051 370.5 1071.5 c 128,-1,32
 461 1092 461 1092 547 1092 c 0,33,34
 688 1092 688 1092 784.5 1048.5 c 128,-1,35
 881 1005 881 1005 936 915 c 1,36,37
 1010 1003 1010 1003 1106 1047.5 c 128,-1,38
 1202 1092 1202 1092 1319 1092 c 0,39,40
 1560 1092 1560 1092 1689 943 c 128,-1,41
 1818 794 1818 794 1822 512 c 1,42,-1
 1030 512 l 1,43,-1
 1030 504 l 2,44,45
 1030 289 1030 289 1110.5 179.5 c 128,-1,46
 1191 70 1191 70 1350 70 c 0,47,48
 1471 70 1471 70 1548.5 133.5 c 128,-1,49
 1626 197 1626 197 1657 322 c 1,50,-1
 1804 322 l 1,51,52
 1761 147 1761 147 1642 59 c 128,-1,53
 1523 -29 1523 -29 1331 -29 c 0,54,55
 1209 -29 1209 -29 1105.5 16.5 c 128,-1,56
 1002 62 1002 62 924 150 c 1,11,12
1606 618 m 1,57,58
 1600 804 1600 804 1527.5 898.5 c 128,-1,59
 1455 993 1455 993 1319 993 c 0,60,61
 1192 993 1192 993 1118.5 898 c 128,-1,62
 1045 803 1045 803 1030 618 c 1,63,-1
 1606 618 l 1,57,58
EndSplineSet
EndChar
StartChar: eth
Encoding: 240 240 240
Width: 1233
Flags: W
Fore
821 928 m 1,0,1
 776 937 776 937 735.5 941.5 c 128,-1,2
 695 946 695 946 655 946 c 0,3,4
 482 946 482 946 399.5 839 c 128,-1,5
 317 732 317 732 317 508 c 0,6,7
 317 298 317 298 395.5 184 c 128,-1,8
 474 70 474 70 616 70 c 0,9,10
 760 70 760 70 837.5 184.5 c 128,-1,11
 915 299 915 299 915 512 c 0,12,13
 915 624 915 624 891.5 729.5 c 128,-1,14
 868 835 868 835 821 928 c 1,0,1
760 1307 m 1,15,16
 943 1140 943 1140 1036.5 944.5 c 128,-1,17
 1130 749 1130 749 1130 532 c 0,18,19
 1130 278 1130 278 989.5 124.5 c 128,-1,20
 849 -29 849 -29 616 -29 c 0,21,22
 387 -29 387 -29 244.5 122.5 c 128,-1,23
 102 274 102 274 102 518 c 0,24,25
 102 754 102 754 243 899 c 128,-1,26
 384 1044 384 1044 612 1044 c 0,27,28
 647 1044 647 1044 684.5 1041 c 128,-1,29
 722 1038 722 1038 774 1030 c 1,30,31
 752 1083 752 1083 715.5 1136.5 c 128,-1,32
 679 1190 679 1190 629 1245 c 1,33,-1
 307 1096 l 1,34,-1
 270 1174 l 1,35,-1
 563 1309 l 1,36,37
 502 1367 502 1367 423.5 1407.5 c 128,-1,38
 345 1448 345 1448 250 1470 c 1,39,-1
 268 1556 l 1,40,41
 387 1530 387 1530 491.5 1483 c 128,-1,42
 596 1436 596 1436 688 1368 c 1,43,-1
 1010 1518 l 1,44,-1
 1047 1440 l 1,45,-1
 760 1307 l 1,15,16
EndSplineSet
KernsSLIFO: 46 -36 0 0
EndChar
StartChar: divide
Encoding: 247 247 247
Width: 1716
Flags: W
Fore
725 1012 m 0,0,1
 725 1068 725 1068 763.5 1106.5 c 128,-1,2
 802 1145 802 1145 858 1145 c 0,3,4
 913 1145 913 1145 952 1106 c 128,-1,5
 991 1067 991 1067 991 1012 c 0,6,7
 991 956 991 956 952 917.5 c 128,-1,8
 913 879 913 879 858 879 c 0,9,10
 801 879 801 879 763 917 c 128,-1,11
 725 955 725 955 725 1012 c 0,0,1
725 272 m 0,12,13
 725 328 725 328 763.5 367 c 128,-1,14
 802 406 802 406 858 406 c 0,15,16
 913 406 913 406 952 367 c 128,-1,17
 991 328 991 328 991 272 c 0,18,19
 991 217 991 217 952 178 c 128,-1,20
 913 139 913 139 858 139 c 0,21,22
 801 139 801 139 763 177.5 c 128,-1,23
 725 216 725 216 725 272 c 0,12,13
217 723 m 1,24,-1
 1499 723 l 1,25,-1
 1499 561 l 1,26,-1
 217 561 l 1,27,-1
 217 723 l 1,24,-1
EndSplineSet
EndChar
StartChar: oslash
Encoding: 248 248 248
Width: 1233
Flags: W
Fore
840 879 m 1,0,1
 802 936 802 936 746 964.5 c 128,-1,2
 690 993 690 993 616 993 c 0,3,4
 469 993 469 993 393 876 c 128,-1,5
 317 759 317 759 317 532 c 0,6,7
 317 460 317 460 324.5 401 c 128,-1,8
 332 342 332 342 346 293 c 1,9,-1
 840 879 l 1,0,1
391 190 m 1,10,11
 431 129 431 129 486.5 99.5 c 128,-1,12
 542 70 542 70 616 70 c 0,13,14
 763 70 763 70 839 187.5 c 128,-1,15
 915 305 915 305 915 532 c 0,16,17
 915 608 915 608 907.5 668.5 c 128,-1,18
 900 729 900 729 885 780 c 1,19,-1
 391 190 l 1,10,11
1004 922 m 1,20,21
 1066 848 1066 848 1098 749 c 128,-1,22
 1130 650 1130 650 1130 532 c 0,23,24
 1130 278 1130 278 989.5 124.5 c 128,-1,25
 849 -29 849 -29 616 -29 c 0,26,27
 522 -29 522 -29 442 -2.5 c 128,-1,28
 362 24 362 24 295 78 c 1,29,-1
 152 -94 l 1,30,-1
 76 -31 l 1,31,-1
 225 147 l 1,32,33
 164 224 164 224 133 320.5 c 128,-1,34
 102 417 102 417 102 532 c 0,35,36
 102 786 102 786 242.5 939 c 128,-1,37
 383 1092 383 1092 616 1092 c 0,38,39
 710 1092 710 1092 790 1066.5 c 128,-1,40
 870 1041 870 1041 934 991 c 1,41,-1
 1073 1157 l 1,42,-1
 1149 1094 l 1,43,-1
 1004 922 l 1,20,21
EndSplineSet
KernsSLIFO: 46 -36 0 0
EndChar
StartChar: thorn
Encoding: 254 254 254
Width: 1311
Flags: W
Fore
420 584 m 2,0,-1
 420 479 l 2,1,2
 420 287 420 287 493.5 186.5 c 128,-1,3
 567 86 567 86 707 86 c 0,4,5
 848 86 848 86 920.5 199 c 128,-1,6
 993 312 993 312 993 532 c 0,7,8
 993 753 993 753 920.5 865 c 128,-1,9
 848 977 848 977 707 977 c 0,10,11
 567 977 567 977 493.5 876 c 128,-1,12
 420 775 420 775 420 584 c 2,0,-1
236 1450 m 1,13,-1
 59 1450 l 1,14,-1
 59 1556 l 1,15,-1
 420 1556 l 1,16,-1
 420 897 l 1,17,18
 474 997 474 997 557.5 1044.5 c 128,-1,19
 641 1092 641 1092 764 1092 c 0,20,21
 960 1092 960 1092 1084 937 c 128,-1,22
 1208 782 1208 782 1208 532 c 0,23,24
 1208 282 1208 282 1084 126.5 c 128,-1,25
 960 -29 960 -29 764 -29 c 0,26,27
 641 -29 641 -29 557.5 18.5 c 128,-1,28
 474 66 474 66 420 166 c 1,29,-1
 420 -319 l 1,30,-1
 594 -319 l 1,31,-1
 594 -426 l 1,32,-1
 59 -426 l 1,33,-1
 59 -319 l 1,34,-1
 236 -319 l 1,35,-1
 236 1450 l 1,13,-1
EndSplineSet
KernsSLIFO: 46 -102 0 0 44 -36 0 0
EndChar
StartChar: Dcroat
Encoding: 272 272 272
Width: 1653
Flags: W
Fore
514 106 m 1,0,-1
 702 106 l 2,1,2
 993 106 993 106 1149 272 c 128,-1,3
 1305 438 1305 438 1305 748 c 0,4,5
 1305 1058 1305 1058 1149.5 1222 c 128,-1,6
 994 1386 994 1386 702 1386 c 2,7,-1
 514 1386 l 1,8,-1
 514 844 l 1,9,-1
 850 844 l 1,10,-1
 850 719 l 1,11,-1
 514 719 l 1,12,-1
 514 106 l 1,0,-1
123 0 m 1,13,-1
 123 106 l 1,14,-1
 313 106 l 1,15,-1
 313 719 l 1,16,-1
 113 719 l 1,17,-1
 113 844 l 1,18,-1
 313 844 l 1,19,-1
 313 1386 l 1,20,-1
 123 1386 l 1,21,-1
 123 1493 l 1,22,-1
 717 1493 l 2,23,24
 1103 1493 1103 1493 1318.5 1296 c 128,-1,25
 1534 1099 1534 1099 1534 748 c 0,26,27
 1534 396 1534 396 1318 198 c 128,-1,28
 1102 0 1102 0 717 0 c 2,29,-1
 123 0 l 1,13,-1
EndSplineSet
KernsSLIFO: 86 -36 0 0 46 -73 0 0 45 38 0 0 44 -73 0 0
EndChar
StartChar: dcroat
Encoding: 273 273 273
Width: 1311
Flags: W
Fore
1075 106 m 1,0,-1
 1251 106 l 1,1,-1
 1251 0 l 1,2,-1
 891 0 l 1,3,-1
 891 166 l 1,4,5
 837 66 837 66 753.5 18.5 c 128,-1,6
 670 -29 670 -29 547 -29 c 0,7,8
 351 -29 351 -29 226.5 126.5 c 128,-1,9
 102 282 102 282 102 532 c 0,10,11
 102 782 102 782 226 937 c 128,-1,12
 350 1092 350 1092 547 1092 c 0,13,14
 670 1092 670 1092 753.5 1044.5 c 128,-1,15
 837 997 837 997 891 897 c 1,16,-1
 891 1227 l 1,17,-1
 565 1227 l 1,18,-1
 565 1333 l 1,19,-1
 891 1333 l 1,20,-1
 891 1450 l 1,21,-1
 717 1450 l 1,22,-1
 717 1556 l 1,23,-1
 1075 1556 l 1,24,-1
 1075 1333 l 1,25,-1
 1251 1333 l 1,26,-1
 1251 1227 l 1,27,-1
 1075 1227 l 1,28,-1
 1075 106 l 1,0,-1
891 479 m 2,29,-1
 891 584 l 2,30,31
 891 775 891 775 817.5 876 c 128,-1,32
 744 977 744 977 604 977 c 0,33,34
 462 977 462 977 389.5 865 c 128,-1,35
 317 753 317 753 317 532 c 0,36,37
 317 312 317 312 389.5 199 c 128,-1,38
 462 86 462 86 604 86 c 0,39,40
 744 86 744 86 817.5 186.5 c 128,-1,41
 891 287 891 287 891 479 c 2,29,-1
EndSplineSet
EndChar
StartChar: Hbar
Encoding: 294 294 294
Width: 1786
Flags: W
Fore
506 870 m 1,0,-1
 1280 870 l 1,1,-1
 1280 1067 l 1,2,-1
 506 1067 l 1,3,-1
 506 870 l 1,0,-1
113 0 m 1,4,-1
 113 106 l 1,5,-1
 303 106 l 1,6,-1
 303 1067 l 1,7,-1
 113 1067 l 1,8,-1
 113 1189 l 1,9,-1
 303 1189 l 1,10,-1
 303 1386 l 1,11,-1
 113 1386 l 1,12,-1
 113 1493 l 1,13,-1
 696 1493 l 1,14,-1
 696 1386 l 1,15,-1
 506 1386 l 1,16,-1
 506 1189 l 1,17,-1
 1280 1189 l 1,18,-1
 1280 1386 l 1,19,-1
 1090 1386 l 1,20,-1
 1090 1493 l 1,21,-1
 1673 1493 l 1,22,-1
 1673 1386 l 1,23,-1
 1483 1386 l 1,24,-1
 1483 1189 l 1,25,-1
 1673 1189 l 1,26,-1
 1673 1067 l 1,27,-1
 1483 1067 l 1,28,-1
 1483 106 l 1,29,-1
 1673 106 l 1,30,-1
 1673 0 l 1,31,-1
 1090 0 l 1,32,-1
 1090 106 l 1,33,-1
 1280 106 l 1,34,-1
 1280 748 l 1,35,-1
 506 748 l 1,36,-1
 506 106 l 1,37,-1
 696 106 l 1,38,-1
 696 0 l 1,39,-1
 113 0 l 1,4,-1
EndSplineSet
EndChar
StartChar: hbar
Encoding: 295 295 295
Width: 1319
Flags: W
Fore
84 0 m 1,0,-1
 84 106 l 1,1,-1
 250 106 l 1,2,-1
 250 1210 l 1,3,-1
 74 1210 l 1,4,-1
 74 1332 l 1,5,-1
 250 1332 l 1,6,-1
 250 1450 l 1,7,-1
 74 1450 l 1,8,-1
 74 1556 l 1,9,-1
 434 1556 l 1,10,-1
 434 1332 l 1,11,-1
 750 1332 l 1,12,-1
 750 1210 l 1,13,-1
 434 1210 l 1,14,-1
 434 874 l 1,15,16
 485 982 485 982 566.5 1037 c 128,-1,17
 648 1092 648 1092 756 1092 c 0,18,19
 932 1092 932 1092 1015 991 c 128,-1,20
 1098 890 1098 890 1098 676 c 2,21,-1
 1098 106 l 1,22,-1
 1262 106 l 1,23,-1
 1262 0 l 1,24,-1
 754 0 l 1,25,-1
 754 106 l 1,26,-1
 913 106 l 1,27,-1
 913 618 l 2,28,29
 913 813 913 813 865.5 884.5 c 128,-1,30
 818 956 818 956 696 956 c 0,31,32
 568 956 568 956 501 863 c 128,-1,33
 434 770 434 770 434 592 c 2,34,-1
 434 106 l 1,35,-1
 594 106 l 1,36,-1
 594 0 l 1,37,-1
 84 0 l 1,0,-1
EndSplineSet
EndChar
StartChar: dotlessi
Encoding: 305 305 305
Width: 655
Flags: W
AnchorPoint: "above" 328 1092 basechar 0
Fore
434 106 m 1,0,-1
 608 106 l 1,1,-1
 608 0 l 1,2,-1
 74 0 l 1,3,-1
 74 106 l 1,4,-1
 250 106 l 1,5,-1
 250 956 l 1,6,-1
 74 956 l 1,7,-1
 74 1063 l 1,8,-1
 434 1063 l 1,9,-1
 434 106 l 1,0,-1
EndSplineSet
EndChar
StartChar: kgreenlandic
Encoding: 312 312 312
Width: 1241
Flags: W
Fore
586 0 m 1,0,-1
 70 0 l 1,1,-1
 70 106 l 1,2,-1
 236 106 l 1,3,-1
 236 953 l 1,4,-1
 59 953 l 1,5,-1
 59 1060 l 1,6,-1
 420 1060 l 1,7,-1
 420 541 l 1,8,-1
 868 953 l 1,9,-1
 715 953 l 1,10,-1
 715 1060 l 1,11,-1
 1196 1060 l 1,12,-1
 1196 953 l 1,13,-1
 1014 953 l 1,14,-1
 698 662 l 1,15,-1
 1102 106 l 1,16,-1
 1255 106 l 1,17,-1
 1255 0 l 1,18,-1
 731 0 l 1,19,-1
 731 106 l 1,20,-1
 883 106 l 1,21,-1
 565 541 l 1,22,-1
 420 406 l 1,23,-1
 420 106 l 1,24,-1
 586 106 l 1,25,-1
 586 0 l 1,0,-1
EndSplineSet
EndChar
StartChar: Lslash
Encoding: 321 321 321
Width: 1370
Flags: W
Fore
123 0 m 1,0,-1
 123 106 l 1,1,-1
 313 106 l 1,2,-1
 313 586 l 1,3,-1
 156 473 l 1,4,-1
 86 565 l 1,5,-1
 313 727 l 1,6,-1
 313 1386 l 1,7,-1
 123 1386 l 1,8,-1
 123 1493 l 1,9,-1
 705 1493 l 1,10,-1
 705 1386 l 1,11,-1
 514 1386 l 1,12,-1
 514 870 l 1,13,-1
 821 1096 l 1,14,-1
 891 1004 l 1,15,-1
 514 729 l 1,16,-1
 514 123 l 1,17,-1
 1198 123 l 1,18,-1
 1198 373 l 1,19,-1
 1321 373 l 1,20,-1
 1321 0 l 1,21,-1
 123 0 l 1,0,-1
EndSplineSet
KernsSLIFO: 366 -36 0 0 356 -167 0 0 253 -36 0 0 221 -206 0 0 217 -36 0 0 219 -36 0 0 218 -36 0 0 376 -206 0 0 255 -36 0 0 8217 -491 0 0 8221 -491 0 0 220 -36 0 0 121 -36 0 0 89 -206 0 0 87 -178 0 0 86 -243 0 0 85 -36 0 0 84 -167 0 0
EndChar
StartChar: lslash
Encoding: 322 322 322
Width: 664
Flags: W
Fore
428 106 m 1,0,-1
 604 106 l 1,1,-1
 604 0 l 1,2,-1
 70 0 l 1,3,-1
 70 106 l 1,4,-1
 244 106 l 1,5,-1
 244 680 l 1,6,-1
 106 584 l 1,7,-1
 45 670 l 1,8,-1
 244 811 l 1,9,-1
 244 1450 l 1,10,-1
 70 1450 l 1,11,-1
 70 1556 l 1,12,-1
 428 1556 l 1,13,-1
 428 940 l 1,14,-1
 575 1038 l 1,15,-1
 635 952 l 1,16,-1
 428 811 l 1,17,-1
 428 106 l 1,0,-1
EndSplineSet
EndChar
StartChar: Eng
Encoding: 330 330 330
Width: 1792
Flags: W
AnchorPoint: "above" 871 1475 basechar 0
Fore
100 0 m 1,0,-1
 100 106 l 1,1,-1
 301 106 l 1,2,-1
 301 1386 l 1,3,-1
 100 1386 l 1,4,-1
 100 1493 l 1,5,-1
 483 1493 l 1,6,-1
 1378 315 l 1,7,-1
 1378 1386 l 1,8,-1
 1178 1386 l 1,9,-1
 1178 1493 l 1,10,-1
 1702 1493 l 1,11,-1
 1702 1386 l 1,12,-1
 1501 1386 l 1,13,-1
 1501 -29 l 2,14,15
 1501 -276 1501 -276 1437 -356.5 c 0,16,17
 1359 -455 1359 -455 1230 -455 c 0,18,19
 1114 -455 1114 -455 1048 -438 c 0,20,21
 983 -422 983 -422 921 -389 c 1,22,-1
 921 -170 l 1,23,-1
 1016 -170 l 1,24,25
 1023 -266 1023 -266 1066 -311 c 0,26,27
 1108 -356 1108 -356 1233 -356 c 0,28,29
 1297.5 -355 1297.5 -355 1340 -291.5 c 0,30,31
 1378 -235 1378 -235 1378 -29 c 1,32,-1
 424 1229 l 1,33,-1
 424 106 l 1,34,-1
 625 106 l 1,35,-1
 625 0 l 1,36,-1
 100 0 l 1,0,-1
EndSplineSet
EndChar
StartChar: eng
Encoding: 331 331 331
Width: 1319
Flags: W
AnchorPoint: "above" 594 1092 basechar 0
Fore
84 0 m 1,0,-1
 84 106 l 1,1,-1
 250 106 l 1,2,-1
 250 956 l 1,3,-1
 74 956 l 1,4,-1
 74 1063 l 1,5,-1
 434 1063 l 1,6,-1
 434 874 l 1,7,8
 485 982 485 982 566.5 1037 c 128,-1,9
 648 1092 648 1092 756 1092 c 0,10,11
 930 1092 930 1092 1015 991 c 0,12,13
 1098 892.5 1098 892.5 1098 676 c 2,14,-1
 1098 -104 l 2,15,16
 1098 -268 1098 -268 1000.5 -361.5 c 128,-1,17
 903 -455 903 -455 732 -455 c 0,18,19
 660 -455 660 -455 594.5 -438.5 c 128,-1,20
 529 -422 529 -422 467 -389 c 1,21,-1
 467 -170 l 1,22,-1
 562 -170 l 1,23,24
 569 -266 569 -266 611.5 -311 c 128,-1,25
 654 -356 654 -356 736 -356 c 0,26,27
 827 -356 827 -356 870.5 -294.5 c 0,28,29
 913 -234.5 913 -234.5 913 -104 c 2,30,-1
 913 618 l 2,31,32
 913 813 913 813 865 885.5 c 128,-1,33
 817 958 817 958 696 958 c 0,34,35
 568 958 568 958 501 864.5 c 128,-1,36
 434 771 434 771 434 592 c 2,37,-1
 434 106 l 1,38,-1
 594 106 l 1,39,-1
 594 0 l 1,40,-1
 84 0 l 1,0,-1
EndSplineSet
EndChar
StartChar: OE
Encoding: 338 338 338
Width: 2329
Flags: W
Fore
1137 106 m 1,0,-1
 1137 1386 l 1,1,-1
 950 1386 l 2,2,3
 658 1386 658 1386 503 1222 c 128,-1,4
 348 1058 348 1058 348 750 c 0,5,6
 348 439 348 439 503.5 272.5 c 128,-1,7
 659 106 659 106 950 106 c 2,8,-1
 1137 106 l 1,0,-1
2165 0 m 1,9,-1
 936 0 l 2,10,11
 551 0 551 0 335 198 c 128,-1,12
 119 396 119 396 119 750 c 0,13,14
 119 1101 119 1101 334.5 1297 c 128,-1,15
 550 1493 550 1493 936 1493 c 2,16,-1
 2148 1493 l 1,17,-1
 2148 1161 l 1,18,-1
 2025 1161 l 1,19,-1
 2025 1370 l 1,20,-1
 1339 1370 l 1,21,-1
 1339 870 l 1,22,-1
 1831 870 l 1,23,-1
 1831 1057 l 1,24,-1
 1952 1057 l 1,25,-1
 1952 561 l 1,26,-1
 1831 561 l 1,27,-1
 1831 748 l 1,28,-1
 1339 748 l 1,29,-1
 1339 123 l 1,30,-1
 2042 123 l 1,31,-1
 2042 332 l 1,32,-1
 2165 332 l 1,33,-1
 2165 0 l 1,9,-1
EndSplineSet
KernsSLIFO: 45 38 0 0
EndChar
StartChar: oe
Encoding: 339 339 339
Width: 2025
Flags: W
Fore
616 70 m 0,0,1
 764 70 764 70 839.5 187 c 128,-1,2
 915 304 915 304 915 532 c 0,3,4
 915 760 915 760 839.5 876.5 c 128,-1,5
 764 993 764 993 616 993 c 0,6,7
 468 993 468 993 392.5 876.5 c 128,-1,8
 317 760 317 760 317 532 c 0,9,10
 317 304 317 304 393 187 c 128,-1,11
 469 70 469 70 616 70 c 0,0,1
1923 512 m 1,12,-1
 1130 512 l 1,13,-1
 1130 504 l 2,14,15
 1130 289 1130 289 1211 179.5 c 128,-1,16
 1292 70 1292 70 1450 70 c 0,17,18
 1571 70 1571 70 1648.5 133.5 c 128,-1,19
 1726 197 1726 197 1757 322 c 1,20,-1
 1905 322 l 1,21,22
 1861 147 1861 147 1742.5 59 c 128,-1,23
 1624 -29 1624 -29 1432 -29 c 0,24,25
 1302 -29 1302 -29 1198.5 20 c 128,-1,26
 1095 69 1095 69 1022 166 c 1,27,28
 953 70 953 70 849.5 20.5 c 128,-1,29
 746 -29 746 -29 616 -29 c 0,30,31
 384 -29 384 -29 243 124.5 c 128,-1,32
 102 278 102 278 102 532 c 0,33,34
 102 786 102 786 242.5 939 c 128,-1,35
 383 1092 383 1092 616 1092 c 0,36,37
 748 1092 748 1092 851 1042.5 c 128,-1,38
 954 993 954 993 1024 897 c 1,39,40
 1097 993 1097 993 1197 1042.5 c 128,-1,41
 1297 1092 1297 1092 1419 1092 c 0,42,43
 1661 1092 1661 1092 1789.5 943.5 c 128,-1,44
 1918 795 1918 795 1923 512 c 1,12,-1
1706 618 m 1,45,46
 1700 804 1700 804 1627.5 898.5 c 128,-1,47
 1555 993 1555 993 1419 993 c 0,48,49
 1292 993 1292 993 1219 898 c 128,-1,50
 1146 803 1146 803 1130 618 c 1,51,-1
 1706 618 l 1,45,46
EndSplineSet
EndChar
StartChar: Tbar
Encoding: 358 358 358
Width: 1366
Flags: W
TeX: 0 0 0 0
Fore
391 0 m 1,0,-1
 391 106 l 1,1,-1
 582 106 l 1,2,-1
 582 628 l 1,3,-1
 317 628 l 1,4,-1
 317 798 l 1,5,-1
 582 798 l 1,6,-1
 582 1374 l 1,7,-1
 143 1374 l 1,8,-1
 143 1141 l 1,9,-1
 20 1141 l 1,10,-1
 20 1493 l 1,11,-1
 1346 1493 l 1,12,-1
 1346 1141 l 1,13,-1
 1223 1141 l 1,14,-1
 1223 1374 l 1,15,-1
 784 1374 l 1,16,-1
 784 798 l 1,17,-1
 1050 798 l 1,18,-1
 1050 628 l 1,19,-1
 784 628 l 1,20,-1
 784 106 l 1,21,-1
 975 106 l 1,22,-1
 975 0 l 1,23,-1
 391 0 l 1,0,-1
EndSplineSet
EndChar
StartChar: tbar
Encoding: 359 359 359
Width: 823
Flags: W
TeX: 0 0 0 0
Fore
221 956 m 1,0,-1
 59 956 l 1,1,-1
 59 1063 l 1,2,-1
 221 1063 l 1,3,-1
 221 1393 l 1,4,-1
 406 1393 l 1,5,-1
 406 1063 l 1,6,-1
 752 1063 l 1,7,-1
 752 956 l 1,8,-1
 406 956 l 1,9,-1
 406 723 l 1,10,-1
 596 723 l 1,11,-1
 596 581 l 1,12,-1
 406 581 l 1,13,-1
 406 281 l 2,14,15
 406 146 406 146 432 108 c 128,-1,16
 458 70 458 70 528 70 c 0,17,18
 600 70 600 70 633 112 c 0,19,20
 666 155 666 155 668 250 c 1,21,-1
 807 250 l 1,22,23
 799 105 799 105 728 38 c 128,-1,24
 657 -29 657 -29 512 -29 c 0,25,26
 353 -29 353 -29 287 42 c 0,27,28
 221 112 221 112 221 281 c 2,29,-1
 221 581 l 1,30,-1
 86 581 l 1,31,-1
 86 723 l 1,32,-1
 221 723 l 1,33,-1
 221 956 l 1,0,-1
EndSplineSet
EndChar
StartChar: longs
Encoding: 383 383 383
Width: 758
Flags: W
TeX: 0 0 0 0
Fore
434 106 m 1,0,-1
 670 106 l 1,1,-1
 670 0 l 1,2,-1
 74 0 l 1,3,-1
 74 106 l 1,4,-1
 250 106 l 1,5,-1
 250 956 l 1,6,-1
 74 956 l 1,7,-1
 74 1063 l 1,8,-1
 250 1063 l 1,9,-1
 250 1196 l 2,10,11
 250 1374 250 1374 342.5 1465 c 128,-1,12
 435 1556 435 1556 614 1556 c 0,13,14
 681 1556 681 1556 748 1544 c 128,-1,15
 815 1532 815 1532 881 1507 c 1,16,-1
 881 1305 l 1,17,-1
 784 1305 l 1,18,19
 783 1380 783 1380 741.5 1419 c 128,-1,20
 700 1458 700 1458 621 1458 c 0,21,22
 518 1458 518 1458 476 1401.5 c 0,23,24
 434 1343.2 434 1343.2 434 1200 c 2,25,-1
 434 106 l 1,0,-1
EndSplineSet
EndChar
StartChar: uni0186
Encoding: 390 390 390
Width: 1567
Flags: W
TeX: 117 0 0 0
AnchorPoint: "above" 733 1465 basechar 0
Fore
115 1096 m 1,0,1
 181 1305 181 1305 336.5 1412.5 c 128,-1,2
 492 1520 492 1520 730 1520 c 0,3,4
 876 1520 876 1520 1001 1470 c 128,-1,5
 1126 1420 1126 1420 1223 1323 c 0,6,7
 1335 1211 1335 1211 1389.5 1068.5 c 128,-1,8
 1444 926 1444 926 1444 746 c 0,9,10
 1444 398 1444 398 1243 184.5 c 128,-1,11
 1042 -29 1042 -29 713 -29 c 0,12,13
 591 -29 591 -29 453 3 c 128,-1,14
 315 35 315 35 156 100 c 1,15,-1
 156 444 l 1,16,-1
 269 444 l 1,17,18
 306 256 306 256 417.5 167 c 128,-1,19
 529 78 529 78 730 78 c 0,20,21
 969 78 969 78 1092 247.5 c 128,-1,22
 1215 417 1215 417 1215 746 c 0,23,24
 1215 1074 1215 1074 1092 1243.5 c 128,-1,25
 969 1413 969 1413 730 1413 c 0,26,27
 563 1413 563 1413 455 1333.5 c 128,-1,28
 347 1254 347 1254 299 1096 c 1,29,-1
 115 1096 l 1,0,1
EndSplineSet
EndChar
StartChar: uni0190
Encoding: 400 400 400
Width: 1303
Flags: W
TeX: 117 0 0 0
AnchorPoint: "above" 701 1465 basechar 0
Fore
1108 1430 m 1,0,-1
 1108 1167 l 1,1,-1
 996 1167 l 1,2,3
 983 1293 983 1293 908.5 1357 c 128,-1,4
 834 1421 834 1421 699 1421 c 128,-1,5
 564 1421 564 1421 492 1351.5 c 128,-1,6
 420 1282 420 1282 420 1151 c 0,7,8
 420 1005 420 1005 507.5 932.5 c 128,-1,9
 595 860 595 860 770 860 c 2,10,-1
 820 860 l 1,11,-1
 820 758 l 1,12,-1
 725 758 l 2,13,14
 549 758 549 758 458 667.5 c 128,-1,15
 367 577 367 577 367 401 c 0,16,17
 367 247 367 247 455.5 158.5 c 128,-1,18
 544 70 544 70 697 70 c 0,19,20
 855 70 855 70 942 144 c 128,-1,21
 1029 218 1029 218 1039 362 c 1,22,-1
 1151 362 l 1,23,-1
 1151 72 l 1,24,25
 1041 21 1041 21 929.5 -4 c 128,-1,26
 818 -29 818 -29 701 -29 c 0,27,28
 437 -29 437 -29 296.5 82.5 c 128,-1,29
 156 194 156 194 156 403 c 0,30,31
 156 574 156 574 257.5 681.5 c 128,-1,32
 359 789 359 789 543 815 c 1,33,34
 387 847 387 847 302 937.5 c 128,-1,35
 217 1028 217 1028 217 1163 c 0,36,37
 217 1331 217 1331 340 1425.5 c 128,-1,38
 463 1520 463 1520 682 1520 c 0,39,40
 776 1520 776 1520 883.5 1497 c 128,-1,41
 991 1474 991 1474 1108 1430 c 1,0,-1
EndSplineSet
EndChar
StartChar: florin
Encoding: 402 402 402
Width: 1303
Flags: W
Fore
616 1135 m 1,0,1
 639 1321 639 1321 739.5 1420.5 c 128,-1,2
 840 1520 840 1520 1006 1520 c 0,3,4
 1057 1520 1057 1520 1116 1508.5 c 128,-1,5
 1175 1497 1175 1497 1245 1475 c 1,6,-1
 1245 1253 l 1,7,-1
 1147 1253 l 1,8,9
 1141 1339 1141 1339 1103.5 1380 c 128,-1,10
 1066 1421 1066 1421 993 1421 c 0,11,12
 913 1421 913 1421 869.5 1351.5 c 128,-1,13
 826 1282 826 1282 805 1112 c 1,14,-1
 770 821 l 1,15,-1
 1075 821 l 1,16,-1
 1075 715 l 1,17,-1
 756 715 l 1,18,-1
 664 -47 l 1,19,20
 641 -233 641 -233 539.5 -332.5 c 128,-1,21
 438 -432 438 -432 272 -432 c 0,22,23
 222 -432 222 -432 164 -421 c 128,-1,24
 106 -410 106 -410 35 -387 c 1,25,-1
 35 -166 l 1,26,-1
 133 -166 l 1,27,28
 139 -252 139 -252 176 -293 c 128,-1,29
 213 -334 213 -334 285 -334 c 0,30,31
 365 -334 365 -334 408.5 -264 c 128,-1,32
 452 -194 452 -194 473 -25 c 2,33,-1
 565 715 l 1,34,-1
 313 715 l 1,35,-1
 313 821 l 1,36,-1
 578 821 l 1,37,-1
 616 1135 l 1,0,1
EndSplineSet
EndChar
StartChar: uni0194
Encoding: 404 404 404
Width: 1458
Flags: W
TeX: 0 0 0 0
Fore
614 733 m 0,0,-1
 178 1386 l 1,1,-1
 18 1386 l 1,2,-1
 18 1493 l 1,3,-1
 610 1493 l 1,4,-1
 610 1386 l 1,5,-1
 434 1386 l 1,6,-1
 754 905 l 1,7,-1
 1083 1386 l 1,8,-1
 891 1386 l 1,9,-1
 891 1493 l 1,10,-1
 1380 1493 l 1,11,-1
 1380 1386 l 1,12,-1
 1212 1386 l 1,13,-1
 817 811 l 0,14,15
 1372 126 1372 126 1188 -44 c 0,16,17
 1032 -188 1032 -188 680 -188 c 16,18,19
 325 -188 325 -188 264 12 c 0,20,21
 208 193 208 193 614 733 c 0,0,-1
680 636 m 1,22,23
 392 258 392 258 392 56 c 24,24,25
 392 -82 392 -82 680 -82 c 16,26,27
 952 -82 952 -82 952 56 c 16,28,29
 952 268 952 268 680 636 c 1,22,23
EndSplineSet
EndChar
StartChar: dotlessj
Encoding: 567 567 567
Width: 635
Flags: W
AnchorPoint: "above" 328 1092 basechar 0
Fore
250 956 m 1,0,-1
 76 956 l 1,1,-1
 76 1063 l 1,2,-1
 434 1063 l 1,3,-1
 434 -104 l 2,4,5
 434 -268 434 -268 336.5 -361.5 c 128,-1,6
 239 -455 239 -455 68 -455 c 0,7,8
 -4 -455 -4 -455 -69.5 -438.5 c 128,-1,9
 -135 -422 -135 -422 -197 -389 c 1,10,-1
 -197 -170 l 1,11,-1
 -102 -170 l 1,12,13
 -95 -266 -95 -266 -52.5 -311 c 128,-1,14
 -10 -356 -10 -356 72 -356 c 0,15,16
 163 -356 163 -356 206.5 -294.5 c 128,-1,17
 250 -233 250 -233 250 -104 c 2,18,-1
 250 956 l 1,0,-1
EndSplineSet
EndChar
StartChar: uni0250
Encoding: 592 592 592
Width: 1221
Flags: W
Fore
450 729 m 2,0,-1
 450 504 l 1,1,-1
 687 504 l 2,2,3
 824 504 824 504 891 563 c 128,-1,4
 958 622 958 622 958 744 c 0,5,6
 958 855 958 855 890 920 c 128,-1,7
 822 985 822 985 706 985 c 0,8,9
 591 985 591 985 520 914 c 0,10,11
 450 843 450 843 450 729 c 2,0,-1
266 399 m 2,12,-1
 266 957 l 1,13,-1
 102 957 l 1,14,-1
 102 1063 l 1,15,-1
 450 1063 l 1,16,-1
 450 948 l 1,17,18
 511 1022 511 1022 591 1057 c 128,-1,19
 671 1092 671 1092 778 1092 c 0,20,21
 955 1092 955 1092 1059 998 c 128,-1,22
 1163 904 1163 904 1163 744 c 0,23,24
 1163 579 1163 579 1044 488 c 128,-1,25
 925 397 925 397 708 397 c 2,26,-1
 450 397 l 1,27,-1
 450 324 l 2,28,29
 450 203 450 203 524 136 c 0,30,31
 597 70 597 70 730 70 c 0,32,33
 840 70 840 70 905 120 c 128,-1,34
 970 170 970 170 986 268 c 1,35,-1
 1081 268 l 1,36,-1
 1081 53 l 1,37,38
 985 12 985 12 894 -8 c 0,39,40
 804 -29 804 -29 718 -29 c 0,41,42
 497 -29 497 -29 382 80 c 0,43,44
 266 190 266 190 266 399 c 2,12,-1
EndSplineSet
EndChar
StartChar: uni0251
Encoding: 593 593 593
Width: 1311
Flags: W
TeX: 0 0 0 0
AnchorPoint: "above" 569 1092 basechar 0
Fore
891 897 m 8,0,-1
 891 1063 l 1,1,-1
 1251 1063 l 1,2,-1
 1251 956 l 1,3,-1
 1075 956 l 1,4,-1
 1075 106 l 17,5,-1
 1251 106 l 1,6,-1
 1251 0 l 1,7,-1
 891 0 l 1,8,-1
 891 166 l 1,9,10
 837 66 837 66 754 18 c 0,11,12
 670 -29 670 -29 547 -29 c 0,13,14
 351 -29 351 -29 226 126 c 0,15,16
 102 282 102 282 102 532 c 128,-1,17
 102 782 102 782 226 937 c 128,-1,18
 350 1092 350 1092 547 1092 c 0,19,20
 670 1092 670 1092 754 1044 c 0,21,22
 837 997 837 997 891 897 c 8,0,-1
891 479 m 2,23,-1
 891 584 l 2,24,25
 891 775 891 775 818 876 c 0,26,27
 744 977 744 977 604 977 c 0,28,29
 462 977 462 977 390 865 c 0,30,31
 317 753 317 753 317 532 c 0,32,33
 317 312 317 312 390 199 c 0,34,35
 462 86 462 86 604 86 c 0,36,37
 744 86 744 86 818 186 c 0,38,39
 891 287 891 287 891 479 c 2,23,-1
EndSplineSet
EndChar
StartChar: uni0252
Encoding: 594 594 594
Width: 1311
Flags: W
TeX: 0 0 0 0
AnchorPoint: "above" 789 1092 basechar 0
Fore
462 166 m 8,0,-1
 462 0 l 1,1,-1
 102 0 l 1,2,-1
 102 107 l 1,3,-1
 278 107 l 1,4,-1
 278 957 l 17,5,-1
 102 957 l 1,6,-1
 102 1063 l 1,7,-1
 462 1063 l 1,8,-1
 462 897 l 1,9,10
 516 997 516 997 600 1044 c 0,11,12
 683 1092 683 1092 806 1092 c 0,13,14
 1002 1092 1002 1092 1126 936 c 0,15,16
 1251 781 1251 781 1251 531 c 128,-1,17
 1251 281 1251 281 1127 126 c 128,-1,18
 1003 -29 1003 -29 806 -29 c 0,19,20
 683 -29 683 -29 600 18 c 0,21,22
 516 66 516 66 462 166 c 8,0,-1
462 584 m 2,23,-1
 462 479 l 2,24,25
 462 288 462 288 536 187 c 0,26,27
 609 86 609 86 749 86 c 0,28,29
 891 86 891 86 964 198 c 0,30,31
 1036 310 1036 310 1036 531 c 0,32,33
 1036 751 1036 751 964 864 c 0,34,35
 891 977 891 977 749 977 c 0,36,37
 609 977 609 977 536 876 c 0,38,39
 462 776 462 776 462 584 c 2,23,-1
EndSplineSet
EndChar
StartChar: uni0253
Encoding: 595 595 595
Width: 1311
Flags: W
TeX: 0 0 0 0
Fore
421 966 m 1,0,-1
 420 897 l 1,1,2
 474 997 474 997 558 1044 c 0,3,4
 641 1092 641 1092 764 1092 c 0,5,6
 960 1092 960 1092 1084 937 c 128,-1,7
 1208 782 1208 782 1208 532 c 128,-1,8
 1208 282 1208 282 1084 126 c 0,9,10
 960 -29 960 -29 764 -29 c 0,11,12
 641 -29 641 -29 558 18 c 0,13,14
 474 66 474 66 420 166 c 1,15,-1
 420 0 l 1,16,-1
 59 0 l 1,17,-1
 59 106 l 1,18,-1
 236 106 l 1,19,-1
 236 973 l 1,20,-1
 236 1205 l 2,21,22
 236 1369 236 1369 334 1462 c 0,23,24
 431 1556 431 1556 602 1556 c 0,25,26
 674 1556 674 1556 740 1540 c 0,27,28
 805 1523 805 1523 867 1490 c 1,29,-1
 867 1271 l 1,30,-1
 772 1271 l 1,31,32
 765 1367 765 1367 722 1412 c 0,33,34
 680 1457 680 1457 598 1457 c 0,35,36
 507 1457 507 1457 464 1396 c 0,37,38
 421 1337 421 1337 421 1205 c 2,39,-1
 421 966 l 1,0,-1
420 479 m 2,40,41
 420 287 420 287 494 186 c 0,42,43
 567 86 567 86 707 86 c 0,44,45
 848 86 848 86 920 199 c 0,46,47
 993 312 993 312 993 532 c 0,48,49
 993 753 993 753 920 865 c 0,50,51
 848 977 848 977 707 977 c 0,52,53
 567 977 567 977 494 876 c 0,54,55
 420 775 420 775 420 584 c 2,56,-1
 420 479 l 2,40,41
EndSplineSet
EndChar
StartChar: uni0254
Encoding: 596 596 596
Width: 1147
Flags: W
AnchorPoint: "above" 552 1092 basechar 0
Fore
102 744 m 1,0,1
 141 914 141 914 252 1003 c 128,-1,2
 363 1092 363 1092 539 1092 c 0,3,4
 771 1092 771 1092 912 939 c 0,5,6
 1053 785 1053 785 1053 531 c 0,7,8
 1053 276 1053 276 912 123 c 0,9,10
 771 -29 771 -29 539 -29 c 0,11,12
 438 -29 438 -29 338 -5 c 0,13,14
 238 18 238 18 137 66 c 1,15,-1
 137 338 l 1,16,-1
 244 338 l 1,17,18
 265 198 265 198 336 134 c 0,19,20
 406 70 406 70 537 70 c 0,21,22
 686 70 686 70 762 185 c 0,23,24
 838 301 838 301 838 531 c 128,-1,25
 838 761 838 761 762 877 c 0,26,27
 687 993 687 993 537 993 c 0,28,29
 418 993 418 993 347 931 c 128,-1,30
 276 869 276 869 250 744 c 1,31,-1
 102 744 l 1,0,1
EndSplineSet
EndChar
StartChar: uni0255
Encoding: 597 597 597
Width: 1147
Flags: W
TeX: 0 0 0 0
AnchorPoint: "above" 616 1092 basechar 0
Fore
412 164 m 1,0,1
 480 70 480 70 618 70 c 0,2,3
 777 68 777 68 777 177 c 0,4,5
 777 301 777 301 666 300 c 0,6,7
 486 298 486 298 412 164 c 1,0,1
353 268 m 1,8,9
 478 400 478 400 735 400 c 0,10,11
 1000 400 1000 400 995 170 c 0,12,13
 991 -29 991 -29 616 -29 c 0,14,15
 463 -29 463 -29 356 42 c 1,16,17
 347 10 347 10 348 -75 c 1,18,-1
 348 -219 l 1,19,-1
 234 -219 l 1,20,-1
 235 -75 l 1,21,22
 238 26 238 26 262 105 c 1,23,24
 252 115 252 115 243 124 c 0,25,26
 102 278 102 278 102 532 c 0,27,28
 102 787 102 787 243 940 c 0,29,30
 384 1092 384 1092 616 1092 c 0,31,32
 717 1092 717 1092 817 1068 c 0,33,34
 917 1045 917 1045 1018 997 c 1,35,-1
 1018 725 l 1,36,-1
 911 725 l 1,37,38
 890 865 890 865 820 929 c 0,39,40
 749 993 749 993 618 993 c 0,41,42
 469 993 469 993 393 878 c 0,43,44
 317 762 317 762 317 532 c 0,45,46
 317 373 317 373 353 268 c 1,8,9
EndSplineSet
EndChar
StartChar: uni0256
Encoding: 598 598 598
Width: 1325
Flags: W
TeX: 0 0 0 0
Fore
1076 -104 m 2,0,1
 1076 -234 1076 -234 1118 -294 c 0,2,3
 1162 -356 1162 -356 1253 -356 c 0,4,5
 1335 -356 1335 -356 1378 -311 c 0,6,7
 1420 -266 1420 -266 1427 -170 c 1,8,-1
 1522 -170 l 1,9,-1
 1522 -389 l 1,10,11
 1460 -422 1460 -422 1394 -438 c 0,12,13
 1329 -455 1329 -455 1257 -455 c 0,14,15
 1086 -455 1086 -455 988 -362 c 0,16,17
 891 -268 891 -268 891 -104 c 2,18,-1
 891 128 l 1,19,-1
 891 166 l 1,20,21
 837 66 837 66 754 18 c 0,22,23
 670 -29 670 -29 547 -29 c 0,24,25
 351 -29 351 -29 226 126 c 0,26,27
 102 282 102 282 102 532 c 128,-1,28
 102 782 102 782 226 937 c 128,-1,29
 350 1092 350 1092 547 1092 c 0,30,31
 670 1092 670 1092 754 1044 c 0,32,33
 837 997 837 997 891 897 c 1,34,-1
 891 1450 l 1,35,-1
 717 1450 l 1,36,-1
 717 1556 l 1,37,-1
 1075 1556 l 1,38,39
 1075.78 726.283 1075.78 726.283 1076 -104 c 2,0,1
891 479 m 2,40,-1
 891 584 l 2,41,42
 891 775 891 775 818 876 c 0,43,44
 744 977 744 977 604 977 c 0,45,46
 462 977 462 977 390 865 c 0,47,48
 317 753 317 753 317 532 c 0,49,50
 317 312 317 312 390 199 c 0,51,52
 462 86 462 86 604 86 c 0,53,54
 744 86 744 86 818 186 c 0,55,56
 891 287 891 287 891 479 c 2,40,-1
EndSplineSet
EndChar
StartChar: uni0257
Encoding: 599 599 599
Width: 1398
Flags: W
TeX: 0 0 0 0
Fore
890 897 m 1,1,-1
 890 1205 l 2,2,3
 890 1369 890 1369 988 1462 c 0,4,5
 1085 1556 1085 1556 1256 1556 c 0,6,7
 1328 1556 1328 1556 1394 1540 c 0,8,9
 1459 1523 1459 1523 1521 1490 c 1,10,-1
 1521 1271 l 1,11,-1
 1426 1271 l 1,12,13
 1419 1367 1419 1367 1376 1412 c 0,14,15
 1334 1457 1334 1457 1252 1457 c 0,16,17
 1161 1457 1161 1457 1118 1396 c 0,18,19
 1075 1337 1075 1337 1075 1205 c 2,20,-1
 1075 106 l 1,21,-1
 1251 106 l 1,22,-1
 1251 0 l 1,23,-1
 891 0 l 1,24,-1
 891 166 l 1,25,26
 837 66 837 66 754 18 c 0,27,28
 670 -29 670 -29 547 -29 c 0,29,30
 351 -29 351 -29 226 126 c 0,31,32
 102 282 102 282 102 532 c 128,-1,33
 102 782 102 782 226 937 c 128,-1,34
 350 1092 350 1092 547 1092 c 0,35,36
 670 1092 670 1092 754 1044 c 0,37,38
 836 997 836 997 890 897 c 1,1,-1
891 479 m 2,39,-1
 891 584 l 2,40,41
 891 775 891 775 818 876 c 0,42,43
 744 977 744 977 604 977 c 0,44,45
 462 977 462 977 390 865 c 0,46,47
 317 753 317 753 317 532 c 0,48,49
 317 312 317 312 390 199 c 0,50,51
 462 86 462 86 604 86 c 0,52,53
 744 86 744 86 818 186 c 0,54,55
 891 287 891 287 891 479 c 2,39,-1
EndSplineSet
EndChar
StartChar: uni0258
Encoding: 600 600 600
Width: 1212
Flags: W
AnchorPoint: "above" 616 1092 basechar 0
Fore
102 512 m 1,0,1
 107 795 107 795 236 944 c 0,2,3
 365 1092 365 1092 606 1092 c 0,4,5
 832 1092 832 1092 971 938 c 128,-1,6
 1110 784 1110 784 1110 532 c 0,7,8
 1110 278 1110 278 968 124 c 0,9,10
 827 -29 827 -29 594 -29 c 0,11,12
 401 -29 401 -29 282 59 c 0,13,14
 164 147 164 147 120 322 c 1,15,-1
 268 322 l 1,16,17
 299 197 299 197 376 134 c 0,18,19
 454 70 454 70 575 70 c 0,20,21
 733 70 733 70 814 180 c 0,22,23
 895 289 895 289 895 504 c 2,24,-1
 895 512 l 1,25,-1
 102 512 l 1,0,1
319 618 m 1,26,-1
 895 618 l 1,27,28
 879 803 879 803 806 898 c 128,-1,29
 733 993 733 993 606 993 c 0,30,31
 470 993 470 993 398 898 c 0,32,33
 325 804 325 804 319 618 c 1,26,-1
EndSplineSet
EndChar
StartChar: uni0259
Encoding: 601 601 601
Width: 1212
Flags: W
AnchorPoint: "above" 616 1092 basechar 0
Fore
102 551 m 1,0,-1
 895 551 l 1,1,-1
 895 559 l 2,2,3
 895 774 895 774 814 884 c 0,4,5
 733 993 733 993 575 993 c 0,6,7
 454 993 454 993 376 930 c 0,8,9
 299 866 299 866 268 741 c 1,10,-1
 120 741 l 1,11,12
 164 916 164 916 282 1004 c 0,13,14
 401 1092 401 1092 594 1092 c 0,15,16
 827 1092 827 1092 968 938 c 0,17,18
 1110 785 1110 785 1110 531 c 0,19,20
 1110 279 1110 279 971 125 c 128,-1,21
 832 -29 832 -29 606 -29 c 0,22,23
 365 -29 365 -29 236 120 c 0,24,25
 107 268 107 268 102 551 c 1,0,-1
319 445 m 1,26,27
 325 259 325 259 398 164 c 0,28,29
 470 70 470 70 606 70 c 0,30,31
 733 70 733 70 806 165 c 128,-1,32
 879 260 879 260 895 445 c 1,33,-1
 319 445 l 1,26,27
EndSplineSet
EndChar
StartChar: uni025A
Encoding: 602 602 602
Width: 1727
Flags: W
TeX: 0 0 0 0
AnchorPoint: "above" 616 1092 basechar 0
Fore
1775.28 757 m 1,0,-1
 1850 679 l 1,1,2
 1773.08 631.119 1773.08 631.119 1770 630 c 0,3,4
 1723.25 613 1723.25 613 1628.16 613 c 0,5,6
 1514.52 613 1514.52 613 1418.9 706 c 0,7,8
 1335.3 787.302 1335.3 787.302 1323.67 919.215 c 1,9,-1
 1069.26 773.096 l 1,10,11
 1110 665.938 1110 665.938 1110 531 c 0,12,13
 1110 279 1110 279 971 125 c 128,-1,14
 832 -29 832 -29 606 -29 c 0,15,16
 363.713 -29 363.713 -29 236 120 c 0,17,18
 135.028 237.8 135.028 237.8 121.715 350 c 1,19,-1
 866.136 778.271 l 1,20,21
 846.647 839.664 846.647 839.664 814 884 c 0,22,23
 732.999 993 732.999 993 575 993 c 0,24,25
 454 993 454 993 376 930 c 0,26,27
 299.562 868.26 299.562 868.26 268 741 c 1,28,-1
 120 741 l 1,29,30
 164.002 916.001 164.002 916.001 282 1004 c 0,31,32
 401.002 1092 401.002 1092 594 1092 c 0,33,34
 826.999 1092 826.999 1092 968 938 c 0,35,36
 998.118 905.105 998.118 905.105 1021.85 867.854 c 1,37,-1
 1295 1025 l 1,38,-1
 1408.62 1025 l 1,39,-1
 1408.62 964 l 2,40,41
 1408.62 833.006 1408.62 833.006 1474.14 774 c 0,42,43
 1542.78 712 1542.78 712 1625 712 c 0,44,45
 1763.33 712 1763.33 712 1775.28 757 c 1,0,-1
888.853 669.484 m 1,47,-1
 332 349.664 l 1,48,49
 333.816 249.134 333.816 249.134 398 164 c 0,50,51
 470.001 70 470.001 70 606 70 c 0,52,53
 739.637 70 739.637 70 806 165 c 0,54,55
 870.505 257.339 870.505 257.339 895 531 c 1,56,-1
 895 559 l 2,57,58
 895 618.226 895 618.226 888.853 669.484 c 1,47,-1
EndSplineSet
EndChar
StartChar: uni025B
Encoding: 603 603 603
Width: 1042
Flags: W
TeX: 0 0 0 0
AnchorPoint: "above" 532 1092 basechar 0
Fore
539 -36 m 0,0,1
 314 -36 314 -36 208 41 c 128,-1,2
 102 118 102 118 102 259 c 0,3,4
 102 362 102 362 177 433 c 0,5,6
 253 504 253 504 388 528 c 1,7,8
 253 552 253 552 177 624 c 0,9,10
 102 695 102 695 102 797 c 0,11,12
 102 938 102 938 208 1015 c 128,-1,13
 314 1092 314 1092 511 1092 c 0,14,15
 595 1092 595 1092 690 1073 c 0,16,17
 785 1055 785 1055 889 1018 c 1,18,-1
 889 803 l 1,19,-1
 790 803 l 1,20,21
 780 896 780 896 718 941 c 0,22,23
 656 987 656 987 539 987 c 0,24,25
 431 987 431 987 373 935 c 0,26,27
 316 884 316 884 316 789 c 0,28,29
 316 683 316 683 386 631 c 0,30,31
 457 578 457 578 595 578 c 2,32,-1
 633 578 l 1,33,-1
 633 478 l 17,34,-1
 595 478 l 2,35,36
 457 478 457 478 386 426 c 0,37,38
 316 373 316 373 316 268 c 0,39,40
 316 172 316 172 373 121 c 0,41,42
 430 71 430 71 539 70 c 0,43,44
 654 69 654 69 716 115 c 128,-1,45
 778 161 778 161 798 285 c 1,46,-1
 948 285 l 1,47,48
 926 156 926 156 835 59 c 0,49,50
 746 -36 746 -36 539 -36 c 0,0,1
EndSplineSet
EndChar
StartChar: uni025C
Encoding: 604 604 604
Width: 1042
Flags: W
TeX: 0 0 0 0
AnchorPoint: "above" 556 1092 basechar 0
Fore
511 -36 m 0,0,1
 304 -36 304 -36 215 59 c 0,2,3
 124 156 124 156 102 285 c 1,4,-1
 252 285 l 1,5,6
 272 161 272 161 334 115 c 128,-1,7
 396 69 396 69 511 70 c 0,8,9
 620 71 620 71 677 121 c 0,10,11
 734 172 734 172 734 268 c 0,12,13
 734 373 734 373 664 426 c 0,14,15
 593 478 593 478 455 478 c 2,16,-1
 417 478 l 9,17,-1
 417 578 l 1,18,-1
 455 578 l 2,19,20
 593 578 593 578 664 631 c 0,21,22
 734 683 734 683 734 789 c 0,23,24
 734 884 734 884 677 935 c 0,25,26
 619 987 619 987 511 987 c 0,27,28
 394 987 394 987 332 941 c 0,29,30
 270 896 270 896 260 803 c 1,31,-1
 161 803 l 1,32,-1
 161 1018 l 1,33,34
 265 1055 265 1055 360 1073 c 0,35,36
 455 1092 455 1092 539 1092 c 0,37,38
 736 1092 736 1092 842 1015 c 128,-1,39
 948 938 948 938 948 797 c 0,40,41
 948 695 948 695 873 624 c 0,42,43
 797 552 797 552 662 528 c 1,44,45
 797 504 797 504 873 433 c 0,46,47
 948 362 948 362 948 259 c 0,48,49
 948 118 948 118 842 41 c 128,-1,50
 736 -36 736 -36 511 -36 c 0,0,1
EndSplineSet
EndChar
StartChar: uni025D
Encoding: 605 605 605
Width: 1583
Flags: W
TeX: 0 0 0 0
AnchorPoint: "above" 556 1092 basechar 0
Fore
511 -36 m 0,0,1
 304 -36 304 -36 215 59 c 0,2,3
 123.999 156.001 123.999 156.001 102 285 c 1,4,-1
 252 285 l 1,5,6
 272.002 160.997 272.002 160.997 334 115 c 0,7,8
 396.001 69.001 396.001 69.001 511 70 c 0,9,10
 620 70.999 620 70.999 677 121 c 0,11,12
 734 172 734 172 734 268 c 0,13,14
 734 372.998 734 372.998 664 426 c 0,15,16
 592.998 478 592.998 478 455 478 c 2,17,-1
 417 478 l 1,18,-1
 417 578 l 1,19,-1
 455 578 l 2,20,21
 593 578 593 578 664 631 c 0,22,23
 734 683 734 683 734 789 c 0,24,25
 734 884 734 884 677 935 c 0,26,27
 619 987 619 987 511 987 c 0,28,29
 394.002 987 394.002 987 332 941 c 0,30,31
 269.999 896 269.999 896 260 803 c 1,32,-1
 161 803 l 1,33,-1
 161 1018 l 1,34,35
 265.009 1055 265.009 1055 360 1073 c 0,36,37
 455.006 1092 455.006 1092 539 1092 c 0,38,39
 736.002 1092 736.002 1092 842 1015 c 0,40,41
 938.514 944.889 938.514 944.889 947.151 821.722 c 1,42,-1
 1151.33 1025 l 1,43,-1
 1264.95 1025 l 1,44,-1
 1264.95 964 l 2,45,46
 1264.95 833.003 1264.95 833.003 1330.47 774 c 0,47,48
 1399.11 712 1399.11 712 1481.33 712 c 0,49,50
 1619.66 712 1619.66 712 1631.61 757 c 1,51,-1
 1706.33 679 l 1,52,53
 1629.41 631.119 1629.41 631.119 1626.33 630 c 0,54,55
 1579.58 613 1579.58 613 1484.49 613 c 0,56,57
 1370.85 613 1370.85 613 1275.23 706 c 0,58,59
 1191.63 787.302 1191.63 787.302 1180 919.215 c 1,60,-1
 888.497 639.889 l 1,61,62
 881.196 631.759 881.196 631.759 873 624 c 0,63,64
 865.998 617.367 865.998 617.367 858.496 611.141 c 2,65,-1
 850 603 l 1,66,-1
 850 604.345 l 1,67,68
 777.65 548.56 777.65 548.56 662 528 c 1,69,70
 797.003 504 797.003 504 873 433 c 0,71,72
 948 361.999 948 361.999 948 259 c 0,73,74
 948 118.002 948 118.002 842 41 c 0,75,76
 736.002 -36 736.002 -36 511 -36 c 0,0,1
EndSplineSet
EndChar
StartChar: uni025E
Encoding: 606 606 606
Width: 1256
Flags: W
TeX: 0 0 0 0
Fore
726 987 m 0,0,1
 714 987 714 987 626 969 c 0,2,3
 585 960 585 960 514 923 c 0,4,5
 274 800 274 800 274 525 c 0,6,7
 274 266 274 266 514 127 c 0,8,9
 530 111 530 111 626 81 c 0,10,11
 664 70 664 70 726 70 c 0,12,13
 834 70 834 70 892 121 c 0,14,15
 949 172 949 172 949 268 c 0,16,17
 949 373 949 373 879 426 c 0,18,19
 808 478 808 478 670 478 c 2,20,-1
 632 478 l 9,21,-1
 632 578 l 1,22,-1
 670 578 l 2,23,24
 808 578 808 578 879 631 c 0,25,26
 949 683 949 683 949 789 c 0,27,28
 949 884 949 884 892 935 c 0,29,30
 834 987 834 987 726 987 c 0,0,1
443 38 m 0,31,32
 102 189 102 189 102 528 c 0,33,34
 102 836 102 836 443 1018 c 0,35,36
 501 1049 501 1049 602 1074 c 0,37,38
 680 1092 680 1092 754 1092 c 0,39,40
 950 1092 950 1092 1057 1015 c 0,41,42
 1163 938 1163 938 1163 797 c 0,43,44
 1163 695 1163 695 1088 624 c 0,45,46
 1012 552 1012 552 877 528 c 1,47,48
 1012 504 1012 504 1088 433 c 0,49,50
 1163 362 1163 362 1163 259 c 0,51,52
 1163 118 1163 118 1057 41 c 128,-1,53
 951 -36 951 -36 754 -36 c 0,54,55
 714 -36 714 -36 602 -17 c 0,56,57
 547 -12 547 -12 443 38 c 0,31,32
EndSplineSet
EndChar
StartChar: uni025F
Encoding: 607 607 607
Width: 645
Flags: W
Fore
250 956 m 1,0,-1
 76 956 l 1,1,-1
 76 1063 l 1,2,-1
 434 1063 l 1,3,-1
 434 107 l 1,4,-1
 435 107 l 1,5,-1
 598 107 l 1,6,-1
 598 0 l 1,7,-1
 434 -2.60347e-14 l 1,8,-1
 434 -104 l 2,9,10
 434 -268.002 434 -268.002 336 -362 c 0,11,12
 239.001 -455 239.001 -455 68 -455 c 0,13,14
 -4.00379 -455 -4.00379 -455 -70 -438 c 0,15,16
 -134.994 -422.003 -134.994 -422.003 -197 -389 c 1,17,-1
 -197 -170 l 1,18,-1
 -102 -170 l 1,19,20
 -95.0011 -265.998 -95.0011 -265.998 -52 -311 c 0,21,22
 -10 -356 -10 -356 72 -356 c 0,23,24
 163.002 -356 163.002 -356 206 -294 c 0,25,26
 250 -233.002 250 -233.002 250 -104 c 2,27,-1
 250 0 l 1,28,-1
 0 0 l 1,29,-1
 0 107 l 1,30,-1
 250 107 l 1,31,-1
 250 956 l 1,0,-1
EndSplineSet
EndChar
StartChar: uni0260
Encoding: 608 608 608
Width: 1399
Flags: W
TeX: 0 0 0 0
Fore
891 584 m 17,0,-1
 892 956 l 1,1,-1
 604 956 l 1,2,3
 462 956 462 956 389.5 844 c 128,-1,4
 317 732 317 732 317 532 c 0,5,6
 317 312 317 312 389.5 199 c 128,-1,7
 462 86 462 86 604 86 c 0,8,9
 744 86 744 86 817.5 186.5 c 128,-1,10
 891 287 891 287 891 479 c 2,11,-1
 891 584 l 17,0,-1
1075 1191 m 17,12,-1
 1075 23 l 2,13,14
 1075 -205.79 1075 -205.79 949 -330.5 c 0,15,16
 823 -455 823 -455 590 -455 c 0,17,18
 485 -455 485 -455 389 -436 c 128,-1,19
 293 -417 293 -417 205 -379 c 1,20,-1
 205 -156 l 1,21,-1
 301 -156 l 1,22,23
 319 -260 319 -260 386 -308 c 128,-1,24
 453 -356 453 -356 578 -356 c 0,25,26
 740 -356 740 -356 815.5 -264.5 c 128,-1,27
 891 -173 891 -173 891 23 c 2,28,-1
 891 166 l 1,29,30
 837 66 837 66 753.5 18.5 c 128,-1,31
 670 -29 670 -29 547 -29 c 0,32,33
 351 -29 351 -29 226.5 126.5 c 128,-1,34
 102 282 102 282 102 532 c 0,35,36
 102 753 102 753 226 908 c 128,-1,37
 350 1063 350 1063 547 1063 c 0,38,-1
 891 1063 l 9,39,-1
 891 1205 l 18,40,41
 891 1369 891 1369 988 1462 c 0,42,43
 1086 1556 1086 1556 1257 1556 c 0,44,45
 1329 1556 1329 1556 1394 1540 c 0,46,47
 1460 1523 1460 1523 1522 1490 c 1,48,-1
 1522 1271 l 1,49,-1
 1427 1271 l 1,50,51
 1420 1367 1420 1367 1378 1412 c 0,52,53
 1335 1457 1335 1457 1253 1457 c 0,54,55
 1162 1457 1162 1457 1118 1396 c 0,56,57
 1076 1336 1076 1336 1076 1205 c 9,58,-1
 1075 1191 l 17,12,-1
EndSplineSet
EndChar
StartChar: uni0261
Encoding: 609 609 609
Width: 1311
Flags: W
TeX: 0 0 0 0
Fore
547 1063 m 0,0,-1
 1251 1063 l 1,1,-1
 1251 956 l 1,2,-1
 1075 956 l 1,3,-1
 1075 23 l 2,4,5
 1075 -206 1075 -206 949 -330.5 c 128,-1,6
 823 -455 823 -455 590 -455 c 0,7,8
 485 -455 485 -455 389 -436 c 128,-1,9
 293 -417 293 -417 205 -379 c 1,10,-1
 205 -156 l 1,11,-1
 301 -156 l 1,12,13
 319 -260 319 -260 386 -308 c 128,-1,14
 453 -356 453 -356 578 -356 c 0,15,16
 740 -356 740 -356 815.5 -264.5 c 128,-1,17
 891 -173 891 -173 891 23 c 2,18,-1
 891 166 l 1,19,20
 837 66 837 66 753.5 18.5 c 128,-1,21
 670 -29 670 -29 547 -29 c 0,22,23
 351 -29 351 -29 226.5 126.5 c 128,-1,24
 102 282 102 282 102 532 c 0,25,26
 102 753 102 753 226 908 c 128,-1,27
 350 1063 350 1063 547 1063 c 0,0,-1
891 584 m 17,28,-1
 892 956 l 1,29,-1
 604 956 l 1,30,31
 462 956 462 956 389.5 844 c 128,-1,32
 317 732 317 732 317 532 c 0,33,34
 317 312 317 312 389.5 199 c 128,-1,35
 462 86 462 86 604 86 c 0,36,37
 744 86 744 86 817.5 186.5 c 128,-1,38
 891 287 891 287 891 479 c 2,39,-1
 891 584 l 17,28,-1
EndSplineSet
EndChar
StartChar: uni0262
Encoding: 610 610 610
Width: 1114
Flags: W
TeX: 0 0 0 0
Fore
618 -33 m 0,0,-1
629 57 m 0,1,-1
911 725 m 1,2,3
 882 882 882 882 820 929 c 0,4,5
 738 993 738 993 618 993 c 0,6,7
 488 993 488 993 397 872 c 0,8,9
 308 753 308 753 308 512 c 0,10,11
 308 270 308 270 400 154 c 0,12,13
 479 54 479 54 717 54 c 0,14,15
 778 54 778 54 849 84 c 0,16,17
 902 106 902 106 914 114 c 1,18,-1
 912 400 l 1,19,-1
 715 400 l 1,20,-1
 715 477 l 1,21,-1
 1054 477 l 1,22,-1
 1054 75 l 1,23,24
 961 19 961 19 853 -9 c 0,25,26
 746 -37 746 -37 624 -37 c 0,27,28
 387 -37 387 -37 244 116 c 0,29,30
 102 269 102 269 102 523 c 0,31,32
 102 778 102 778 245 931 c 0,33,34
 388 1083 388 1083 629 1083 c 0,35,36
 713 1083 713 1083 814 1061 c 0,37,38
 910 1040 910 1040 1018 997 c 1,39,-1
 1018 725 l 1,40,-1
 911 725 l 1,2,3
EndSplineSet
EndChar
StartChar: uni0263
Encoding: 611 611 611
Width: 1458
Flags: W
TeX: 0 0 0 0
Fore
614 465 m 0,0,-1
 254 960 l 1,1,-1
 94 960 l 1,2,-1
 94 1067 l 1,3,-1
 686 1067 l 1,4,-1
 686 960 l 1,5,-1
 510 960 l 1,6,-1
 754 637 l 1,7,-1
 974 956 l 1,8,-1
 782 956 l 1,9,-1
 782 1063 l 1,10,-1
 1271 1063 l 1,11,-1
 1271 956 l 1,12,-1
 1103 956 l 1,13,-1
 817 543 l 0,14,15
 1279.34 -99.992 1279.34 -99.992 1095.6 -312 c 0,16,17
 970.8 -456 970.8 -456 689.2 -456 c 16,18,19
 405.2 -456 405.2 -456 356.4 -256 c 0,20,21
 285.941 -75 285.941 -75 614 465 c 0,0,-1
680 368 m 1,22,23
 456.267 -14.328 456.267 -14.328 458.8 -212 c 24,24,25
 460.568 -350 460.568 -350 689.2 -350 c 16,26,27
 906.8 -350 906.8 -350 906.8 -212 c 16,28,29
 906.8 61.1532 906.8 61.1532 680 368 c 1,22,23
EndSplineSet
EndChar
StartChar: uni0264
Encoding: 612 612 612
Width: 1155
Flags: W
TeX: 0 0 0 0
Fore
602 883 m 1,0,1
 749.961 1087.49 749.961 1087.49 954 1086 c 8,2,3
 1001.58 1085.65 1001.58 1085.65 1032 1029 c 1,4,-1
 1032 954 l 25,5,-1
 927 954 l 25,6,-1
 927 973 l 26,7,8
 927 1020.72 927 1020.72 879 1020 c 0,9,10
 811.136 1020 811.136 1020 665 797 c 1,11,12
 1017.75 221.351 1017.75 221.351 874 74 c 0,13,14
 769.405 -31.8633 769.405 -31.8633 542 -33 c 0,15,16
 394.711 -33.8574 394.711 -33.8574 282 74 c 0,17,18
 120.943 224.464 120.943 224.464 489 744 c 1,19,20
 336.938 1015.33 336.938 1015.33 288 1017 c 0,21,22
 246 1018.44 246 1018.44 246 930 c 26,23,-1
 246 912 l 25,24,-1
 144 912 l 25,25,-1
 144 1020 l 17,26,27
 228 1086 228 1086 345 1089 c 0,28,29
 453.684 1091.79 453.684 1091.79 602 883 c 1,0,1
549 658 m 1,30,31
 361.76 391.407 361.76 391.407 363 182 c 0,32,33
 363.641 74 363.641 74 542 74 c 0,34,35
 656.085 74 656.085 74 718 178 c 0,36,37
 767.879 258.886 767.879 258.886 549 658 c 1,30,31
EndSplineSet
EndChar
StartChar: uni0265
Encoding: 613 613 613
Width: 1319
Flags: W
Fore
711 -320 m 17,0,-1
 885 -320 l 1,1,-1
 885 188 l 1,2,3
 834 82 834 82 753 26 c 0,4,5
 672 -29 672 -29 565 -29 c 0,6,7
 388 -29 388 -29 304 72 c 0,8,9
 221 172 221 172 221 387 c 2,10,-1
 221 956 l 1,11,-1
 55 956 l 1,12,-1
 55 1063 l 1,13,-1
 406 1063 l 1,14,-1
 406 444 l 2,15,16
 406 250 406 250 454 178 c 0,17,18
 501 106 501 106 623 106 c 0,19,20
 751 106 751 106 818 200 c 128,-1,21
 885 294 885 294 885 473 c 2,22,-1
 885 956 l 1,23,-1
 725 956 l 1,24,-1
 725 1063 l 1,25,-1
 1069 1063 l 1,26,-1
 1069 -320 l 1,27,-1
 1243 -320 l 1,28,-1
 1243 -426 l 1,29,-1
 885 -426 l 1,30,-1
 711 -424 l 1,31,-1
 711 -320 l 17,0,-1
EndSplineSet
EndChar
StartChar: uni0266
Encoding: 614 614 614
Width: 1319
Flags: W
Fore
435 874 m 1,0,1
 486 982 486 982 566 1037 c 0,2,3
 648 1092 648 1092 756 1092 c 0,4,5
 932 1092 932 1092 1015 991 c 128,-1,6
 1098 890 1098 890 1098 676 c 2,7,-1
 1098 106 l 1,8,-1
 1262 106 l 1,9,-1
 1262 0 l 1,10,-1
 754 0 l 1,11,-1
 754 106 l 1,12,-1
 913 106 l 1,13,-1
 913 618 l 2,14,15
 913 813 913 813 866 884 c 0,16,17
 818 956 818 956 696 956 c 0,18,19
 568 956 568 956 501 863 c 128,-1,20
 434 770 434 770 434 592 c 2,21,-1
 434 106 l 1,22,-1
 594 106 l 1,23,-1
 594 0 l 1,24,-1
 84 0 l 1,25,-1
 84 106 l 1,26,-1
 250 106 l 1,27,-1
 250 973 l 1,28,-1
 250 1205 l 2,29,30
 250 1369 250 1369 348 1462 c 0,31,32
 445 1556 445 1556 616 1556 c 0,33,34
 688 1556 688 1556 754 1540 c 0,35,36
 819 1523 819 1523 881 1490 c 1,37,-1
 881 1271 l 1,38,-1
 786 1271 l 1,39,40
 779 1367 779 1367 736 1412 c 0,41,42
 694 1457 694 1457 612 1457 c 0,43,44
 521 1457 521 1457 478 1396 c 0,45,46
 435 1339 435 1339 435 1205 c 2,47,-1
 435 874 l 1,0,1
EndSplineSet
EndChar
StartChar: uni0267
Encoding: 615 615 615
Width: 1319
Flags: W
Fore
435 874 m 1,0,1
 486 982 486 982 566 1037 c 0,2,3
 648 1092 648 1092 756 1092 c 0,4,5
 932 1092 932 1092 1015 991 c 128,-1,6
 1098 890 1098 890 1098 676 c 2,7,-1
 1098 128 l 1,8,-1
 1098 -104 l 2,9,10
 1098 -268 1098 -268 1000 -362 c 0,11,12
 903 -455 903 -455 732 -455 c 0,13,14
 660 -455 660 -455 594 -438 c 0,15,16
 529 -422 529 -422 467 -389 c 1,17,-1
 467 -170 l 1,18,-1
 562 -170 l 1,19,20
 569 -266 569 -266 612 -311 c 0,21,22
 654 -356 654 -356 736 -356 c 0,23,24
 827 -356 827 -356 870 -294 c 0,25,26
 913 -234 913 -234 913 -104 c 2,27,-1
 913 128 l 1,28,-1
 913 618 l 2,29,30
 913 813 913 813 866 884 c 0,31,32
 818 956 818 956 696 956 c 0,33,34
 568 956 568 956 501 863 c 128,-1,35
 434 770 434 770 434 592 c 2,36,-1
 434 106 l 1,37,-1
 594 106 l 1,38,-1
 594 0 l 1,39,-1
 84 0 l 1,40,-1
 84 106 l 1,41,-1
 250 106 l 1,42,-1
 250 973 l 1,43,-1
 250 1205 l 2,44,45
 250 1369 250 1369 348 1462 c 0,46,47
 445 1556 445 1556 616 1556 c 0,48,49
 688 1556 688 1556 754 1540 c 0,50,51
 819 1523 819 1523 881 1490 c 1,52,-1
 881 1271 l 1,53,-1
 786 1271 l 1,54,55
 779 1367 779 1367 736 1412 c 0,56,57
 694 1457 694 1457 612 1457 c 0,58,59
 521 1457 521 1457 478 1396 c 0,60,61
 435 1337 435 1337 435 1205 c 2,62,-1
 435 966 l 1,63,-1
 435 874 l 1,0,1
EndSplineSet
EndChar
StartChar: uni0268
Encoding: 616 616 616
Width: 655
Flags: W
Fore
434 106 m 1,0,-1
 608 106 l 1,1,-1
 608 0 l 1,2,-1
 74 0 l 1,3,-1
 74 106 l 1,4,-1
 250 106 l 1,5,-1
 250 464 l 1,6,-1
 74 464 l 1,7,-1
 74 570 l 1,8,-1
 250 570 l 1,9,-1
 250 956 l 1,10,-1
 74 956 l 1,11,-1
 74 1063 l 1,12,-1
 434 1063 l 1,13,-1
 434 570 l 1,14,-1
 608 570 l 1,15,-1
 608 464 l 1,16,-1
 434 464 l 1,17,-1
 434 106 l 1,0,-1
199 1393 m 0,18,19
 199 1439 199 1439 232 1473 c 0,20,21
 266 1507 266 1507 313 1507 c 0,22,23
 358.999 1507 358.999 1507 392 1473 c 0,24,25
 426 1439 426 1439 426 1393 c 0,26,27
 426 1346 426 1346 393 1313 c 128,-1,28
 360 1280 360 1280 313 1280 c 0,29,30
 265.999 1280 265.999 1280 232 1313 c 0,31,32
 199 1346 199 1346 199 1393 c 0,18,19
199 1393 m 0,33,34
 199 1346 199 1346 232 1313 c 0,35,36
 266 1280 266 1280 313 1280 c 128,-1,37
 360 1280 360 1280 393 1313 c 128,-1,38
 426 1346 426 1346 426 1393 c 0,39,40
 426 1439 426 1439 392 1473 c 0,41,42
 359 1507 359 1507 313 1507 c 0,43,44
 266 1507 266 1507 232 1473 c 0,45,46
 199 1439 199 1439 199 1393 c 0,33,34
EndSplineSet
EndChar
StartChar: uni0269
Encoding: 617 617 617
Width: 803
Flags: W
TeX: 0 0 0 0
Fore
249 351 m 1,0,-1
 250 956 l 1,1,-1
 74 956 l 1,2,-1
 74 1063 l 1,3,-1
 434 1063 l 1,4,-1
 434 351 l 1,5,6
 434 220 434 220 476 160 c 0,7,8
 520 99 520 99 611 99 c 1,9,-1
 611 0 l 17,10,11
 440 0 440 0 342 94 c 0,12,13
 249 183 249 183 249 351 c 1,0,-1
EndSplineSet
EndChar
StartChar: uni026A
Encoding: 618 618 618
Width: 655
Flags: W
TeX: 0 0 0 0
AnchorPoint: "above" 342 1092 basechar 0
Fore
434 106 m 1,0,-1
 608 106 l 1,1,-1
 608 0 l 1,2,-1
 74 0 l 1,3,-1
 74 106 l 1,4,-1
 250 106 l 1,5,-1
 250 956 l 1,6,-1
 74 956 l 1,7,-1
 74 1063 l 1,8,-1
 608 1063 l 1,9,-1
 608 960 l 1,10,-1
 434 960 l 1,11,-1
 434 106 l 1,0,-1
EndSplineSet
EndChar
StartChar: uni026B
Encoding: 619 619 619
Width: 779
Flags: W
Fore
491 106 m 1,0,-1
 665 106 l 1,1,-1
 665 0 l 1,2,-1
 130 0 l 1,3,-1
 130 106 l 1,4,-1
 307 106 l 1,5,-1
 307 744.45 l 1,6,7
 303.393 746.492 303.393 746.492 300 748 c 0,8,9
 283.001 756 283.001 756 264 756 c 0,10,11
 222.001 756 222.001 756 198 716 c 0,12,13
 174.001 677.002 174.001 677.002 169 601 c 1,14,-1
 73 601 l 1,15,16
 75.001 736 75.001 736 126 810 c 0,17,18
 177.001 883 177.001 883 268 883 c 0,19,20
 288.362 883 288.362 883 307 878.981 c 1,21,-1
 307 1450 l 1,22,-1
 130 1450 l 1,23,-1
 130 1556 l 1,24,-1
 491 1556 l 1,25,-1
 491 743.886 l 1,26,27
 498.238 738.689 498.238 738.689 504 736 c 0,28,29
 520.999 728 520.999 728 542 728 c 0,30,31
 584.999 728 584.999 728 609 768 c 0,32,33
 633.001 808.001 633.001 808.001 637 883 c 1,34,-1
 733 883 l 1,35,36
 730.999 748 730.999 748 680 674 c 0,37,38
 628.999 601 628.999 601 538 601 c 0,39,40
 513.224 601 513.224 601 491 606.951 c 1,41,-1
 491 106 l 1,0,-1
EndSplineSet
EndChar
StartChar: uni026C
Encoding: 620 620 620
Width: 930
Flags: W
TeX: 0 0 0 0
Fore
639 106 m 1,0,-1
 813 106 l 1,1,-1
 813 0 l 1,2,-1
 278 0 l 1,3,-1
 278 106 l 1,4,-1
 454 106 l 1,5,-1
 454 468 l 1,6,7
 74.9848 469 74.9848 469 74 664 c 0,8,9
 73 893 73 893 309 894 c 0,10,11
 396 894 396 894 455 838 c 1,12,-1
 455 1450 l 1,13,-1
 278 1450 l 1,14,-1
 278 1556 l 1,15,-1
 639 1556 l 1,16,-1
 639 564 l 1,17,-1
 883 564 l 1,18,-1
 883 465 l 1,19,-1
 639 465 l 1,20,-1
 639 106 l 1,0,-1
444 564 m 1,21,22
 423 787 423 787 351 786 c 0,23,24
 292 785 292 785 292 671 c 0,25,26
 292 566 292 566 444 564 c 1,21,22
EndSplineSet
EndChar
StartChar: uni026D
Encoding: 621 621 621
Width: 743
Flags: W
Fore
236 1450 m 1,0,-1
 59 1450 l 1,1,-1
 59 1556 l 1,2,-1
 420 1556 l 1,3,-1
 420 -104 l 2,4,5
 420 -234 420 -234 462 -294 c 0,6,7
 506 -356 506 -356 597 -356 c 0,8,9
 679 -356 679 -356 722 -311 c 0,10,11
 764 -266 764 -266 771 -170 c 1,12,-1
 866 -170 l 1,13,-1
 866 -389 l 1,14,15
 804 -422 804 -422 738 -438 c 0,16,17
 673 -455 673 -455 601 -455 c 0,18,19
 430 -455 430 -455 332 -362 c 0,20,21
 235 -268 235 -268 235 -104 c 0,22,23
 235.195 673.305 235.195 673.305 236 1450 c 1,0,-1
EndSplineSet
EndChar
StartChar: uni026E
Encoding: 622 622 622
Width: 1442
Flags: W
TeX: 0 0 0 0
Fore
814 423 m 2,0,-1
 719 423 l 1,1,-1
 719 525 l 1,2,-1
 1049 956 l 1,3,-1
 522 956 l 1,4,-1
 522 772 l 1,5,-1
 420 772 l 1,6,-1
 420 106 l 1,7,-1
 594 106 l 1,8,-1
 594 0 l 1,9,-1
 59 0 l 1,10,-1
 59 106 l 1,11,-1
 236 106 l 1,12,-1
 236 1450 l 1,13,-1
 59 1450 l 1,14,-1
 59 1556 l 1,15,-1
 420 1556 l 1,16,-1
 420 1063 l 1,17,-1
 1286 1063 l 1,18,-1
 1286 977 l 1,19,-1
 917 494 l 1,20,-1
 996 487 l 2,21,22
 1180 458 1180 458 1282 337 c 0,23,24
 1383 217 1383 217 1383 25 c 0,25,26
 1383 -209 1383 -209 1242 -334 c 0,27,28
 1102 -458 1102 -458 838 -458 c 0,29,30
 721.498 -458 721.498 -458 610 -430 c 0,31,32
 497.528 -401.755 497.528 -401.755 388 -345 c 1,33,-1
 388 -21 l 1,34,-1
 500 -21 l 1,35,36
 510 -182 510 -182 597 -265 c 0,37,38
 684 -348 684 -348 842 -348 c 0,39,40
 995 -348 995 -348 1084 -248 c 0,41,42
 1172 -149 1172 -149 1172 23 c 0,43,44
 1172 220 1172 220 1081 322 c 0,45,46
 990 423 990 423 814 423 c 2,0,-1
EndSplineSet
EndChar
StartChar: uni026F
Encoding: 623 623 623
Width: 1942
Flags: W
Fore
899 236 m 1,0,1
 846 119 846 119 764 60 c 0,2,3
 681 0 681 0 571 0 c 0,4,5
 404 0 404 0 322 104 c 0,6,7
 240 207 240 207 240 416 c 2,8,-1
 240 986 l 1,9,-1
 74 986 l 1,10,-1
 74 1092 l 1,11,-1
 424 1092 l 1,12,-1
 424 437 l 2,13,14
 424 274 424 274 472 205 c 128,-1,15
 520 136 520 136 631 136 c 0,16,17
 754 136 754 136 818 229 c 0,18,19
 883 322 883 322 883 500 c 2,20,-1
 883 986 l 1,21,-1
 723 986 l 1,22,-1
 723 1092 l 1,23,-1
 1067 1092 l 1,24,-1
 1067 430 l 2,25,26
 1067 271 1067 271 1115 204 c 0,27,28
 1163 136 1163 136 1274 136 c 0,29,30
 1397 136 1397 136 1462 229 c 0,31,32
 1526 322 1526 322 1526 500 c 2,33,-1
 1526 986 l 1,34,-1
 1366 986 l 1,35,-1
 1366 1092 l 1,36,-1
 1710 1092 l 1,37,-1
 1710 134 l 1,38,-1
 1886 134 l 1,39,-1
 1886 29 l 1,40,-1
 1526 29 l 1,41,-1
 1526 218 l 1,42,43
 1475 112 1475 112 1396 56 c 128,-1,44
 1317 0 1317 0 1217 0 c 0,45,46
 1093 0 1093 0 1010 62 c 0,47,48
 927 123 927 123 899 236 c 1,0,1
EndSplineSet
EndChar
StartChar: uni0270
Encoding: 624 624 624
Width: 1942
Flags: W
Fore
1710 -319 m 1,0,-1
 1886 -319 l 1,1,-1
 1886 -426 l 1,2,-1
 1352 -426 l 1,3,-1
 1352 -319 l 1,4,-1
 1526 -319 l 1,5,-1
 1526 218 l 1,6,7
 1475 112 1475 112 1396 56 c 128,-1,8
 1317 0 1317 0 1217 0 c 0,9,10
 1093 0 1093 0 1010 62 c 0,11,12
 927 123 927 123 899 236 c 1,13,14
 846 119 846 119 764 60 c 0,15,16
 681 0 681 0 571 0 c 0,17,18
 404 0 404 0 322 104 c 0,19,20
 240 207 240 207 240 416 c 2,21,-1
 240 986 l 1,22,-1
 74 986 l 1,23,-1
 74 1092 l 1,24,-1
 424 1092 l 1,25,-1
 424 437 l 2,26,27
 424 274 424 274 472 205 c 128,-1,28
 520 136 520 136 631 136 c 0,29,30
 754 136 754 136 818 229 c 0,31,32
 883 322 883 322 883 500 c 2,33,-1
 883 986 l 1,34,-1
 723 986 l 1,35,-1
 723 1092 l 1,36,-1
 1067 1092 l 1,37,-1
 1067 430 l 2,38,39
 1067 271 1067 271 1115 204 c 0,40,41
 1163 136 1163 136 1274 136 c 0,42,43
 1397 136 1397 136 1462 229 c 0,44,45
 1526 322 1526 322 1526 500 c 2,46,-1
 1526 986 l 1,47,-1
 1366 986 l 1,48,-1
 1366 1092 l 1,49,-1
 1710 1092 l 1,50,-1
 1710 -319 l 1,0,-1
EndSplineSet
EndChar
StartChar: uni0271
Encoding: 625 625 625
Width: 1942
Flags: W
Fore
1721 -104 m 0,0,1
 1721 -268 1721 -268 1624 -362 c 0,2,3
 1526 -455 1526 -455 1355 -455 c 0,4,5
 1283 -455 1283 -455 1218 -438 c 0,6,7
 1152.01 -422.002 1152.01 -422.002 1090 -389 c 1,8,-1
 1090 -170 l 1,9,-1
 1185 -170 l 1,10,11
 1192 -265.999 1192 -265.999 1234 -311 c 0,12,13
 1277 -356 1277 -356 1359 -356 c 0,14,15
 1450 -356 1450 -356 1494 -294 c 0,16,17
 1536 -234 1536 -234 1536 -104 c 2,18,-1
 1536 655 l 2,19,20
 1536 818 1536 818 1488 887 c 0,21,22
 1440 956 1440 956 1329 956 c 0,23,24
 1206 956 1206 956 1142 863 c 0,25,26
 1077 770.001 1077 770.001 1077 592 c 2,27,-1
 1077 106 l 1,28,-1
 1237 106 l 1,29,-1
 1237 0 l 1,30,-1
 733 0 l 1,31,-1
 733 106 l 1,32,-1
 893 106 l 1,33,-1
 893 662 l 2,34,35
 893 821.001 893 821.001 845 888 c 0,36,37
 797.001 956 797.001 956 686 956 c 0,38,39
 563.001 956 563.001 956 498 863 c 0,40,41
 434 769.999 434 769.999 434 592 c 2,42,-1
 434 106 l 1,43,-1
 594 106 l 1,44,-1
 594 0 l 1,45,-1
 84 0 l 1,46,-1
 84 106 l 1,47,-1
 250 106 l 1,48,-1
 250 958 l 1,49,-1
 74 958 l 1,50,-1
 74 1063 l 1,51,-1
 434 1063 l 1,52,-1
 434 874 l 1,53,54
 484.999 979.998 484.999 979.998 564 1036 c 0,55,56
 642.998 1092 642.998 1092 743 1092 c 0,57,58
 867 1092 867 1092 950 1030 c 0,59,60
 1033 969.001 1033 969.001 1061 856 c 1,61,62
 1114 972.999 1114 972.999 1196 1032 c 0,63,64
 1279 1092 1279 1092 1389 1092 c 0,65,66
 1556 1092 1556 1092 1638 988 c 0,67,68
 1720 885 1720 885 1720 676 c 0,69,70
 1720.95 283.482 1720.95 283.482 1721 -104 c 0,0,1
EndSplineSet
EndChar
StartChar: uni0272
Encoding: 626 626 626
Width: 1318
Flags: W
Fore
434 -104 m 0,0,1
 434 -268.002 434 -268.002 336 -362 c 0,2,3
 239.001 -455 239.001 -455 68 -455 c 0,4,5
 -4.00379 -455 -4.00379 -455 -70 -438 c 0,6,7
 -134.994 -422.003 -134.994 -422.003 -197 -389 c 1,8,-1
 -197 -170 l 1,9,-1
 -102 -170 l 1,10,11
 -95.0011 -265.998 -95.0011 -265.998 -52 -311 c 0,12,13
 -10 -356 -10 -356 72 -356 c 0,14,15
 163.002 -356 163.002 -356 206 -294 c 0,16,17
 249 -233.999 249 -233.999 249 -104 c 2,18,-1
 249 956 l 1,19,-1
 73 956 l 1,20,-1
 73 1063 l 1,21,-1
 433 1063 l 1,22,-1
 433 874 l 1,23,24
 484 982 484 982 566 1037 c 0,25,26
 647.001 1092 647.001 1092 755 1092 c 0,27,28
 931 1092 931 1092 1014 991 c 0,29,30
 1097 890 1097 890 1097 676 c 2,31,-1
 1097 106 l 1,32,-1
 1261 106 l 1,33,-1
 1261 0 l 1,34,-1
 753 0 l 1,35,-1
 753 106 l 1,36,-1
 912 106 l 1,37,-1
 912 618 l 2,38,39
 912 813.001 912 813.001 864 886 c 0,40,41
 816 958 816 958 695 958 c 0,42,43
 567 958 567 958 500 864 c 0,44,45
 433 770.999 433 770.999 433 592 c 0,46,47
 434 241.757 434 241.757 434 -104 c 0,0,1
EndSplineSet
EndChar
StartChar: uni0273
Encoding: 627 627 627
Width: 1421
Flags: W
Fore
913 618 m 2,0,1
 913 813.001 913 813.001 865 886 c 0,2,3
 817 958 817 958 696 958 c 0,4,5
 568 958 568 958 501 864 c 0,6,7
 434 770.999 434 770.999 434 592 c 2,8,-1
 434 106 l 1,9,-1
 594 106 l 1,10,-1
 594 0 l 1,11,-1
 84 0 l 1,12,-1
 84 106 l 1,13,-1
 250 106 l 1,14,-1
 250 956 l 1,15,-1
 74 956 l 1,16,-1
 74 1063 l 1,17,-1
 434 1063 l 1,18,-1
 434 874 l 1,19,20
 485.001 982.001 485.001 982.001 566 1037 c 0,21,22
 648 1092 648 1092 756 1092 c 0,23,24
 930.002 1092 930.002 1092 1015 991 c 0,25,26
 1098 892.001 1098 892.001 1098 676 c 2,27,-1
 1098 -104 l 2,28,29
 1098 -234 1098 -234 1140 -294 c 0,30,31
 1184 -356 1184 -356 1275 -356 c 0,32,33
 1357 -356 1357 -356 1400 -311 c 0,34,35
 1442 -265.999 1442 -265.999 1449 -170 c 1,36,-1
 1544 -170 l 1,37,-1
 1544 -389 l 1,38,39
 1481.99 -422.002 1481.99 -422.002 1416 -438 c 0,40,41
 1351 -455 1351 -455 1279 -455 c 0,42,43
 1108 -455 1108 -455 1010 -362 c 0,44,45
 913 -268 913 -268 913 -104 c 2,46,-1
 913 618 l 2,0,1
EndSplineSet
EndChar
StartChar: uni0274
Encoding: 628 628 628
Width: 1323
Flags: W
TeX: 0 0 0 0
Fore
84 0 m 1,0,-1
 84 106 l 1,1,-1
 223 106 l 1,2,-1
 224 983 l 1,3,-1
 85 983 l 1,4,-1
 85 1090 l 1,5,-1
 468 1090 l 1,6,-1
 938 315 l 1,7,-1
 938 983 l 1,8,-1
 738 983 l 1,9,-1
 738 1090 l 1,10,-1
 1262 1090 l 1,11,-1
 1262 983 l 1,12,-1
 1120 983 l 1,13,-1
 1119 -29 l 1,14,-1
 939 -29 l 1,15,-1
 409 826 l 1,16,-1
 408 106 l 1,17,-1
 609 106 l 1,18,-1
 609 0 l 1,19,-1
 84 0 l 1,0,-1
EndSplineSet
EndChar
StartChar: uni0275
Encoding: 629 629 629
Width: 1233
Flags: W
Fore
616 70 m 0,0,1
 764.001 70 764.001 70 840 187 c 0,2,3
 903.377 285.869 903.377 285.869 913.199 464 c 1,4,-1
 318.825 464 l 1,5,6
 328.778 285.87 328.778 285.87 393 187 c 0,7,8
 468.999 70 468.999 70 616 70 c 0,0,1
317.543 570 m 1,9,-1
 914.457 570 l 1,10,11
 908.617 769.872 908.617 769.872 840 876 c 0,12,13
 764.001 993 764.001 993 616 993 c 0,14,15
 467.999 993 467.999 993 392 876 c 0,16,17
 323.383 769.872 323.383 769.872 317.543 570 c 1,9,-1
616 -29 m 0,18,19
 384 -29 384 -29 243 124 c 0,20,21
 102 278 102 278 102 532 c 128,-1,22
 102 786 102 786 242 939 c 0,23,24
 383 1092 383 1092 616 1092 c 128,-1,25
 849 1092 849 1092 990 939 c 0,26,27
 1130 786 1130 786 1130 532 c 128,-1,28
 1130 278 1130 278 990 124 c 0,29,30
 849 -29 849 -29 616 -29 c 0,18,19
EndSplineSet
EndChar
StartChar: uni0276
Encoding: 630 630 630
Width: 1618
Flags: W
TeX: 0 0 0 0
Fore
714 948 m 18,0,1
 532 954 532 954 423 837 c 0,2,3
 319 725 319 725 319 525 c 0,4,5
 319 323 319 323 423 211 c 0,6,7
 525 100 525 100 714 98 c 2,8,-1
 742 97 l 25,9,-1
 786 106 l 25,10,-1
 786 956 l 25,11,-1
 740 947 l 25,12,-1
 714 948 l 18,0,1
1559 -0 m 1,13,-1
 684 -0 l 2,14,15
 410 -0 410 -0 256 141 c 128,-1,16
 102 282 102 282 102 534 c 0,17,18
 102 783 102 783 255 923 c 0,19,20
 409 1063 409 1063 684 1063 c 2,21,-1
 1547 1063 l 1,22,-1
 1547 826 l 1,23,-1
 1450 826 l 1,24,-1
 1451 956 l 1,25,-1
 971 956 l 1,26,-1
 971 628 l 1,27,-1
 1313 628 l 1,28,-1
 1312 752 l 1,29,-1
 1407 752 l 1,30,-1
 1407 399 l 1,31,-1
 1312 399 l 1,32,-1
 1313 522 l 1,33,-1
 971 522 l 1,34,-1
 971 106 l 1,35,-1
 1462 106 l 1,36,-1
 1462 236 l 1,37,-1
 1559 236 l 1,38,-1
 1559 -0 l 1,13,-1
EndSplineSet
EndChar
StartChar: uni0277
Encoding: 631 631 631
Width: 1326
Flags: W
TeX: 0 0 0 0
Fore
775 529 m 17,0,-1
 775 489 l 2,1,2
 775 369 775 369 809 263 c 0,3,4
 871 66 871 66 932 66 c 0,5,6
 1021 66 1021 66 1021 430 c 0,7,8
 1020 603 1020 603 965 772 c 1,9,10
 873 969 873 969 666 973 c 0,11,12
 466 977 466 977 370 772 c 1,13,14
 315 603 315 603 314 430 c 0,15,16
 314 66 314 66 403 66 c 0,17,18
 464 66 464 66 526 263 c 0,19,20
 560 369 560 369 560 489 c 2,21,-1
 560 529 l 1,22,-1
 775 529 l 17,0,-1
666 272 m 1,23,24
 642 130 642 130 571 50 c 0,25,26
 500 -29 500 -29 397 -29 c 0,27,28
 256 -29 256 -29 179 83 c 0,29,30
 102 194 102 194 102 400 c 0,31,32
 102 479 102 479 121 560 c 0,33,34
 145 666 145 666 176 727 c 0,35,36
 358 1085 358 1085 666 1085 c 0,37,38
 977 1085 977 1085 1159 727 c 0,39,40
 1190 666 1190 666 1214 560 c 0,41,42
 1233 479 1233 479 1233 400 c 0,43,44
 1233 194 1233 194 1156 83 c 0,45,46
 1079 -29 1079 -29 938 -29 c 0,47,48
 835 -29 835 -29 764 50 c 0,49,50
 693 130 693 130 666 272 c 1,23,24
EndSplineSet
EndChar
StartChar: uni0278
Encoding: 632 632 632
Width: 1233
Flags: W
TeX: 0 0 0 0
Fore
710 -320 m 1,0,-1
 884 -320 l 1,1,-1
 884 -426 l 1,2,-1
 350 -426 l 1,3,-1
 350 -320 l 1,4,-1
 526 -320 l 1,5,-1
 526 -22.7591 l 1,6,7
 355.523 1.90078 355.523 1.90078 243 124 c 0,8,9
 102 277.999 102 277.999 102 532 c 0,10,11
 102 786.001 102 786.001 242 939 c 0,12,13
 354.642 1061.23 354.642 1061.23 526 1085.81 c 1,14,-1
 526 1449 l 1,15,-1
 350 1449 l 1,16,-1
 350 1556 l 1,17,-1
 884 1556 l 1,18,-1
 884 1453 l 1,19,-1
 710 1453 l 1,20,-1
 710 1085.22 l 1,21,22
 878.675 1059.8 878.675 1059.8 990 939 c 0,23,24
 1130 786.001 1130 786.001 1130 532 c 0,25,26
 1130 277.998 1130 277.998 990 124 c 0,27,28
 878.675 3.20052 878.675 3.20052 710 -22.2231 c 1,29,-1
 710 -320 l 1,0,-1
526 82.9648 m 1,30,-1
 526 980.209 l 1,31,32
 442.87 954.314 442.87 954.314 392 876 c 0,33,34
 317 759.999 317 759.999 317 532 c 0,35,36
 317 304.001 317 304.001 393 187 c 0,37,38
 443.7 108.947 443.7 108.947 526 82.9648 c 1,30,-1
710 978.926 m 1,39,-1
 710 84.0739 l 1,40,41
 790.36 110.579 790.36 110.579 840 187 c 0,42,43
 915 304 915 304 915 532 c 0,44,45
 915 759.999 915 759.999 840 876 c 0,46,47
 790.36 952.421 790.36 952.421 710 978.926 c 1,39,-1
EndSplineSet
EndChar
StartChar: uni0279
Encoding: 633 633 633
Width: 1026
Flags: W
Fore
74 -2 m 1,0,-1
 74 264 l 1,1,-1
 180 264 l 1,2,3
 185 185 185 185 224 146 c 128,-1,4
 263 107 263 107 338 107 c 0,5,6
 474 107 474 107 546 201 c 0,7,8
 619 295 619 295 619 471 c 2,9,-1
 619 957 l 1,10,-1
 406 957 l 1,11,-1
 406 1063 l 1,12,-1
 969 1063 l 1,13,-1
 969 957 l 1,14,-1
 803 957 l 1,15,-1
 803 105 l 1,16,-1
 979 105 l 1,17,-1
 979 0 l 1,18,-1
 619 0 l 1,19,-1
 619 189 l 1,20,21
 565 78 565 78 480 24 c 0,22,23
 395 -29 395 -29 273 -29 c 0,24,25
 228 -29 228 -29 178 -22 c 0,26,27
 129 -15 129 -15 74 -2 c 1,0,-1
EndSplineSet
EndChar
StartChar: uni027A
Encoding: 634 634 634
Width: 1026
Flags: W
Fore
74 -2 m 1,0,-1
 74 264 l 1,1,-1
 180 264 l 1,2,3
 185 185 185 185 224 146 c 128,-1,4
 263 107 263 107 338 107 c 0,5,6
 471 107 471 107 546 201 c 0,7,8
 619 292 619 292 619 471 c 2,9,-1
 619 1449 l 1,10,-1
 406 1449 l 1,11,-1
 406 1555 l 1,12,-1
 969 1555 l 1,13,-1
 969 1449 l 1,14,-1
 803 1449 l 1,15,-1
 803 105 l 1,16,-1
 979 105 l 1,17,-1
 979 0 l 1,18,-1
 619 0 l 1,19,-1
 619 189 l 1,20,21
 565 78 565 78 480 24 c 0,22,23
 395 -29 395 -29 273 -29 c 0,24,25
 228 -29 228 -29 178 -22 c 0,26,27
 129 -15 129 -15 74 -2 c 1,0,-1
EndSplineSet
EndChar
StartChar: uni027B
Encoding: 635 635 635
Width: 1129
Flags: W
Fore
619 0 m 1,0,-1
 619 189 l 1,1,2
 565 78 565 78 480 24 c 0,3,4
 395 -29 395 -29 273 -29 c 0,5,6
 228 -29 228 -29 178 -22 c 0,7,8
 129 -15 129 -15 74 -2 c 1,9,-1
 74 264 l 1,10,-1
 180 264 l 1,11,12
 185 185 185 185 224 146 c 128,-1,13
 263 107 263 107 338 107 c 0,14,15
 474 107 474 107 546 201 c 0,16,17
 619 295 619 295 619 471 c 2,18,-1
 619 957 l 1,19,-1
 406 957 l 1,20,-1
 406 1063 l 1,21,-1
 969 1063 l 1,22,-1
 969 957 l 1,23,-1
 806 957 l 1,24,-1
 806 128 l 1,25,-1
 806 -104 l 2,26,27
 806 -234 806 -234 849 -294 c 0,28,29
 892 -356 892 -356 984 -356 c 0,30,31
 1066 -356 1066 -356 1108 -311 c 128,-1,32
 1150 -266 1150 -266 1158 -170 c 1,33,-1
 1252 -170 l 1,34,-1
 1252 -389 l 1,35,36
 1190 -422 1190 -422 1125 -438 c 0,37,38
 1060 -455 1060 -455 988 -455 c 0,39,40
 816 -455 816 -455 719 -362 c 0,41,42
 626 -272 626 -272 622 -104 c 2,43,-1
 619 0 l 1,0,-1
EndSplineSet
EndChar
StartChar: uni027C
Encoding: 636 636 636
Width: 979
Flags: W
Fore
979 1065 m 1,0,-1
 979 799 l 1,1,-1
 873 799 l 1,2,3
 868 878 868 878 829 917 c 128,-1,4
 790 956 790 956 715 956 c 0,5,6
 579 956 579 956 506 862 c 0,7,8
 434 768 434 768 434 592 c 2,9,-1
 434 -318 l 1,10,-1
 647 -318 l 1,11,-1
 647 -424 l 1,12,-1
 84 -424 l 1,13,-1
 84 -318 l 1,14,-1
 250 -318 l 1,15,-1
 250 958 l 1,16,-1
 74 958 l 1,17,-1
 74 1063 l 1,18,-1
 434 1063 l 1,19,-1
 434 874 l 1,20,21
 488 985 488 985 573 1038 c 0,22,23
 658 1092 658 1092 780 1092 c 0,24,25
 825 1092 825 1092 874 1085 c 0,26,27
 924 1078 924 1078 979 1065 c 1,0,-1
EndSplineSet
EndChar
StartChar: uni027D
Encoding: 637 637 637
Width: 979
Flags: W
Fore
979 1065 m 1,0,-1
 979 799 l 1,1,-1
 873 799 l 1,2,3
 868 878 868 878 829 917 c 128,-1,4
 790 956 790 956 715 956 c 0,5,6
 579 956 579 956 506 862 c 0,7,8
 434 768 434 768 434 592 c 0,9,10
 435 244 435 244 432 -104 c 2,11,12
 432 -234 432 -234 474 -294 c 0,13,14
 518 -356 518 -356 609 -356 c 0,15,16
 691 -356 691 -356 734 -311 c 0,17,18
 776 -266 776 -266 783 -170 c 1,19,-1
 878 -170 l 1,20,-1
 878 -389 l 1,21,22
 816 -422 816 -422 750 -438 c 0,23,24
 685 -455 685 -455 613 -455 c 0,25,26
 442 -455 442 -455 344 -362 c 0,27,28
 247 -268 247 -268 247 -104 c 2,29,-1
 247 0 l 1,30,31
 248 472 248 472 247 958 c 1,32,-1
 74 958 l 1,33,-1
 74 1063 l 1,34,-1
 434 1063 l 1,35,-1
 434 874 l 1,36,37
 488 985 488 985 573 1038 c 0,38,39
 658 1092 658 1092 780 1092 c 0,40,41
 825 1092 825 1092 874 1085 c 0,42,43
 924 1078 924 1078 979 1065 c 1,0,-1
EndSplineSet
EndChar
StartChar: uni027E
Encoding: 638 638 638
Width: 927
Flags: W
Fore
434 106 m 1,0,-1
 647 106 l 1,1,-1
 647 0 l 1,2,-1
 84 0 l 1,3,-1
 84 106 l 1,4,-1
 249 106 l 1,5,-1
 249 628 l 1,6,-1
 249 734 l 2,7,8
 249 898 249 898 346 992 c 0,9,10
 444 1085 444 1085 615 1085 c 0,11,12
 687 1085 687 1085 752 1068 c 0,13,14
 818 1052 818 1052 880 1019 c 1,15,-1
 880 800 l 1,16,-1
 785 800 l 1,17,18
 778 896 778 896 736 941 c 0,19,20
 693 986 693 986 611 986 c 0,21,22
 520 986 520 986 476 924 c 0,23,24
 434 864 434 864 434 734 c 2,25,-1
 434 628 l 1,26,-1
 434 106 l 1,0,-1
EndSplineSet
EndChar
StartChar: uni027F
Encoding: 639 639 639
Width: 927
Flags: W
Fore
530 106 m 1,0,-1
 530 628 l 1,1,-1
 530 734 l 2,2,3
 530 864 530 864 488 924 c 0,4,5
 444 986 444 986 353 986 c 0,6,7
 271 986 271 986 228 941 c 0,8,9
 186 896 186 896 179 800 c 1,10,-1
 84 800 l 1,11,-1
 84 1019 l 1,12,13
 146 1052 146 1052 212 1068 c 0,14,15
 277 1085 277 1085 349 1085 c 0,16,17
 520 1085 520 1085 618 992 c 0,18,19
 715 898 715 898 715 734 c 2,20,-1
 715 628 l 1,21,-1
 715 106 l 1,22,-1
 880 106 l 1,23,-1
 880 0 l 1,24,-1
 317 0 l 1,25,-1
 317 106 l 1,26,-1
 530 106 l 1,0,-1
EndSplineSet
EndChar
StartChar: uni0280
Encoding: 640 640 640
Width: 1216
Flags: W
Fore
721 528 m 1,0,1
 771 514 771 514 807 482 c 0,2,3
 843 449 843 449 871 391 c 2,4,-1
 1026 75 l 1,5,-1
 1155 75 l 1,6,-1
 1155 0 l 1,7,-1
 905 0 l 1,8,-1
 739 338 l 2,9,10
 691 436 691 436 651 465 c 128,-1,11
 611 494 611 494 542 494 c 2,12,-1
 383 494 l 1,13,-1
 383 75 l 1,14,-1
 533 75 l 1,15,-1
 533 0 l 1,16,-1
 103 0 l 1,17,-1
 103 75 l 1,18,-1
 238 75 l 1,19,-1
 238 987 l 1,20,-1
 103 987 l 1,21,-1
 103 1063 l 1,22,-1
 642 1063 l 2,23,24
 797 1063 797 1063 882 989 c 0,25,26
 966 915 966 915 966 779 c 0,27,28
 966 669 966 669 904 606 c 0,29,30
 843 543 843 543 721 528 c 1,0,1
383 570 m 1,31,-1
 593 570 l 2,32,33
 700 570 700 570 752 621 c 0,34,35
 803 672 803 672 803 779 c 128,-1,36
 803 886 803 886 752 936 c 0,37,38
 700 987 700 987 593 987 c 2,39,-1
 383 987 l 1,40,-1
 383 570 l 1,31,-1
EndSplineSet
EndChar
StartChar: uni0281
Encoding: 641 641 641
Width: 1216
Flags: W
Fore
721 535 m 1,0,1
 843 520 843 520 904 457 c 0,2,3
 966 394 966 394 966 284 c 0,4,5
 966 148 966 148 882 74 c 0,6,7
 797 0 797 0 642 0 c 2,8,-1
 103 0 l 1,9,-1
 103 76 l 1,10,-1
 238 76 l 1,11,-1
 238 988 l 1,12,-1
 103 988 l 1,13,-1
 103 1063 l 1,14,-1
 533 1063 l 1,15,-1
 533 988 l 1,16,-1
 383 988 l 1,17,-1
 383 569 l 1,18,-1
 542 569 l 2,19,20
 611 569 611 569 651 598 c 128,-1,21
 691 627 691 627 739 725 c 2,22,-1
 905 1063 l 1,23,-1
 1155 1063 l 1,24,-1
 1155 988 l 1,25,-1
 1026 988 l 1,26,-1
 871 672 l 2,27,28
 843 614 843 614 807 581 c 0,29,30
 771 549 771 549 721 535 c 1,0,1
383 493 m 1,31,-1
 383 76 l 1,32,-1
 593 76 l 2,33,34
 700 76 700 76 752 127 c 0,35,36
 803 177 803 177 803 284 c 128,-1,37
 803 391 803 391 752 442 c 0,38,39
 700 493 700 493 593 493 c 2,40,-1
 383 493 l 1,31,-1
EndSplineSet
EndChar
StartChar: uni0282
Encoding: 642 642 642
Width: 1051
Flags: W
TeX: 0 0 0 0
Fore
299 -4.22379 m 1,0,-1
 299 -104 l 2,1,2
 299 -233.999 299 -233.999 342 -294 c 0,3,4
 384.998 -356 384.998 -356 476 -356 c 0,5,6
 558 -356 558 -356 600 -311 c 0,7,8
 643.001 -265.998 643.001 -265.998 650 -170 c 1,9,-1
 745 -170 l 1,10,-1
 745 -389 l 1,11,12
 682.994 -422.003 682.994 -422.003 618 -438 c 0,13,14
 552.004 -455 552.004 -455 480 -455 c 0,15,16
 308.999 -455 308.999 -455 212 -362 c 0,17,18
 114 -268.002 114 -268.002 114 -104 c 2,19,-1
 114 128 l 1,20,-1
 115 128 l 1,21,-1
 115 307 l 1,22,-1
 221 307 l 1,23,24
 224.999 188.002 224.999 188.002 295.5 129 c 2,25,-1
 296.705 128 l 1,26,-1
 299 128 l 1,27,-1
 299 126.14 l 1,28,29
 369.385 70 369.385 70 504 70 c 0,30,31
 627.999 70 627.999 70 693 116.5 c 0,32,33
 758 162.999 758 162.999 758 252 c 0,34,35
 758 322 758 322 710.5 365 c 0,36,37
 662.998 408.002 662.998 408.002 510 457 c 1,38,-1
 377 502 l 1,39,40
 239.999 546.001 239.999 546.001 178.5 612 c 0,41,42
 117 678 117 678 117 780 c 0,43,44
 117 926 117 926 224 1009 c 0,45,46
 331 1092 331 1092 520 1092 c 0,47,48
 603.996 1092 603.996 1092 697 1070 c 0,49,50
 789.995 1048 789.995 1048 889 1006 c 1,51,-1
 889 774 l 1,52,-1
 783 774 l 1,53,54
 779.001 877.001 779.001 877.001 711 935 c 0,55,56
 642.998 993 642.998 993 526 993 c 0,57,58
 409.998 993 409.998 993 350.5 952 c 0,59,60
 291 910.998 291 910.998 291 829 c 0,61,62
 291 762 291 762 336 721.5 c 0,63,64
 381 681 381 681 516 639 c 2,65,-1
 662 594 l 2,66,67
 813 546.999 813 546.999 879.5 476.5 c 0,68,69
 946 406.001 946 406.001 946 295 c 0,70,71
 946 143.999 946 143.999 830.5 57.5 c 0,72,73
 714.999 -29 714.999 -29 512 -29 c 0,74,75
 409.005 -29 409.005 -29 311 -7 c 2,76,-1
 299 -4.22379 l 1,0,-1
EndSplineSet
EndChar
StartChar: uni0283
Encoding: 643 643 643
Width: 556
Flags: W
Fore
434 -104 m 2,0,1
 457 -246 457 -246 336 -362 c 0,2,3
 239 -455 239 -455 68 -455 c 0,4,5
 -4 -455 -4 -455 -70 -438 c 0,6,7
 -135 -422 -135 -422 -197 -389 c 1,8,-1
 -197 -170 l 1,9,-1
 -102 -170 l 1,10,11
 -95 -266 -95 -266 -52 -311 c 0,12,13
 -10 -356 -10 -356 72 -356 c 0,14,15
 161 -356 161 -356 206 -294 c 0,16,17
 266 -214 266 -214 249 -104 c 0,18,19
 143 546 143 546 48 1208 c 2,20,21
 27 1351 27 1351 146 1465 c 0,22,23
 243 1558 243 1558 414 1558 c 0,24,25
 486 1558 486 1558 552 1542 c 0,26,27
 617 1526 617 1526 679 1492 c 1,28,-1
 679 1274 l 1,29,-1
 584 1274 l 1,30,31
 577 1370 577 1370 534 1414 c 0,32,33
 492 1460 492 1460 410 1460 c 0,34,35
 319 1460 319 1460 276 1398 c 0,36,37
 217 1317 217 1317 233 1208 c 0,38,39
 327 545 327 545 434 -104 c 2,0,1
EndSplineSet
EndChar
StartChar: uni0284
Encoding: 644 644 644
Width: 758
Flags: W
Fore
250 107 m 1,0,-1
 250 956 l 1,1,-1
 76 956 l 1,2,-1
 76 1063 l 1,3,-1
 250 1063 l 17,4,-1
 250 1205 l 2,5,6
 250 1369 250 1369 348 1462 c 0,7,8
 445 1556 445 1556 616 1556 c 0,9,10
 688 1556 688 1556 754 1540 c 0,11,12
 819 1523 819 1523 881 1490 c 1,13,-1
 881 1271 l 1,14,-1
 786 1271 l 1,15,16
 779 1367 779 1367 736 1412 c 0,17,18
 694 1457 694 1457 612 1457 c 0,19,20
 521 1457 521 1457 478 1396 c 0,21,22
 435 1336 435 1336 435 1205 c 2,23,-1
 435 107 l 1,24,-1
 598 107 l 1,25,-1
 598 0 l 1,26,-1
 435 0 l 1,27,-1
 434 -104 l 0,28,29
 434 -269 434 -269 336 -362 c 0,30,31
 239 -455 239 -455 68 -455 c 0,32,33
 -4 -455 -4 -455 -70 -438 c 0,34,35
 -135 -422 -135 -422 -197 -389 c 1,36,-1
 -197 -170 l 1,37,-1
 -102 -170 l 1,38,39
 -95 -266 -95 -266 -52 -311 c 0,40,41
 -10 -356 -10 -356 72 -356 c 0,42,43
 163 -356 163 -356 206 -294 c 0,44,45
 250 -233 250 -233 250 -104 c 2,46,-1
 250 0 l 1,47,-1
 0 0 l 1,48,-1
 0 107 l 1,49,-1
 250 107 l 1,0,-1
EndSplineSet
EndChar
StartChar: uni0285
Encoding: 645 645 645
Width: 997
Flags: W
Fore
319 -104 m 2,0,-1
 520 735 l 0,1,2
 536 845 536 845 477 926 c 0,3,4
 434 987 434 987 343 987 c 0,5,6
 261 987 261 987 219 942 c 0,7,8
 176 897 176 897 169 801 c 1,9,-1
 74 801 l 1,10,-1
 74 1020 l 1,11,12
 136 1053 136 1053 201 1070 c 0,13,14
 267 1086 267 1086 339 1086 c 0,15,16
 510 1086 510 1086 607 992 c 0,17,18
 737 868 737 868 705 735 c 2,19,-1
 504 -104 l 0,20,21
 487 -214 487 -214 547 -294 c 0,22,23
 592 -356 592 -356 681 -356 c 0,24,25
 763 -356 763 -356 805 -311 c 0,26,27
 848 -266 848 -266 855 -170 c 1,28,-1
 950 -170 l 1,29,-1
 950 -389 l 1,30,31
 888 -422 888 -422 823 -438 c 0,32,33
 757 -455 757 -455 685 -455 c 0,34,35
 514 -455 514 -455 417 -362 c 0,36,37
 287 -237 287 -237 319 -104 c 2,0,-1
EndSplineSet
EndChar
StartChar: uni0286
Encoding: 646 646 646
Width: 664
Flags: W
TeX: 0 0 0 0
Fore
180.046 -356 m 0,0,1
 269.046 -356 269.046 -356 315.046 -294 c 0,2,3
 368.046 -222 368.046 -222 360.046 -127 c 1,4,5
 346.046 -126 346.046 -126 332.046 -126 c 0,6,7
 21.0459 -126 21.0459 -126 21.0459 -249 c 0,8,9
 21.0459 -356 21.0459 -356 180.046 -356 c 0,0,1
533.046 -230 m 1,10,11
 510.046 -301 510.046 -301 445.046 -362 c 0,12,13
 343.046 -455 343.046 -455 182.046 -455 c 0,14,15
 -192.954 -455 -192.954 -455 -196.954 -256 c 0,16,17
 -201.954 -26 -201.954 -26 336.046 -26 c 0,18,19
 340.046 -26 340.046 -26 345.046 -26 c 1,20,21
 151.046 1194 151.046 1194 156.046 1208 c 1,22,23
 134.046 1350 134.046 1350 254.046 1465 c 0,24,25
 351.046 1558 351.046 1558 522.046 1558 c 0,26,27
 594.046 1558 594.046 1558 660.046 1542 c 0,28,29
 725.046 1526 725.046 1526 787.046 1492 c 1,30,-1
 787.046 1274 l 1,31,-1
 692.046 1274 l 1,32,33
 685.046 1370 685.046 1370 643.046 1414 c 0,34,35
 600.046 1460 600.046 1460 518.046 1460 c 0,36,37
 427.046 1460 427.046 1460 384.046 1398 c 0,38,39
 325.046 1317 325.046 1317 341.046 1208 c 0,40,41
 449.046 460 449.046 460 538.046 -80 c 1,42,43
 660.046 -166 660.046 -166 663.046 -386 c 2,44,-1
 664.046 -450 l 1,45,-1
 564.046 -450 l 1,46,-1
 564.046 -386 l 2,47,48
 564.046 -291 564.046 -291 533.046 -230 c 1,10,11
EndSplineSet
EndChar
StartChar: uni0287
Encoding: 647 647 647
Width: 823
Flags: W
Fore
645 107 m 1,0,-1
 807 107 l 1,1,-1
 807 0 l 1,2,-1
 645 0 l 1,3,-1
 645 -330 l 1,4,-1
 460 -330 l 1,5,-1
 460 0 l 1,6,-1
 114 0 l 1,7,-1
 114 107 l 1,8,-1
 460 107 l 1,9,-1
 460 782 l 2,10,11
 460 917 460 917 434 955 c 128,-1,12
 408 993 408 993 338 993 c 0,13,14
 266 993 266 993 233 950 c 0,15,16
 200 908 200 908 198 813 c 1,17,-1
 59 813 l 1,18,19
 67 958 67 958 138 1025 c 128,-1,20
 209 1092 209 1092 354 1092 c 0,21,22
 513 1092 513 1092 579 1022 c 0,23,24
 645 951 645 951 645 782 c 2,25,-1
 645 107 l 1,0,-1
EndSplineSet
EndChar
StartChar: uni0288
Encoding: 648 648 648
Width: 823
Flags: W
Fore
221 956 m 1,0,-1
 59 956 l 1,1,-1
 59 1063 l 1,2,-1
 221 1063 l 1,3,-1
 221 1393 l 1,4,-1
 406 1393 l 1,5,-1
 406 1063 l 1,6,-1
 752 1063 l 1,7,-1
 752 956 l 1,8,-1
 406 956 l 1,9,-1
 406 -116 l 2,10,11
 406 -251 406 -251 432 -289 c 128,-1,12
 458 -327 458 -327 528 -327 c 0,13,14
 600 -327 600 -327 633 -284 c 0,15,16
 666 -242 666 -242 668 -147 c 1,17,-1
 807 -147 l 1,18,19
 799 -292 799 -292 728 -359 c 128,-1,20
 657 -426 657 -426 512 -426 c 0,21,22
 353 -426 353 -426 287 -356 c 0,23,24
 221 -285 221 -285 221 -116 c 2,25,-1
 221 956 l 1,0,-1
EndSplineSet
EndChar
StartChar: uni0289
Encoding: 649 649 649
Width: 1319
Flags: W
Fore
725 1063 m 1,0,-1
 1069 1063 l 1,1,-1
 1069 570 l 1,2,-1
 1243 570 l 1,3,-1
 1243 464 l 1,4,-1
 1069 464 l 1,5,-1
 1069 106 l 1,6,-1
 1243 106 l 1,7,-1
 1243 0 l 1,8,-1
 885 0 l 1,9,-1
 885 188 l 1,10,11
 834 82.001 834 82.001 753 26 c 0,12,13
 671.999 -29 671.999 -29 565 -29 c 0,14,15
 387.999 -29 387.999 -29 304 72 c 0,16,17
 221 171.998 221 171.998 221 387 c 2,18,-1
 221 464 l 1,19,-1
 55 464 l 1,20,-1
 55 570 l 1,21,-1
 221 570 l 1,22,-1
 221 956 l 1,23,-1
 55 956 l 1,24,-1
 55 1063 l 1,25,-1
 406 1063 l 1,26,-1
 406 570 l 1,27,-1
 885 570 l 1,28,-1
 885 956 l 1,29,-1
 725 956 l 1,30,-1
 725 1063 l 1,0,-1
884.957 464 m 1,31,-1
 406 464 l 1,32,-1
 406 444 l 2,33,34
 406 250 406 250 454 178 c 0,35,36
 501.001 106 501.001 106 623 106 c 0,37,38
 751 106 751 106 818 200 c 0,39,40
 883.305 291.623 883.305 291.623 884.957 464 c 1,31,-1
EndSplineSet
EndChar
StartChar: uni028A
Encoding: 650 650 650
Width: 1270
Flags: W
TeX: 0 0 0 0
Fore
1080 990 m 1,0,-1
 835 990 l 1,1,2
 988 926 988 926 1078 797 c 0,3,4
 1168 667 1168 667 1168 510 c 0,5,6
 1168 399 1168 399 1125 303 c 0,7,8
 1082 204 1082 204 1002 131 c 0,9,10
 930 64 930 64 836 29 c 0,11,12
 741 -7 741 -7 635 -7 c 0,13,14
 528 -7 528 -7 435 28 c 128,-1,15
 342 63 342 63 269 131 c 0,16,17
 187 206 187 206 145 303 c 0,18,19
 102 400 102 400 102 510 c 0,20,21
 102 667 102 667 192 796 c 0,22,23
 282 926 282 926 436 990 c 1,24,-1
 103 990 l 1,25,-1
 103 1096 l 1,26,-1
 548 1096 l 1,27,-1
 548 931 l 1,28,29
 429 885 429 885 368 782 c 128,-1,30
 307 679 307 679 307 526 c 0,31,32
 307 341 307 341 397 229 c 0,33,34
 488 117 488 117 635 117 c 128,-1,35
 782 117 782 117 872 229 c 0,36,37
 963 341 963 341 963 526 c 0,38,39
 963 680 963 680 902 783 c 0,40,41
 841 885 841 885 723 931 c 1,42,-1
 723 1096 l 1,43,-1
 1080 1096 l 1,44,-1
 1080 990 l 1,0,-1
EndSplineSet
EndChar
StartChar: uni028B
Encoding: 651 651 651
Width: 1245
Flags: W
TeX: 0 0 0 0
Fore
699 990 m 1,0,-1
 811 990 l 1,1,2
 965 926 965 926 1054 797 c 0,3,4
 1144 667 1144 667 1144 510 c 0,5,6
 1144 399 1144 399 1102 303 c 0,7,8
 1058 204 1058 204 978 131 c 0,9,10
 906 64 906 64 812 29 c 0,11,12
 718 -7 718 -7 611 -7 c 1,13,14
 447 0 447 0 342 94 c 0,15,16
 249 177 249 177 249 351 c 1,17,-1
 250 956 l 1,18,-1
 74 956 l 1,19,-1
 74 1063 l 1,20,-1
 434 1063 l 1,21,-1
 434 351 l 1,22,23
 434 220 434 220 476 160 c 0,24,25
 519 100 519 100 611 99 c 0,26,27
 736 97 736 97 848 229 c 0,28,29
 939 336 939 336 939 526 c 0,30,31
 939 680 939 680 878 783 c 0,32,33
 817 885 817 885 699 931 c 1,34,-1
 699 990 l 1,0,-1
EndSplineSet
EndChar
StartChar: uni028C
Encoding: 652 652 652
Width: 1157
Flags: W
Fore
639 1063 m 1,0,-1
 1030 107 l 1,1,-1
 1151 107 l 1,2,-1
 1151 0 l 1,3,-1
 662 0 l 1,4,-1
 662 107 l 1,5,-1
 832 107 l 1,6,-1
 533 838 l 1,7,-1
 234 107 l 1,8,-1
 393 107 l 1,9,-1
 393 0 l 1,10,-1
 -6 0 l 1,11,-1
 -6 107 l 1,12,-1
 113 107 l 1,13,-1
 504 1063 l 1,14,-1
 639 1063 l 1,0,-1
EndSplineSet
EndChar
StartChar: uni028D
Encoding: 653 653 653
Width: 1753
Flags: W
Fore
776 0 m 1,0,-1
 504 830 l 1,1,-1
 264 107 l 1,2,-1
 418 107 l 1,3,-1
 418 0 l 1,4,-1
 33 0 l 1,5,-1
 33 107 l 1,6,-1
 151 107 l 1,7,-1
 467 1063 l 1,8,-1
 620 1063 l 1,9,-1
 882 268 l 1,10,-1
 1145 1063 l 1,11,-1
 1292 1063 l 1,12,-1
 1607 107 l 1,13,-1
 1726 107 l 1,14,-1
 1726 0 l 1,15,-1
 1245 0 l 1,16,-1
 1245 107 l 1,17,-1
 1417 107 l 1,18,-1
 1179 830 l 1,19,-1
 905 0 l 1,20,-1
 776 0 l 1,0,-1
EndSplineSet
EndChar
StartChar: uni028E
Encoding: 654 654 654
Width: 1157
Flags: W
Fore
703 1258 m 1,0,-1
 633 1081 l 1,1,-1
 1030 107 l 1,2,-1
 1151 107 l 1,3,-1
 1151 0 l 1,4,-1
 662 0 l 1,5,-1
 662 107 l 1,6,-1
 832 107 l 1,7,-1
 533 838 l 1,8,-1
 234 107 l 1,9,-1
 393 107 l 1,10,-1
 393 0 l 1,11,-1
 -6 0 l 1,12,-1
 -6 107 l 1,13,-1
 113 107 l 1,14,-1
 600 1303 l 1,15,16
 650 1427 650 1427 711 1472 c 0,17,18
 772 1518 772 1518 883 1518 c 0,19,20
 930 1518 930 1518 980 1510 c 0,21,22
 1029 1502 1029 1502 1079 1487 c 1,23,-1
 1079 1284 l 1,24,-1
 985 1284 l 1,25,26
 979 1352 979 1352 950 1382 c 0,27,28
 922 1411 922 1411 862 1411 c 0,29,30
 807 1411 807 1411 774 1380 c 0,31,32
 740 1350 740 1350 703 1258 c 1,0,-1
EndSplineSet
EndChar
StartChar: uni028F
Encoding: 655 655 655
Width: 1342
Flags: W
TeX: 0 0 0 0
Fore
424 -2 m 1,0,-1
 424 102 l 1,1,-1
 610 104 l 1,2,-1
 610 435 l 1,3,-1
 274 976 l 1,4,-1
 84 976 l 1,5,-1
 84 1087 l 1,6,-1
 635 1089 l 1,7,-1
 635 978 l 1,8,-1
 449 976 l 1,9,-1
 721 536 l 1,10,-1
 993 976 l 1,11,-1
 795 976 l 1,12,-1
 795 1087 l 1,13,-1
 1269 1089 l 1,14,-1
 1269 978 l 1,15,-1
 1084 976 l 1,16,-1
 757 449 l 1,17,-1
 757 104 l 1,18,-1
 942 106 l 1,19,-1
 942 0 l 1,20,-1
 424 -2 l 1,0,-1
EndSplineSet
EndChar
StartChar: uni0290
Encoding: 656 656 656
Width: 1223
Flags: W
TeX: 0 0 0 0
Fore
82 0 m 1,0,-1
 82 86 l 1,1,-1
 748 956 l 1,2,-1
 221 956 l 1,3,-1
 221 772 l 1,4,-1
 115 772 l 1,5,-1
 115 1063 l 1,6,-1
 985 1063 l 1,7,-1
 985 977 l 1,8,-1
 319 106 l 1,9,-1
 1004 106 l 1,10,-1
 1004 -104 l 2,11,12
 1004 -234.999 1004 -234.999 1046 -294 c 0,13,14
 1090 -356 1090 -356 1181 -356 c 0,15,16
 1263 -356 1263 -356 1305 -311 c 0,17,18
 1348 -265.998 1348 -265.998 1355 -170 c 1,19,-1
 1450 -170 l 1,20,-1
 1450 -389 l 1,21,22
 1387.99 -422.002 1387.99 -422.002 1322 -438 c 0,23,24
 1257 -455 1257 -455 1185 -455 c 0,25,26
 1016 -455 1016 -455 916 -362 c 0,27,28
 819 -269.998 819 -269.998 819 -104 c 2,29,-1
 819 3.44169e-15 l 1,30,-1
 82 0 l 1,0,-1
EndSplineSet
EndChar
StartChar: uni0291
Encoding: 657 657 657
Width: 1147
Flags: W
TeX: 0 0 0 0
Fore
572 108 m 1,0,1
 791 122 791 122 791 207 c 0,2,3
 791 328 791 328 728 328 c 0,4,5
 585 328 585 328 572 108 c 1,0,1
442 1 m 1,6,-1
 82 0 l 1,7,-1
 82 86 l 1,8,-1
 748 956 l 1,9,-1
 221 956 l 1,10,-1
 221 772 l 1,11,-1
 115 772 l 1,12,-1
 115 1063 l 1,13,-1
 985 1063 l 1,14,-1
 985 977 l 1,15,-1
 319 106 l 1,16,-1
 451 106 l 1,17,18
 496 430 496 430 744 430 c 0,19,20
 1014 430 1014 430 1009 200 c 0,21,22
 1005 7 1005 7 573 0 c 1,23,24
 573 -22 573 -22 573 -46 c 2,25,-1
 573 -190 l 1,26,-1
 440 -189 l 1,27,-1
 441 -45 l 2,28,29
 441 -22 441 -22 442 1 c 1,6,-1
EndSplineSet
EndChar
StartChar: uni0292
Encoding: 658 658 658
Width: 1156
Flags: W
TeX: 0 0 0 0
Fore
528 423 m 2,0,-1
 433 423 l 1,1,-1
 433 525 l 1,2,-1
 763 956 l 1,3,-1
 236 956 l 1,4,-1
 236 772 l 1,5,-1
 130 772 l 1,6,-1
 130 1063 l 1,7,-1
 1000 1063 l 1,8,-1
 1000 977 l 1,9,-1
 631 494 l 1,10,-1
 710 487 l 0,11,12
 894 458 894 458 996 337 c 0,13,14
 1097 217 1097 217 1097 25 c 0,15,16
 1097 -209 1097 -209 956 -334 c 0,17,18
 816 -458 816 -458 552 -458 c 0,19,20
 435 -458 435 -458 324 -430 c 0,21,22
 212 -402 212 -402 102 -345 c 1,23,-1
 102 -21 l 1,24,-1
 214 -21 l 1,25,26
 224 -182 224 -182 311 -265 c 128,-1,27
 398 -348 398 -348 556 -348 c 0,28,29
 709 -348 709 -348 798 -248 c 0,30,31
 886 -149 886 -149 886 23 c 0,32,33
 886 220 886 220 795 322 c 0,34,35
 704 423 704 423 528 423 c 2,0,-1
EndSplineSet
EndChar
StartChar: uni0293
Encoding: 659 659 659
Width: 1147
Flags: W
TeX: 0 0 0 0
Fore
552 -458 m 0,0,1
 177 -458 177 -458 173 -259 c 0,2,3
 168 -27 168 -27 433 -29 c 0,4,5
 736 -32 736 -32 841 -186 c 1,6,7
 886 -100 886 -100 886 23 c 0,8,9
 886 220 886 220 795 322 c 0,10,11
 704 423 704 423 528 423 c 2,12,-1
 433 423 l 1,13,-1
 433 525 l 1,14,-1
 763 956 l 1,15,-1
 236 956 l 1,16,-1
 236 772 l 1,17,-1
 130 772 l 1,18,-1
 130 1063 l 1,19,-1
 1000 1063 l 1,20,-1
 1000 977 l 1,21,-1
 631 494 l 1,22,-1
 710 487 l 1,23,24
 894 458 894 458 996 337 c 0,25,26
 1097 217 1097 217 1097 25 c 0,27,28
 1097 -209 1097 -209 956 -334 c 0,29,30
 939 -349 939 -349 919 -363 c 1,31,32
 934 -438 934 -438 933 -457 c 1,33,-1
 820 -457 l 1,34,-1
 811 -404 l 1,35,36
 650 -458 650 -458 552 -458 c 0,0,1
768 -268 m 1,37,38
 692 -128 692 -128 502 -129 c 0,39,40
 391 -129 391 -129 391 -252 c 0,41,42
 391 -347 391 -347 556 -348 c 0,43,44
 692 -348 692 -348 768 -268 c 1,37,38
EndSplineSet
EndChar
StartChar: uni0294
Encoding: 660 660 660
Width: 1098
Flags: W
Fore
410 106 m 1,0,-1
 410 832 l 1,1,-1
 526 832 l 2,2,3
 616 832 616 832 660 894 c 0,4,5
 702 954 702 954 702 1148 c 0,6,7
 702 1338 702 1338 660 1398 c 0,8,9
 616 1460 616 1460 526 1460 c 0,10,11
 444 1460 444 1460 401 1414 c 0,12,13
 358 1370 358 1370 352 1274 c 1,14,-1
 256 1274 l 1,15,-1
 256 1492 l 1,16,17
 318.008 1526 318.008 1526 384 1542 c 0,18,19
 450.004 1558 450.004 1558 522 1558 c 0,20,21
 691.999 1558 691.999 1558 790 1465 c 0,22,23
 888 1372 888 1372 888 1148 c 0,24,25
 888 919.998 888 919.998 790 826 c 0,26,27
 708.003 749.001 708.003 749.001 594 741 c 1,28,-1
 594 106 l 1,29,-1
 768 106 l 1,30,-1
 768 0 l 1,31,-1
 594 0 l 1,32,-1
 410 0 l 1,33,-1
 234 0 l 1,34,-1
 234 106 l 1,35,-1
 410 106 l 1,0,-1
EndSplineSet
EndChar
StartChar: uni0295
Encoding: 661 661 661
Width: 1098
Flags: W
Fore
712 0 m 1,0,-1
 528 0 l 1,1,-1
 354 0 l 1,2,-1
 354 106 l 1,3,-1
 528 106 l 1,4,-1
 528 741 l 1,5,6
 413.997 749.001 413.997 749.001 332 826 c 0,7,8
 234 919.998 234 919.998 234 1148 c 0,9,10
 234 1372 234 1372 332 1465 c 0,11,12
 428.999 1558 428.999 1558 600 1558 c 0,13,14
 671.996 1558 671.996 1558 738 1542 c 0,15,16
 802.991 1526 802.991 1526 865 1492 c 1,17,-1
 865 1274 l 1,18,-1
 770 1274 l 1,19,20
 763.001 1370 763.001 1370 720 1414 c 1,21,22
 677.999 1460 677.999 1460 596 1460 c 0,23,24
 504.998 1460 504.998 1460 462 1398 c 0,25,26
 419 1338 419 1338 419 1148 c 0,27,28
 419 954.001 419 954.001 462 894 c 0,29,30
 504.998 832 504.998 832 596 832 c 2,31,-1
 712 832 l 1,32,-1
 712 106 l 1,33,-1
 888 106 l 1,34,-1
 888 0 l 1,35,-1
 712 0 l 1,0,-1
EndSplineSet
EndChar
StartChar: uni0296
Encoding: 662 662 662
Width: 1098
Flags: W
Fore
410 1558 m 1,0,-1
 594 1558 l 1,1,-1
 768 1558 l 1,2,-1
 768 1452 l 1,3,-1
 594 1452 l 1,4,-1
 594 818 l 1,5,6
 708.002 809 708.002 809 790 732 c 0,7,8
 888 638.002 888 638.002 888 410 c 0,9,10
 888 186.999 888 186.999 790 94 c 0,11,12
 691.998 0 691.998 0 522 0 c 0,13,14
 450.004 0 450.004 0 384 16 c 0,15,16
 317.998 33.0014 317.998 33.0014 256 66 c 1,17,-1
 256 285 l 1,18,-1
 352 285 l 1,19,20
 358 189.001 358 189.001 401 144 c 0,21,22
 443.999 99 443.999 99 526 99 c 0,23,24
 615.998 99 615.998 99 660 160 c 0,25,26
 702 220 702 220 702 410 c 0,27,28
 702 605 702 605 660 665 c 0,29,30
 615.998 726 615.998 726 526 726 c 2,31,-1
 410 726 l 1,32,-1
 410 1452 l 1,33,-1
 234 1452 l 1,34,-1
 234 1558 l 1,35,-1
 410 1558 l 1,0,-1
EndSplineSet
EndChar
StartChar: uni0297
Encoding: 663 663 663
Width: 1051
Flags: W
TeX: 0 0 0 0
Fore
114 125 m 1,0,-1
 114 1204 l 2,1,2
 114 1368 114 1368 212 1462 c 0,3,4
 309 1555 309 1555 480 1555 c 0,5,6
 552 1555 552 1555 618 1538 c 0,7,8
 683 1522 683 1522 745 1489 c 1,9,-1
 745 1270 l 1,10,-1
 650 1270 l 1,11,12
 643 1366 643 1366 600 1411 c 0,13,14
 558 1456 558 1456 476 1456 c 0,15,16
 385 1456 385 1456 342 1394 c 0,17,18
 299 1335 299 1335 299 1204 c 2,19,-1
 299 128 l 1,20,-1
 299 -104 l 2,21,22
 299 -234 299 -234 342 -294 c 0,23,24
 385 -356 385 -356 476 -356 c 0,25,26
 558 -356 558 -356 600 -311 c 0,27,28
 643 -266 643 -266 650 -170 c 1,29,-1
 745 -170 l 1,30,-1
 745 -389 l 1,31,32
 683 -422 683 -422 618 -438 c 0,33,34
 552 -455 552 -455 480 -455 c 0,35,36
 309 -455 309 -455 212 -362 c 0,37,38
 114 -268 114 -268 114 -104 c 2,39,-1
 114 125 l 1,0,-1
EndSplineSet
EndChar
StartChar: uni0298
Encoding: 664 664 664
Width: 1474
Flags: W
Fore
712 138 m 8,0,1
 879 272 879 272 880 542 c 24,2,3
 881 811 881 811 714 947 c 24,4,5
 547 1082 547 1082 379 948 c 24,6,7
 212 814 212 814 211 545 c 24,8,9
 211 276 211 276 377 140 c 24,10,11
 544 5 544 5 712 138 c 8,0,1
544 0 m 24,12,13
 230 1 230 1 74 273 c 24,14,15
 -82 546 -82 546 76 817 c 152,-1,16
 234 1088 234 1088 548 1087 c 24,17,18
 861 1086 861 1086 1017 813 c 24,19,20
 1173 541 1173 541 1015 270 c 152,-1,21
 857 -1 857 -1 544 0 c 24,12,13
545 437 m 24,22,23
 484 437 484 437 453 490 c 24,24,25
 423 544 423 544 454 597 c 24,26,27
 484 650 484 650 546 650 c 152,-1,28
 608 650 608 650 638 596 c 24,29,30
 669 543 669 543 638 490 c 152,-1,31
 607 437 607 437 545 437 c 24,22,23
EndSplineSet
EndChar
StartChar: uni0299
Encoding: 665 665 665
Width: 1130
Flags: W
Fore
408 106 m 1,0,-1
 669 106 l 2,1,2
 804 106 804 106 861 163 c 0,3,4
 921 224 921 224 921 314 c 0,5,6
 921 415 921 415 861 472 c 0,7,8
 801 528 801 528 669 528 c 2,9,-1
 408 528 l 1,10,-1
 408 106 l 1,0,-1
408 650 m 1,11,-1
 636 650 l 2,12,13
 756 650 756 650 811 696 c 128,-1,14
 866 742 866 742 866 818 c 0,15,16
 866 889 866 889 811 934 c 0,17,18
 756 980 756 980 636 980 c 2,19,-1
 408 980 l 1,20,-1
 408 650 l 1,11,-1
84 0 m 1,21,-1
 85 106 l 1,22,-1
 274 106 l 1,23,-1
 274 980 l 1,24,-1
 85 980 l 1,25,-1
 84 1087 l 1,26,-1
 671 1087 l 2,27,28
 836 1087 836 1087 919 1020 c 0,29,30
 1002 952 1002 952 1002 818 c 0,31,32
 1002 721 1002 721 945 664 c 0,33,34
 887 606 887 606 775 593 c 1,35,36
 914 576 914 576 985 505 c 0,37,38
 1057 434 1057 434 1057 314 c 0,39,40
 1057 153 1057 153 955 76 c 0,41,42
 853 0 853 0 637 0 c 2,43,-1
 84 0 l 1,21,-1
EndSplineSet
EndChar
StartChar: uni029A
Encoding: 666 666 666
Width: 1256
Flags: W
TeX: 0 0 0 0
Fore
539 70 m 0,0,1
 551 70 551 70 639 88 c 0,2,3
 680 96 680 96 751 133 c 0,4,5
 991 257 991 257 991 532 c 0,6,7
 991 791 991 791 751 930 c 0,8,9
 735 945 735 945 639 975 c 0,10,11
 601 987 601 987 539 987 c 0,12,13
 431 987 431 987 373 936 c 0,14,15
 316 884 316 884 316 789 c 0,16,17
 316 684 316 684 386 631 c 0,18,19
 457 578 457 578 595 578 c 2,20,-1
 633 578 l 9,21,-1
 633 479 l 1,22,-1
 595 479 l 2,23,24
 457 479 457 479 386 426 c 0,25,26
 316 373 316 373 316 268 c 0,27,28
 316 172 316 172 373 121 c 0,29,30
 431 70 431 70 539 70 c 0,0,1
822 1018 m 0,31,32
 1163 868 1163 868 1163 528 c 0,33,34
 1163 220 1163 220 822 38 c 0,35,36
 764 7 764 7 663 -17 c 0,37,38
 585 -36 585 -36 511 -36 c 0,39,40
 315 -35 315 -35 208 41 c 0,41,42
 102 118 102 118 102 259 c 0,43,44
 102 362 102 362 177 433 c 0,45,46
 253 504 253 504 388 528 c 1,47,48
 253 553 253 553 177 624 c 0,49,50
 102 695 102 695 102 798 c 0,51,52
 102 939 102 939 208 1015 c 0,53,54
 314 1092 314 1092 511 1092 c 0,55,56
 551 1092 551 1092 663 1074 c 0,57,58
 718 1068 718 1068 822 1018 c 0,31,32
EndSplineSet
EndChar
StartChar: uni029B
Encoding: 667 667 667
Width: 1339
Flags: W
TeX: 0 0 0 0
Fore
1018 725 m 1,0,-1
 911 725 l 1,1,2
 881.999 882.001 881.999 882.001 820 929 c 0,3,4
 738 993 738 993 618 993 c 0,5,6
 488 993 488 993 397 872 c 0,7,8
 308 753 308 753 308 512 c 0,9,10
 308 276 308 276 400 154 c 1,11,12
 479 54 479 54 717 54 c 0,13,14
 777.999 54 777.999 54 849 84 c 0,15,16
 901.998 105.998 901.998 105.998 914 114 c 1,17,-1
 912 400 l 1,18,-1
 715 400 l 1,19,-1
 715 477 l 1,20,-1
 1054 477 l 1,21,-1
 1054 75 l 1,22,23
 961 18.999 961 18.999 853 -9 c 0,24,25
 745.995 -37 745.995 -37 624 -37 c 0,26,27
 387.001 -37 387.001 -37 244 116 c 0,28,29
 102 269.001 102 269.001 102 523 c 0,30,31
 102 778.001 102 778.001 245 931 c 0,32,33
 388 1083 388 1083 629 1083 c 0,34,35
 718.992 1083 718.992 1083 814 1061 c 2,36,-1
 831.96 1056.9 l 1,37,-1
 832 1205 l 1,38,39
 832 1369 832 1369 929 1462 c 0,40,41
 1026 1556 1026 1556 1198 1556 c 0,42,43
 1269.99 1556 1269.99 1556 1335 1540 c 0,44,45
 1400.01 1523 1400.01 1523 1462 1490 c 1,46,-1
 1462 1271 l 1,47,-1
 1368 1271 l 1,48,49
 1360 1367 1360 1367 1318 1412 c 0,50,51
 1276 1457 1276 1457 1194 1457 c 0,52,53
 1102 1457 1102 1457 1059 1396 c 0,54,55
 1016 1337 1016 1337 1016 1205 c 2,56,-1
 1016 997.795 l 1,57,-1
 1018 997 l 1,58,-1
 1018 725 l 1,0,-1
EndSplineSet
EndChar
StartChar: uni029C
Encoding: 668 668 668
Width: 1323
Flags: W
Fore
84 0 m 1,0,-1
 84 106 l 1,1,-1
 274 106 l 1,2,-1
 274 980 l 1,3,-1
 84 980 l 1,4,-1
 84 1087 l 1,5,-1
 668 1087 l 1,6,-1
 668 980 l 1,7,-1
 456 980 l 1,8,-1
 456 650 l 1,9,-1
 876 650 l 1,10,-1
 876 980 l 1,11,-1
 738 980 l 1,12,-1
 738 1087 l 1,13,-1
 1250 1087 l 1,14,-1
 1250 980 l 1,15,-1
 1060 980 l 1,16,-1
 1060 106 l 1,17,-1
 1250 106 l 1,18,-1
 1250 0 l 1,19,-1
 752 0 l 1,20,-1
 752 106 l 1,21,-1
 876 106 l 1,22,-1
 876 528 l 1,23,-1
 456 528 l 1,24,-1
 456 106 l 1,25,-1
 667 106 l 1,26,-1
 667 0 l 1,27,-1
 84 0 l 1,0,-1
EndSplineSet
EndChar
StartChar: uni029D
Encoding: 669 669 669
Width: 749
Flags: W
TeX: 0 0 0 0
Fore
514.093 -290 m 1,0,1
 557.093 -388 557.093 -388 563.093 -454 c 1,2,-1
 450.093 -454 l 1,3,-1
 433.093 -379 l 24,4,5
 333.093 -455 333.093 -455 182.093 -455 c 0,6,7
 -192.907 -455 -192.907 -455 -196.907 -256 c 0,8,9
 -201.907 -24 -201.907 -24 63.0928 -26 c 0,10,11
 253.093 -28 253.093 -28 364.093 -86 c 1,12,-1
 364.093 956 l 1,13,-1
 190.093 956 l 1,14,-1
 190.093 1063 l 1,15,-1
 548.093 1063 l 1,16,-1
 548.093 -104 l 2,17,18
 548.093 -217 548.093 -217 514.093 -290 c 1,0,1
350.093 -216 m 1,19,20
 294.093 -126 294.093 -126 132.093 -126 c 0,21,22
 21.0928 -126 21.0928 -126 21.0928 -249 c 0,23,24
 21.0928 -344 21.0928 -344 186.093 -344 c 0,25,26
 312.093 -344 312.093 -344 350.093 -216 c 1,19,20
319.093 1393 m 0,27,28
 319.093 1439 319.093 1439 353.093 1473 c 0,29,30
 386.093 1507 386.093 1507 433.093 1507 c 0,31,32
 479.093 1507 479.093 1507 513.093 1473 c 0,33,34
 546.093 1439 546.093 1439 546.093 1393 c 0,35,36
 546.093 1346 546.093 1346 514.093 1313 c 0,37,38
 481.093 1280 481.093 1280 433.093 1280 c 0,39,40
 386.093 1280 386.093 1280 353.093 1313 c 0,41,42
 319.093 1346 319.093 1346 319.093 1393 c 0,27,28
EndSplineSet
EndChar
StartChar: uni029E
Encoding: 670 670 670
Width: 1241
Flags: W
Fore
749 520 m 1,0,-1
 894 655 l 1,1,-1
 894 1063 l 1,2,-1
 1244 1063 l 1,3,-1
 1244 957 l 1,4,-1
 1078 957 l 1,5,-1
 1080 -322 l 1,6,-1
 1257 -322 l 1,7,-1
 1257 -428 l 1,8,-1
 719 -428 l 1,9,-1
 719 -322 l 1,10,-1
 896 -322 l 1,11,-1
 894 520 l 1,12,-1
 446 107 l 1,13,-1
 599 107 l 1,14,-1
 599 0 l 1,15,-1
 118 0 l 1,16,-1
 118 107 l 1,17,-1
 300 107 l 1,18,-1
 616 399 l 1,19,-1
 212 957 l 1,20,-1
 59 957 l 1,21,-1
 59 1063 l 1,22,-1
 583 1063 l 1,23,-1
 583 957 l 1,24,-1
 431 957 l 1,25,-1
 749 520 l 1,0,-1
EndSplineSet
EndChar
StartChar: uni029F
Encoding: 671 671 671
Width: 1323
Flags: W
Fore
84 0 m 1,0,-1
 84 106 l 1,1,-1
 274 106 l 1,2,-1
 274 980 l 1,3,-1
 84 980 l 1,4,-1
 84 1087 l 1,5,-1
 667 1087 l 1,6,-1
 667 980 l 1,7,-1
 477 980 l 1,8,-1
 477 123 l 1,9,-1
 937 123 l 1,10,-1
 937 373 l 1,11,-1
 1060 373 l 1,12,-1
 1060 0 l 1,13,-1
 84 0 l 1,0,-1
EndSplineSet
EndChar
StartChar: uni02A0
Encoding: 672 672 672
Width: 1399
Flags: W
TeX: 0 0 0 0
Fore
1076 -319 m 1,0,-1
 1251 -319 l 1,1,-1
 1251 -426 l 1,2,-1
 717 -426 l 1,3,-1
 717 -319 l 1,4,-1
 891 -319 l 1,5,-1
 891 166 l 1,6,7
 836.999 65.9987 836.999 65.9987 754 18 c 0,8,9
 670.002 -29 670.002 -29 547 -29 c 0,10,11
 351 -29 351 -29 226 126 c 0,12,13
 102 282.001 102 282.001 102 532 c 0,14,15
 102 781.998 102 781.998 226 937 c 0,16,17
 349.998 1092 349.998 1092 547 1092 c 0,18,19
 670 1092 670 1092 754 1044 c 0,20,21
 837 997 837 997 891 897 c 1,22,-1
 891 973 l 1,23,-1
 891 1205 l 2,24,25
 891 1369 891 1369 988 1462 c 0,26,27
 1086 1556 1086 1556 1257 1556 c 0,28,29
 1328.99 1556 1328.99 1556 1394 1540 c 0,30,31
 1460 1523 1460 1523 1522 1490 c 1,32,-1
 1522 1271 l 1,33,-1
 1427 1271 l 1,34,35
 1420 1367 1420 1367 1378 1412 c 0,36,37
 1335 1457 1335 1457 1253 1457 c 0,38,39
 1162 1457 1162 1457 1118 1396 c 0,40,41
 1076 1337 1076 1337 1076 1205 c 2,42,-1
 1076 -319 l 1,0,-1
891 584 m 2,43,44
 891 775 891 775 818 876 c 0,45,46
 744 977 744 977 604 977 c 0,47,48
 462 977 462 977 390 865 c 0,49,50
 317 753 317 753 317 532 c 0,51,52
 317 312 317 312 390 199 c 0,53,54
 462 86 462 86 604 86 c 0,55,56
 744 86 744 86 818 186 c 0,57,58
 891 287 891 287 891 479 c 2,59,-1
 891 584 l 2,43,44
EndSplineSet
EndChar
StartChar: uni02A1
Encoding: 673 673 673
Width: 1098
Flags: W
Fore
594 106 m 1,0,-1
 768 106 l 1,1,-1
 768 0 l 1,2,-1
 594 0 l 1,3,-1
 410 0 l 1,4,-1
 234 0 l 1,5,-1
 234 106 l 1,6,-1
 410 106 l 1,7,-1
 410 464 l 1,8,-1
 234 464 l 1,9,-1
 234 570 l 1,10,-1
 410 570 l 1,11,-1
 410 832 l 1,12,-1
 526 832 l 2,13,14
 616 832 616 832 660 894 c 0,15,16
 702 954 702 954 702 1148 c 0,17,18
 702 1338 702 1338 660 1398 c 0,19,20
 616 1460 616 1460 526 1460 c 0,21,22
 444 1460 444 1460 401 1414 c 0,23,24
 358 1370 358 1370 352 1274 c 1,25,-1
 256 1274 l 1,26,-1
 256 1492 l 1,27,28
 318.008 1526 318.008 1526 384 1542 c 0,29,30
 450.004 1558 450.004 1558 522 1558 c 0,31,32
 691.999 1558 691.999 1558 790 1465 c 0,33,34
 888 1372 888 1372 888 1148 c 0,35,36
 888 919.998 888 919.998 790 826 c 0,37,38
 708.003 749.001 708.003 749.001 594 741 c 1,39,-1
 594 570 l 1,40,-1
 768 570 l 1,41,-1
 768 464 l 1,42,-1
 594 464 l 1,43,-1
 594 106 l 1,0,-1
EndSplineSet
EndChar
StartChar: uni02A2
Encoding: 674 674 674
Width: 1098
Flags: W
Fore
712 0 m 1,0,-1
 528 0 l 1,1,-1
 354 0 l 1,2,-1
 354 106 l 1,3,-1
 528 106 l 1,4,-1
 528 464 l 1,5,-1
 354 464 l 1,6,-1
 354 570 l 1,7,-1
 528 570 l 1,8,-1
 528 741 l 1,9,10
 413.997 749.001 413.997 749.001 332 826 c 0,11,12
 234 919.998 234 919.998 234 1148 c 0,13,14
 234 1372 234 1372 332 1465 c 0,15,16
 428.999 1558 428.999 1558 600 1558 c 0,17,18
 671.996 1558 671.996 1558 738 1542 c 0,19,20
 802.991 1526 802.991 1526 865 1492 c 1,21,-1
 865 1274 l 1,22,-1
 770 1274 l 1,23,24
 763.001 1370 763.001 1370 720 1414 c 1,25,26
 677.999 1460 677.999 1460 596 1460 c 0,27,28
 504.998 1460 504.998 1460 462 1398 c 0,29,30
 419 1338 419 1338 419 1148 c 0,31,32
 419 954.001 419 954.001 462 894 c 0,33,34
 504.998 832 504.998 832 596 832 c 2,35,-1
 712 832 l 1,36,-1
 712 570 l 1,37,-1
 888 570 l 1,38,-1
 888 464 l 1,39,-1
 712 464 l 1,40,-1
 712 106 l 1,41,-1
 888 106 l 1,42,-1
 888 0 l 1,43,-1
 712 0 l 1,0,-1
EndSplineSet
EndChar
